<?xml version="1.0" standalone="no"?>
<!DOCTYPE svg PUBLIC "-//W3C//DTD SVG 1.1//EN" "http://www.w3.org/Graphics/SVG/1.1/DTD/svg11.dtd" >
<svg xmlns="http://www.w3.org/2000/svg" xmlns:xlink="http://www.w3.org/1999/xlink" version="1.1">
<metadata>
Created by FontForge 20170731 at Sun Jun 12 15:00:35 2016
 By Aleksey,,,
Copyright (c) 2016 by THOMAS GILLETT. All rights reserved.
</metadata>
<defs>
<font id="Gordita-Medium" horiz-adv-x="589" >
  <font-face 
    font-family="Gordita Medium"
    font-weight="500"
    font-stretch="normal"
    units-per-em="1000"
    panose-1="0 0 0 0 0 0 0 0 0 0"
    ascent="800"
    descent="-200"
    x-height="497"
    cap-height="729"
    bbox="-203 -332 1354 1053"
    underline-thickness="46"
    underline-position="-231"
    unicode-range="U+000D-FB04"
  />
<missing-glyph horiz-adv-x="744" 
d="M84 0v729h614v-729h-614zM657 688h-537l537 -651v651z" />
    <glyph glyph-name="ff" unicode="ff" horiz-adv-x="712" 
d="M564 399v-399h-111v399h-221v-399h-112v399h-95v98h95v58q0 109 55 159q52 46 129 46q42 0 62 -8v-94q-16 4 -40 4q-42 0 -70 -28q-24 -26 -24 -78v-59h221v58q0 110 55 159q50 46 128 46q42 0 63 -8v-94q-18 4 -40 4q-43 0 -70 -28q-25 -25 -25 -78v-59h131v-98h-131z
" />
    <glyph glyph-name="fi" unicode="fi" horiz-adv-x="638" 
d="M453 399h-222v-399h-111v399h-95v98h95v58q0 109 55 159q52 46 129 46q42 0 62 -8v-94q-16 4 -40 4q-29 0 -58 -17q-37 -24 -37 -89v-59h333v-497h-111v399zM435 658q0 30 22 52q21 22 51 22t52 -22q21 -21 21 -52q0 -30 -21 -51q-22 -22 -52 -22q-29 0 -51 22t-22 51z
" />
    <glyph glyph-name="fl" unicode="fl" horiz-adv-x="638" 
d="M231 399v-399h-111v399h-95v98h95v58q0 109 55 159q52 46 129 46q42 0 62 -8v-94q-16 4 -40 4q-29 0 -58 -17q-37 -24 -37 -89v-59h222v262h111v-759h-111v399h-222z" />
    <glyph glyph-name="ffi" unicode="ffi" horiz-adv-x="970" 
d="M785 399h-221v-399h-111v399h-221v-399h-112v399h-95v98h95v58q0 109 55 159q52 46 129 46q42 0 62 -8v-94q-16 4 -40 4q-42 0 -70 -28q-24 -26 -24 -78v-59h221v58q0 110 55 159q50 46 128 46q42 0 63 -8v-94q-18 4 -40 4q-43 0 -70 -28q-25 -25 -25 -78v-59h332v-497
h-111v399zM767 658q0 30 22 52q21 22 51 22q31 0 52 -22q22 -22 22 -52q0 -29 -22 -51t-52 -22q-29 0 -51 22t-22 51z" />
    <glyph glyph-name="ffl" unicode="ffl" horiz-adv-x="970" 
d="M564 399v-399h-111v399h-221v-399h-112v399h-95v98h95v58q0 109 55 159q52 46 129 46q42 0 62 -8v-94q-16 4 -40 4q-42 0 -70 -28q-24 -26 -24 -78v-59h221v58q0 110 55 159q50 46 128 46q42 0 63 -8v-94q-18 4 -40 4q-43 0 -70 -28q-25 -25 -25 -78v-59h221v262h111
v-759h-111v399h-221z" />
    <glyph glyph-name=".notdef" horiz-adv-x="744" 
d="M84 0v729h614v-729h-614zM657 688h-537l537 -651v651z" />
    <glyph glyph-name=".null" horiz-adv-x="0" 
 />
    <glyph glyph-name="nonmarkingreturn" horiz-adv-x="310" 
 />
    <glyph glyph-name="NULL" horiz-adv-x="0" 
 />
    <glyph glyph-name="NULL" horiz-adv-x="0" 
 />
    <glyph glyph-name="CR" unicode="&#xd;" horiz-adv-x="246" 
 />
    <glyph glyph-name="space" unicode=" " horiz-adv-x="246" 
 />
    <glyph glyph-name="exclam" unicode="!" horiz-adv-x="290" 
d="M85 729h120v-111l-10 -393h-100l-10 393v111zM72 66q0 -30 21 -51t52 -21q30 0 51 21q22 22 22 51q0 30 -22 52t-51 22q-30 0 -52 -22q-21 -21 -21 -52z" />
    <glyph glyph-name="quotedbl" unicode="&#x22;" horiz-adv-x="432" 
d="M189 647q0 -14 -4 -27l-39 -188h-51l-40 188q-3 14 -3 27q0 34 19 55.5t50 21.5q30 0 49 -21.5t19 -55.5zM286 432l-39 188q-4 20 -4 27q0 34 19.5 55.5t49.5 21.5q31 0 49.5 -21t18.5 -56q0 -12 -3 -27l-40 -188h-51z" />
    <glyph glyph-name="numbersign" unicode="#" horiz-adv-x="771" 
d="M676 283v-90h-142l-42 -193h-97l43 193h-183l-42 -193h-97l42 193h-122v90h142l39 178h-122v90h142l39 178h97l-39 -178h182l39 178h97l-39 -178h122v-90h-142l-39 -178h122zM458 283l39 178h-184l-39 -178h184z" />
    <glyph glyph-name="dollar" unicode="$" horiz-adv-x="596" 
d="M553 206q0 -74 -54 -134q-56 -63 -159 -75v-92h-74v92q-105 12 -166 76q-57 61 -64 133l110 30q11 -54 42 -89t79 -45v215l-26 5q-89 20 -135 72q-48 52 -48 125q-1 80 60.5 143.5t147.5 71.5v96h74v-97q96 -12 146 -67q45 -49 56 -107l-106 -34q-9 35 -34 63t-63 40
v-209l17 -4q96 -19 146.5 -73.5t50.5 -135.5zM267 433v197q-39 -7 -67 -37q-26 -29 -26 -63t25 -60q24 -28 66 -36zM339 302v-201q42 7 70 34q27 27 27 64q0 79 -97 103z" />
    <glyph glyph-name="percent" unicode="%" horiz-adv-x="815" 
d="M315 688q48 -48 48 -116t-48 -117q-48 -48 -116 -48q-67 0 -117 48q-48 49 -48 117t48 116q49 48 117 48t116 -48zM115 0l475 729h109l-474 -729h-110zM249 522q21 21 21 50t-21 50t-50 21q-31 0 -50 -21q-21 -21 -21 -50t21 -50q19 -21 50 -21q29 0 50 21zM780 160
q0 -70 -48 -117q-48 -48 -116 -48t-116 48q-49 48 -49 117q0 67 49 115q48 49 116 49t116 -49q48 -47 48 -115zM687 160q0 28 -21 50q-22 20 -50 20t-50 -20q-21 -22 -21 -50q0 -30 21 -50q20 -21 50 -21t50 21q21 20 21 50z" />
    <glyph glyph-name="ampersand" unicode="&#x26;" horiz-adv-x="679" 
d="M518 0l-60 70q-100 -79 -187 -79q-94 0 -158 47q-68 49 -68 145q0 58 35 104.5t110 93.5l-42 49q-53 61 -53 124q0 76 57 131t143 55q79 0 141 -54q60 -54 60 -127q0 -98 -114 -168l-46 -27l130 -150q53 64 74 126h107q-26 -98 -117 -200l121 -140h-133zM364 616
q-27 27 -67 27t-67 -27q-27 -26 -27 -62q0 -37 32 -74l40 -46l68 41q47 28 47 79q0 36 -26 62zM273 93q57 0 121 51l-144 168q-34 -20 -61 -46q-31 -29 -31 -68q0 -70 57 -93q26 -12 58 -12z" />
    <glyph glyph-name="quotesingle" unicode="'" horiz-adv-x="240" 
d="M95 432l-40 188q-3 15 -3 27q0 34 19 55.5t50 21.5q30 0 49 -21.5t19 -55.5q0 -14 -4 -27l-39 -188h-51z" />
    <glyph glyph-name="parenleft" unicode="(" horiz-adv-x="372" 
d="M353 -65l-48 -62q-124 71 -191 187q-68 118 -68 269v27q0 151 68 272q70 120 191 188l48 -61q-93 -67 -149 -171q-53 -103 -53 -228v-26q0 -248 202 -395z" />
    <glyph glyph-name="parenright" unicode=")" horiz-adv-x="372" 
d="M67 -127l-47 62q201 147 201 395v26q0 125 -53 228q-52 101 -148 171l47 61q123 -69 191 -188q68 -118 68 -272v-27q0 -153 -67 -269q-69 -118 -192 -187z" />
    <glyph glyph-name="asterisk" unicode="*" horiz-adv-x="465" 
d="M314 360l-83 110l-80 -110l-63 46l79 110l-129 43l25 73l128 -42v139h81v-139l129 42l25 -73l-129 -43l79 -110z" />
    <glyph glyph-name="plus" unicode="+" horiz-adv-x="577" 
d="M340 99h-103v191h-195v101h195v188h103v-188h195v-101h-195v-191z" />
    <glyph glyph-name="comma" unicode="," horiz-adv-x="279" 
d="M69 -152v52q37 7 61 37q23 28 25 67q-12 -7 -28 -7q-31 0 -50 21q-20 20 -20 50q0 32 23 53q21 20 55 20q42 0 64 -29q23 -29 23 -71q2 -72 -40.5 -127.5t-112.5 -65.5z" />
    <glyph glyph-name="hyphen" unicode="-" horiz-adv-x="432" 
d="M367 359v-113h-302v113h302z" />
    <glyph glyph-name="period" unicode="." horiz-adv-x="272" 
d="M55 76q0 35 24 59q26 24 57 24q32 0 58 -24q23 -23 23 -59q0 -34 -23 -57q-24 -24 -58 -24q-32 0 -57 25q-24 22 -24 56z" />
    <glyph glyph-name="slash" unicode="/" horiz-adv-x="502" 
d="M363 759h111l-333 -764h-111z" />
    <glyph glyph-name="zero" unicode="0" horiz-adv-x="711" 
d="M515 42q-71 -51 -160 -51q-90 0 -160 50q-71 51 -108 134q-37 84 -37 190q0 159 84 265q86 109 223 109q90 0 160 -49q71 -52 108 -135t37 -189q0 -105 -37 -189q-39 -87 -110 -135zM455 597q-46 37 -100 37q-55 0 -99 -36q-88 -74 -88 -232q-2 -111 52 -190.5t137 -78.5
q56 0 99 37q42 35 65 96q23 63 23 135q0 155 -89 232z" />
    <glyph glyph-name="one" unicode="1" horiz-adv-x="430" 
d="M223 606l-163 -98l-53 87l222 134h109v-729h-115v606z" />
    <glyph glyph-name="two" unicode="2" horiz-adv-x="619" 
d="M47 0l-1 31q-1 160 174 264l113 66q57 34 83.5 68.5t26.5 81.5q0 52 -37 88q-38 35 -98 35q-88 0 -124 -70q-14 -27 -15 -78l-116 15q-2 49 21 99t67 86q66 54 169 54q116 0 186 -70q65 -67 65 -157q0 -67 -36 -123q-35 -57 -100 -95l-133 -78q-6 -3 -14.5 -9t-11.5 -8
q-18 -13 -29 -22q-37 -31 -48 -74h379v-104h-521z" />
    <glyph glyph-name="three" unicode="3" horiz-adv-x="625" 
d="M306 -8q-115 0 -188 66q-69 61 -80 154l111 20q5 -59 47 -97q43 -40 110 -40q82 0 125 60q23 31 23 74q0 55 -40 89q-41 32 -99 32q-43 0 -71 -15l-54 85l215 206h-344v103h494v-96l-200 -189q99 -5 160 -66t59 -147q0 -113 -81 -177q-76 -62 -187 -62z" />
    <glyph glyph-name="four" unicode="4" horiz-adv-x="663" 
d="M404 0v161h-375v128l347 440h140v-464h109v-104h-109v-161h-112zM404 265v337l-267 -337h267z" />
    <glyph glyph-name="five" unicode="5" horiz-adv-x="607" 
d="M297 -8q-95 0 -171 52t-91 153l110 24q7 -69 61 -100q46 -26 93 -26q52 0 97 34q49 37 49 106q0 66 -43 104q-43 37 -103 37q-83 0 -136 -60l-104 40l85 373h387v-103h-306l-45 -196q35 30 86 40q30 5 60 5q108 0 174 -66q64 -65 64 -171q0 -115 -80 -182
q-76 -64 -187 -64z" />
    <glyph glyph-name="six" unicode="6" horiz-adv-x="638" 
d="M395 638q-101 0 -166 -78q-60 -74 -68 -175h2q30 43 83 69q52 24 107 24q112 0 179 -73q63 -67 63 -165q0 -71 -37 -130q-36 -57 -98 -89q-60 -30 -133 -30q-137 0 -209 103q-68 97 -68 230q-1 97 31 184.5t92 145.5q86 86 223 86q107 0 179 -40l-38 -99q-61 37 -142 37z
M328 378q-63 0 -107 -40q-46 -40 -46 -101q0 -64 44 -103q43 -39 109 -39q65 0 107 38q42 39 42 102q0 65 -42 104t-107 39z" />
    <glyph glyph-name="seven" unicode="7" horiz-adv-x="573" 
d="M416 625h-389v104h521v-94l-335 -635h-132z" />
    <glyph glyph-name="eight" unicode="8" horiz-adv-x="632" 
d="M316 -8q-102 0 -181 51q-38 25 -61 66.5t-23 89.5q0 58 36 106q37 50 100 71q-53 18 -87 64q-33 45 -33 99q0 44 21.5 83t58.5 64q75 54 169 54q64 0 119 -24q57 -24 94 -70q36 -47 36 -107q0 -51 -33 -97q-31 -45 -87 -66q64 -20 101 -71q35 -47 35 -106q0 -58 -32 -103
t-85 -70q-67 -34 -148 -34zM180 530q0 -46 40 -78q40 -31 96 -31q60 0 98 31q37 30 37 78t-40 79q-38 31 -96 31q-59 0 -97 -30q-38 -32 -38 -80zM165 210q0 -49 44 -85q43 -34 107 -34t108 33q43 34 43 86q0 50 -44 85q-46 34 -108 34q-65 0 -106 -34q-44 -33 -44 -85z" />
    <glyph glyph-name="nine" unicode="9" horiz-adv-x="636" 
d="M245 92q102 0 166 79q61 75 67 177h-2q-31 -46 -84 -71q-51 -25 -110 -25q-99 -2 -169.5 67t-69.5 171q0 113 80 182q78 68 187 68q79 0 138.5 -39t93.5 -106q45 -83 45 -192q1 -97 -30 -183.5t-89 -144.5q-87 -84 -221 -84q-114 0 -183 39l37 99q63 -37 144 -37z
M306 352q63 0 109 40q45 40 45 101q0 64 -44 104q-44 39 -110 39q-63 0 -105 -39q-41 -38 -41 -102q0 -65 40 -104q42 -39 106 -39z" />
    <glyph glyph-name="colon" unicode=":" horiz-adv-x="292" 
d="M65 423q0 34 24 58t57 24q34 0 58 -24q23 -23 23 -58q0 -34 -23 -57q-24 -24 -58 -24q-33 0 -57 24t-24 57zM65 76q0 35 24 59q26 24 57 24q32 0 58 -24q23 -23 23 -59q0 -34 -23 -57q-24 -24 -58 -24q-32 0 -57 25q-24 22 -24 56z" />
    <glyph glyph-name="semicolon" unicode=";" horiz-adv-x="300" 
d="M68 423q0 34 24 58t57 24q34 0 58 -24q23 -23 23 -58q0 -34 -23 -57q-24 -24 -58 -24q-33 0 -57 24t-24 57zM80 -152v52q38 8 60 37q25 30 25 67q-11 -7 -27 -7q-32 0 -51 21q-19 19 -19 50q0 32 22 53q21 20 55 20q42 0 65 -29q22 -28 22 -71q2 -72 -40 -127.5
t-112 -65.5z" />
    <glyph glyph-name="less" unicode="&#x3c;" horiz-adv-x="617" 
d="M545 578v-108l-368 -162l368 -162v-110l-510 231v82z" />
    <glyph glyph-name="equal" unicode="=" horiz-adv-x="584" 
d="M517 522v-103h-450v103h450zM517 262v-103h-450v103h450z" />
    <glyph glyph-name="greater" unicode="&#x3e;" horiz-adv-x="617" 
d="M440 308l-368 162v108l510 -229v-82l-510 -231v110z" />
    <glyph glyph-name="question" unicode="?" horiz-adv-x="535" 
d="M154 488l-117 4q-2 30 -2 39q0 62 33 110q32 48 86 74q55 25 113 25q86 0 157 -53q34 -25 54 -62.5t20 -79.5q0 -102 -98 -174q-42 -29 -64 -55q-32 -38 -32 -91h-104q-6 23 -6 44q0 59 36 102q21 24 75 67q73 52 73 104q0 39 -34 67q-34 26 -76 26q-50 0 -83 -35
q-33 -34 -33 -85q0 -7 2 -27zM201 118q-21 -21 -21 -52q0 -30 21 -51t51 -21q31 0 52 21t21 51q0 31 -21 52q-22 22 -52 22q-29 0 -51 -22z" />
    <glyph glyph-name="at" unicode="@" horiz-adv-x="807" 
d="M580 110q-29 0 -61 16q-31 18 -43 42q-20 -27 -51 -42q-30 -15 -59 -15q-42 0 -78 24t-54 59q-19 34 -19 73q-2 85 54 149.5t135 63.5q33 0 63 -22q16 -10 26 -33l10 51h102l-39 -232q-9 -56 33 -56q39 0 76 48q35 49 35 116q0 110 -78 183q-79 74 -204 74
q-65 0 -122 -25q-61 -27 -101 -68q-44 -43 -69 -101q-26 -61 -26 -124q0 -126 82 -214q86 -93 231 -93q108 0 195 65l32 -51q-37 -33 -104 -54q-66 -21 -123 -21q-109 0 -195 48q-84 49 -133 134q-46 82 -46 185q0 78 30 149q32 69 82 121q52 51 121 80q69 30 146 30
q95 0 175 -41q78 -41 124 -113q45 -74 45 -163q0 -107 -58 -177q-56 -66 -134 -66zM414 383q-39 0 -66 -33q-27 -32 -27 -72q2 -28 19 -50q19 -22 50 -22q36 0 63 33q26 34 26 75q0 30 -18 49.5t-47 19.5z" />
    <glyph glyph-name="A" unicode="A" horiz-adv-x="729" 
d="M185 171l-68 -171h-117l297 729h135l295 -729h-119l-67 171h-356zM225 273h277l-139 346z" />
    <glyph glyph-name="B" unicode="B" horiz-adv-x="684" 
d="M93 729h279q106 0 170 -51q64 -52 64 -141q0 -37 -20 -78q-23 -51 -85 -79q78 -25 111 -80q27 -48 27 -96q0 -91 -66 -148q-67 -56 -193 -56h-287v729zM206 420h144q72 0 106 30q36 30 36 75q0 47 -34 74t-102 27h-150v-206zM207 103h175q68 0 105.5 29.5t37.5 80.5
q0 49 -38.5 78t-111.5 29h-168v-217z" />
    <glyph glyph-name="C" unicode="C" horiz-adv-x="785" 
d="M411 -9q-83 -1 -160.5 36t-129.5 103q-76 94 -76 232q0 80 30 152q30 70 81 120q52 49 119 77q69 29 141 29q115 0 201 -55q40 -28 66 -57q52 -59 70 -127l-113 -39q-9 40 -36 79q-19 27 -42 44q-56 47 -147 47q-98 0 -173 -72q-77 -75 -77 -194q0 -121 76 -195
q74 -72 173 -72q83 0 141 45q27 22 44 44q31 41 43 84l113 -39q-25 -90 -100 -154q-65 -55 -145 -76q-48 -12 -99 -12z" />
    <glyph glyph-name="D" unicode="D" horiz-adv-x="757" 
d="M713 364q2 -78 -33 -154.5t-101 -129.5q-98 -80 -253 -80h-233v729h231q116 0 200 -45q80 -45 125 -113q64 -97 64 -207zM593 364q2 53 -22.5 107.5t-69.5 93.5q-68 58 -179 58h-115v-517h114q109 0 179 56q30 26 53 59q40 64 40 143z" />
    <glyph glyph-name="E" unicode="E" horiz-adv-x="617" 
d="M93 729h467v-104h-353v-202h321v-104h-321v-215h356v-104h-470v729z" />
    <glyph glyph-name="F" unicode="F" horiz-adv-x="597" 
d="M207 412h323v-106h-323v-306h-114v729h465v-106h-351v-211z" />
    <glyph glyph-name="G" unicode="G" horiz-adv-x="794" 
d="M740 518l-112 -35q-14 53 -64 98q-57 52 -149 52q-70 0 -128 -34q-57 -36 -90 -97q-33 -62 -33 -137q-2 -111 70.5 -190t179.5 -78q91 0 148 46q57 47 69 118h-261v104h385v-40q0 -139 -90 -235q-92 -98 -250 -98q-108 0 -192 48q-86 50 -132 133q-46 85 -46 190
q0 79 29 151q27 69 77 119q107 107 265 107q125 0 211 -64.5t113 -157.5z" />
    <glyph glyph-name="H" unicode="H" horiz-adv-x="775" 
d="M207 315v-315h-114v729h114v-306h361v306h115v-729h-115v315h-361z" />
    <glyph glyph-name="I" unicode="I" horiz-adv-x="300" 
d="M207 729v-729h-114v729h114z" />
    <glyph glyph-name="J" unicode="J" horiz-adv-x="587" 
d="M271 -8q-110 0 -173 62q-65 62 -65 166v77h112v-71q0 -60 36 -93q35 -34 84 -34q53 0 87 34t34 87v509h115v-509q0 -99 -65 -163q-65 -65 -165 -65z" />
    <glyph glyph-name="K" unicode="K" horiz-adv-x="662" 
d="M207 0h-114v729h114v-315l291 315h152l-326 -349l345 -380h-155l-307 344v-344z" />
    <glyph glyph-name="L" unicode="L" horiz-adv-x="551" 
d="M93 729h114v-623h329v-106h-443v729z" />
    <glyph glyph-name="M" unicode="M" horiz-adv-x="969" 
d="M876 0h-114v546h-2l-228 -546h-97l-227 544h-3v-544h-112v729h155l236 -564h1l232 564h159v-729z" />
    <glyph glyph-name="N" unicode="N" horiz-adv-x="800" 
d="M708 0h-128l-374 558v-558h-113v729h132l370 -555v555h113v-729z" />
    <glyph glyph-name="O" unicode="O" horiz-adv-x="838" 
d="M45 363q0 79 30 148q28 70 80 120q49 50 120 79q67 30 145 30q101 0 188 -49q86 -48 135 -135q50 -86 50 -190q0 -78 -30 -149t-80 -119q-51 -50 -120 -78q-72 -29 -146 -29q-75 0 -145 29q-68 27 -119 76q-49 49 -79 119q-29 69 -29 148zM165 365q-2 -109 73.5 -189
t180.5 -78q105 0 181 78q73 78 73 189q0 73 -33 135q-34 61 -93 97t-128 36q-105 2 -180.5 -78t-73.5 -190z" />
    <glyph glyph-name="P" unicode="P" horiz-adv-x="635" 
d="M606 502q0 -97 -68 -163q-71 -69 -201 -69h-130v-270h-114v729h258q154 0 218 -98q37 -57 37 -129zM490 500q0 50 -34 86.5t-115 36.5h-134v-248h134q80 0 116 41q33 38 33 84z" />
    <glyph glyph-name="Q" unicode="Q" horiz-adv-x="840" 
d="M729 -15l-89 78q-99 -72 -223 -72q-75 0 -145 29q-68 27 -119 76q-49 49 -79 119q-29 69 -29 148t30 148q28 70 80 120q49 50 120 79q67 30 145 30q76 0 145 -29q70 -29 119 -78q50 -50 80 -119q29 -72 29 -148q0 -128 -75 -227l83 -71zM165 365q0 -73 33 -134
q32 -60 92 -97q58 -36 129 -36q73 0 135 39l-135 116l73 84l138 -122q43 67 43 150q0 73 -33 135q-34 61 -93 97t-128 36q-105 2 -180.5 -78t-73.5 -190z" />
    <glyph glyph-name="R" unicode="R" horiz-adv-x="670" 
d="M359 277h-152v-277h-114v729h274q131 0 193 -70q55 -64 55 -155q0 -72 -37 -126t-107 -78l162 -300h-127zM207 380h148q76 0 110 35.5t34 85.5q0 122 -144 122h-148v-243z" />
    <glyph glyph-name="S" unicode="S" horiz-adv-x="606" 
d="M309 -8q-124 0 -195 68q-67 63 -75 145l111 30q12 -65 54 -102q43 -38 107 -38q54 0 94 29q38 29 38 73q0 42 -29 69t-79 38l-90 18q-87 18 -135 72q-49 53 -49 126q-2 88 71 155t169 65q138 -1 202 -83q36 -42 47 -97l-107 -33q-11 43 -48 76t-91 33t-89 -31
q-37 -31 -37 -74q0 -33 25 -61q26 -27 67 -36l92 -18q96 -19 147.5 -74t51.5 -137q0 -83 -65 -146q-70 -67 -187 -67z" />
    <glyph glyph-name="T" unicode="T" horiz-adv-x="614" 
d="M250 0v623h-232v106h578v-106h-232v-623h-114z" />
    <glyph glyph-name="U" unicode="U" horiz-adv-x="736" 
d="M652 729v-446q0 -130 -72 -210q-71 -82 -213 -82t-214 83q-68 79 -68 204v451h114v-447q0 -84 47 -134q48 -49 123 -49q80 0 124 50t44 129v451h115z" />
    <glyph glyph-name="V" unicode="V" horiz-adv-x="720" 
d="M18 729h127l217 -597l219 597h121l-276 -729h-131z" />
    <glyph glyph-name="W" unicode="W" horiz-adv-x="1093" 
d="M22 729h122l164 -567l175 567h127l177 -567l167 567h119l-223 -729h-130l-174 570h-1l-175 -570h-129z" />
    <glyph glyph-name="X" unicode="X" horiz-adv-x="682" 
d="M340 286l-205 -286h-133l271 375l-255 354h137l187 -266l187 266h135l-254 -353l269 -376h-136z" />
    <glyph glyph-name="Y" unicode="Y" horiz-adv-x="699" 
d="M292 0v291l-274 438h132l200 -327l201 327h131l-275 -435v-294h-115z" />
    <glyph glyph-name="Z" unicode="Z" horiz-adv-x="619" 
d="M433 626h-383v103h522v-98l-398 -528h406v-103h-545v99z" />
    <glyph glyph-name="bracketleft" unicode="[" horiz-adv-x="399" 
d="M365 807v-88h-172v-747h172v-89h-276v924h276z" />
    <glyph glyph-name="backslash" unicode="\" horiz-adv-x="502" 
d="M472 -5h-111l-333 764h112z" />
    <glyph glyph-name="bracketright" unicode="]" horiz-adv-x="399" 
d="M205 -28v747h-171v88h276v-924h-276v89h171z" />
    <glyph glyph-name="asciicircum" unicode="^" horiz-adv-x="576" 
d="M160 420h-116l201 309h86l202 -309h-115l-130 203z" />
    <glyph glyph-name="underscore" unicode="_" horiz-adv-x="501" 
d="M501 -65v-99h-501v99h501z" />
    <glyph glyph-name="grave" unicode="`" horiz-adv-x="273" 
d="M252 582h-96l-135 160h135z" />
    <glyph glyph-name="a" unicode="a" horiz-adv-x="535" 
d="M470 0h-108q-5 23 -5 68q-25 -41 -64 -59q-40 -18 -82 -18q-73 0 -120 42q-47 41 -47 105v5q1 95 96 132q51 20 110 20h62q46 0 46 42q0 32 -25 54q-27 22 -73 22q-44 0 -73 -22.5t-35 -60.5l-101 23q5 35 34 75q31 40 78 60q41 19 101 19q140 0 186 -102q17 -37 17 -88
v-237q0 -50 3 -80zM357 201v16h-107q-35 0 -65 -18q-30 -19 -30 -51q0 -31 22 -49.5t57 -18.5q57 0 90 33t33 88z" />
    <glyph glyph-name="b" unicode="b" horiz-adv-x="634" 
d="M593 250q0 -68 -30 -126q-32 -60 -88 -95q-60 -37 -129 -37q-40 0 -91 23q-49 22 -73 61v-76h-108v758h111v-334q24 38 72 61q47 22 92 22q111 0 180 -82q64 -78 64 -175zM183 249q0 -65 42 -111q42 -45 107 -45q66 0 108 45q41 45 41 111q0 67 -41 112q-42 45 -108 45
q-65 0 -107 -45q-42 -47 -42 -112z" />
    <glyph glyph-name="c" unicode="c" horiz-adv-x="567" 
d="M300 -9q-108 -2 -184.5 74.5t-74.5 184.5q0 70 34 129q33 59 94 94q59 34 132 34q89 0 151 -47q62 -46 79 -113l-100 -33q-9 32 -38 61q-34 32 -92 32q-61 0 -104 -43q-42 -44 -42 -113q0 -68 41 -114q42 -45 106 -45q95 0 131 95l101 -33q-17 -61 -74 -109
q-62 -54 -160 -54z" />
    <glyph glyph-name="d" unicode="d" horiz-adv-x="634" 
d="M40 249q0 98 65 176q70 82 183 82q40 0 87 -21q49 -20 74 -60v332h111v-758h-109v78q-18 -30 -51 -51q-34 -19 -63 -27q-30 -8 -52 -8q-69 0 -126 37q-56 35 -88 95q-31 60 -31 125zM450 249q0 67 -41 112q-42 45 -108 45q-65 0 -107 -45q-42 -47 -42 -112t42 -111
q42 -45 107 -45q66 0 108 45q41 45 41 111z" />
    <glyph glyph-name="e" unicode="e" horiz-adv-x="573" 
d="M532 216h-378q1 -54 46 -92.5t100 -37.5q104 0 132 84l93 -29q-13 -45 -47.5 -80t-80.5 -53q-48 -17 -96 -17q-108 -2 -185 74t-75 184q0 70 32 129q33 61 90 94q58 35 128 35q114 0 178 -71q65 -71 65 -186q0 -14 -2 -34zM292 412q-53 0 -88 -31q-37 -30 -44 -81h261
q-3 50 -39 82q-38 30 -90 30z" />
    <glyph glyph-name="f" unicode="f" horiz-adv-x="380" 
d="M232 399v-399h-112v399h-95v98h95v58q0 109 55 159q52 46 129 46q42 0 62 -8v-94q-16 4 -40 4q-42 0 -70 -28q-24 -26 -24 -78v-59h130v-98h-130z" />
    <glyph glyph-name="g" unicode="g" horiz-adv-x="630" 
d="M282 -4q-107 0 -174 77q-68 76 -68 177q0 95 65 173q31 38 78.5 60t101.5 22q42 0 88 -20q50 -23 75 -64v76h108v-494q0 -77 -36 -135q-38 -60 -96 -87q-60 -30 -137 -30q-122 0 -196 74q-38 38 -49 94l104 30q9 -41 48 -69q39 -30 89 -30q68 0 115 37.5t47 110.5v82
q-18 -29 -51 -50q-33 -20 -61 -27q-31 -7 -51 -7zM447 252q0 66 -41 110q-40 44 -107 44t-108 -44t-41 -110t42 -111q42 -46 107 -46t107 46q41 46 41 111z" />
    <glyph glyph-name="h" unicode="h" 
d="M410 0v278q0 58 -28 91t-82 33q-53 0 -84 -34t-31 -91v-277h-111v758h111v-324q22 28 51 46q33 18 53 22q25 5 45 5q92 0 139 -56q47 -54 47 -145v-306h-110z" />
    <glyph glyph-name="i" unicode="i" horiz-adv-x="259" 
d="M78 607q-22 22 -22 51q0 30 22 52q21 22 51 22q31 0 52 -22q21 -21 21 -52q0 -30 -21 -51q-22 -22 -52 -22q-29 0 -51 22zM74 0v497h111v-497h-111z" />
    <glyph glyph-name="j" unicode="j" horiz-adv-x="266" 
d="M64 658q0 31 21 52q22 22 51 22q31 0 53 -22q21 -21 21 -52q0 -30 -21 -51q-24 -22 -53 -22t-51 22q-21 21 -21 51zM81 -70v567h111v-573q0 -88 -36 -129t-111 -41q-37 0 -71 9v94q24 -3 36 -3q71 0 71 76z" />
    <glyph glyph-name="k" unicode="k" horiz-adv-x="540" 
d="M185 243v-243h-111v758h111v-457h1l193 196h151l-225 -225l237 -272h-147l-207 243h-3z" />
    <glyph glyph-name="l" unicode="l" horiz-adv-x="259" 
d="M185 758v-758h-111v758h111z" />
    <glyph glyph-name="m" unicode="m" horiz-adv-x="907" 
d="M401 0v279q0 58 -26.5 91t-79.5 33q-52 0 -80 -34q-30 -36 -30 -92v-277h-111v497h108v-67q23 31 52 48q31 20 51 25q25 5 46 5q107 0 153 -81q36 40 78 62q39 19 95 19q91 0 138 -58q43 -55 43 -143v-307h-111v280q0 58 -26.5 90.5t-79.5 32.5q-52 0 -80 -34
q-30 -35 -30 -91v-278h-110z" />
    <glyph glyph-name="n" unicode="n" 
d="M410 0v278q0 58 -28 91t-82 33q-53 0 -84 -34t-31 -91v-277h-111v497h108v-67q22 29 53 48q31 18 53 24q25 5 46 5q92 0 139 -56q47 -54 47 -145v-306h-110z" />
    <glyph glyph-name="o" unicode="o" horiz-adv-x="605" 
d="M40 249q0 72 36 132q38 62 96 93q60 33 132 33q70 0 130 -33t96 -92q35 -61 35 -131q2 -107 -76.5 -184.5t-185.5 -75.5q-69 0 -131 34q-58 31 -96 93q-36 60 -36 131zM154 251q0 -65 42 -112t108 -47q65 0 107 46q41 46 41 111q0 67 -42 112q-40 46 -107 46
q-66 0 -108 -45q-41 -44 -41 -111z" />
    <glyph glyph-name="p" unicode="p" horiz-adv-x="634" 
d="M593 250q0 -68 -30 -126q-32 -60 -88 -95q-60 -37 -129 -37q-52 0 -110 33q-33 19 -51 48v-318h-111v742h108v-77q30 49 83 69q46 18 84 18q111 0 180 -82q64 -78 64 -175zM183 249q0 -65 42 -111q42 -45 107 -45q66 0 108 45q41 45 41 111q0 67 -41 112q-42 45 -108 45
q-65 0 -107 -45q-42 -47 -42 -112z" />
    <glyph glyph-name="q" unicode="q" horiz-adv-x="634" 
d="M40 249q0 98 65 176q70 82 183 82q57 0 113 -35q33 -20 50 -49v74h109v-742h-111v319q-20 -29 -52 -48q-33 -20 -61 -27q-32 -7 -51 -7q-69 0 -126 37q-56 35 -88 95q-31 60 -31 125zM450 249q0 67 -41 112q-42 45 -108 45q-65 0 -107 -45q-42 -47 -42 -112t42 -111
q42 -45 107 -45q66 0 108 45q41 45 41 111z" />
    <glyph glyph-name="r" unicode="r" horiz-adv-x="366" 
d="M346 499v-114q-13 3 -31 3q-63 0 -96.5 -35t-33.5 -100v-253h-111v497h109v-77q21 39 57.5 60t78.5 21q11 0 27 -2z" />
    <glyph glyph-name="s" unicode="s" horiz-adv-x="461" 
d="M236 -9q-111 1 -163 70q-30 39 -33 75l95 25q8 -36 34 -57.5t66 -21.5q33 0 51.5 15.5t18.5 42.5q0 41 -59 55l-63 15q-64 15 -98 52.5t-34 89.5q0 64 51 110t125 46q105 -1 153 -66q25 -33 30 -67l-93 -26q-7 31 -29.5 50t-60.5 19q-28 0 -48 -16q-20 -14 -20 -40
q0 -42 50 -52l68 -14q67 -15 104 -55q37 -42 37 -95q0 -63 -47.5 -109t-134.5 -46z" />
    <glyph glyph-name="t" unicode="t" horiz-adv-x="396" 
d="M355 497v-100h-126v-237q0 -33 18 -48.5t58 -15.5q20 0 45 4v-95q-37 -10 -79 -10q-77 0 -115 36t-38 123v243h-96v100h96v154h111v-154h126z" />
    <glyph glyph-name="u" unicode="u" 
d="M180 497v-278q0 -58 28 -91t81 -33t84 34t31 91v277h111v-497h-108v67q-23 -31 -52 -48q-26 -17 -54 -24q-19 -5 -46 -5q-59 0 -102 26.5t-64 72.5q-20 43 -20 102v306h111z" />
    <glyph glyph-name="v" unicode="v" horiz-adv-x="562" 
d="M337 0h-111l-210 497h120l146 -368l146 368h117z" />
    <glyph glyph-name="w" unicode="w" horiz-adv-x="819" 
d="M579 145h1l105 352h114l-160 -497h-114l-115 349h-2l-116 -349h-113l-159 497h115l105 -351h1l113 351h111z" />
    <glyph glyph-name="x" unicode="x" horiz-adv-x="531" 
d="M265 173l-125 -173h-127l189 251l-182 246h127l119 -165l120 165h125l-182 -244l188 -253h-127z" />
    <glyph glyph-name="y" unicode="y" horiz-adv-x="570" 
d="M236 56l-221 441h126l155 -326l143 326h120l-341 -742h-118z" />
    <glyph glyph-name="z" unicode="z" horiz-adv-x="492" 
d="M310 400h-263v97h402v-88l-274 -313h275v-96h-410v92z" />
    <glyph glyph-name="braceleft" unicode="{" horiz-adv-x="419" 
d="M123 90l15 102q9 64 -26 87q-31 20 -86 20h-7v90h7q54 0 86 21q35 23 26 87l-15 103q-20 117 42 165q56 42 169 42h50v-88h-44q-94 -1 -109 -51q-5 -25 -4 -47q4 -41 7 -61l11 -74q7 -45 -17 -87t-93 -54q69 -13 93 -54.5t17 -85.5l-11 -75q-6 -45 -7 -68q-1 -26 8 -49
q17 -41 105 -42h44v-88h-50q-118 0 -173.5 45.5t-37.5 161.5z" />
    <glyph glyph-name="bar" unicode="|" horiz-adv-x="283" 
d="M194 830v-938h-105v938h105z" />
    <glyph glyph-name="braceright" unicode="}" horiz-adv-x="419" 
d="M281 192l15 -102q17 -116 -38 -161.5t-173 -45.5h-50v88h45q47 0 77 14q21 8 32 40q6 17 2 64q-2 16 -6 41l-12 75q-7 44 17.5 85.5t93.5 54.5q-69 12 -93 54t-17 87l11 74q3 20 7 61q2 16 0 25q-4 30 -12 40q-27 33 -100 33h-45v88h50q117 1 172.5 -46t38.5 -161
l-15 -103q-9 -63 27 -87q31 -21 85 -21h7v-90h-7q-56 0 -85 -20q-36 -23 -27 -87z" />
    <glyph glyph-name="asciitilde" unicode="~" horiz-adv-x="591" 
d="M393 192q-25 0 -54 12q-28 12 -50 26q-22 16 -47 26q-26 12 -45 12q-42 0 -72 -43l-64 60q51 89 136 89q27 0 59 -12q28 -11 51 -26q23 -16 45 -26q24 -12 41 -12q41 0 72 42l64 -60q-52 -88 -136 -88z" />
    <glyph glyph-name="uni00A0" unicode="&#xa0;" horiz-adv-x="246" 
 />
    <glyph glyph-name="exclamdown" unicode="&#xa1;" horiz-adv-x="275" 
d="M64 435q0 30 21 51q22 21 52 21q31 0 52 -21t21 -51q0 -31 -21 -52q-22 -22 -52 -22q-29 0 -51 22q-22 21 -22 52zM197 -228h-119v111l9 392l101 1l9 -393v-111z" />
    <glyph glyph-name="cent" unicode="&#xa2;" horiz-adv-x="577" 
d="M437 187l101 -33q-17 -56 -65 -101q-54 -51 -137 -60v-88h-70v89q-97 14 -158 85q-63 71 -63 171q0 96 63 169q62 71 158 86v88h70v-88q76 -7 131 -53q53 -44 68 -105l-100 -33q-9 30 -33 56q-25 27 -67 34v-309q70 12 102 92zM189 350q-30 -40 -30 -99q0 -57 30 -99
q29 -41 78 -55v305q-47 -12 -78 -52z" />
    <glyph glyph-name="sterling" unicode="&#xa3;" horiz-adv-x="638" 
d="M492 206l110 -10q0 -86 -52 -141t-137 -55h-358v99q48 24 83 68q34 44 34 96q0 17 -5 47h-108v95h76q-29 79 -29 124t19 86q18 40 50 67q65 57 158 57q95 2 160 -53.5t64 -140.5l-112 -19q0 46 -30 77q-33 31 -80 31q-48 0 -79 -31q-31 -30 -31 -77q0 -23 5 -42
q7 -28 10 -37q3 -7 16 -42h202v-95h-171q3 -14 3 -36q0 -104 -89 -171h192q47 0 73 32q26 31 26 71z" />
    <glyph glyph-name="currency" unicode="&#xa4;" horiz-adv-x="625" 
d="M90 252q0 62 36 118l-79 81l68 68l82 -84q55 32 116 32t115 -31l82 83l68 -69l-79 -80q36 -52 36 -118q0 -55 -35 -116l-2 -3l81 -80l-68 -68l-82 84q-66 -32 -116 -32q-52 0 -116 32l-82 -84l-68 69l80 80q-37 53 -37 118zM397 336q-35 33 -85 33t-85 -33
q-34 -34 -34 -85q0 -49 34 -83q33 -33 85 -33t85 33t33 83q0 52 -33 85z" />
    <glyph glyph-name="yen" unicode="&#xa5;" horiz-adv-x="705" 
d="M630 365v-85h-220v-74h220v-85h-220v-121h-116v121h-219v85h219v74h-219v85h180l-221 364h132l187 -323l187 323h131l-223 -364h182z" />
    <glyph glyph-name="brokenbar" unicode="&#xa6;" horiz-adv-x="281" 
d="M193 466h-105v364h105v-364zM88 -108v363h105v-363h-105z" />
    <glyph glyph-name="section" unicode="&#xa7;" horiz-adv-x="620" 
d="M318 83q43 0 70 24q15 14 15 34q0 39 -89 61l-99 25q-69 17 -115 47q-55 34 -55 90q0 47 29.5 78.5t81.5 44.5q-57 37 -57 96q0 75 69 117q66 40 142 40q105 0 172 -50q58 -45 75 -108l-94 -33q-14 43 -50 69q-37 27 -103 27q-31 0 -61.5 -14t-30.5 -42q0 -41 96 -64
l93 -23q169 -40 169 -136q0 -94 -111 -123q26 -14 42 -40.5t16 -55.5q0 -75 -62 -117t-142 -42q-104 0 -172 47q-69 48 -87 118l94 31q11 -34 38 -57.5t60 -33.5q29 -10 66 -10zM237 440q-34 0 -56.5 -16t-22.5 -41q0 -23 27.5 -39.5t92.5 -33.5q78 -19 107 -19q34 0 57 17
q22 15 22 40q0 23 -27.5 39.5t-92.5 33.5q-79 19 -107 19z" />
    <glyph glyph-name="dieresis" unicode="&#xa8;" horiz-adv-x="391" 
d="M92 578q-29 0 -49 20q-20 22 -20 50q0 27 20 49q20 20 49 20t49 -20q21 -21 21 -49q0 -29 -21 -50q-20 -20 -49 -20zM299 578q-29 0 -49 20q-21 21 -21 50q0 27 20 49q20 20 50 20q29 0 49 -20q20 -22 20 -49q0 -28 -20 -50q-22 -20 -49 -20z" />
    <glyph glyph-name="copyright" unicode="&#xa9;" horiz-adv-x="834" 
d="M416 -9q-74 0 -143 30q-66 27 -118 79q-50 50 -79 120q-30 68 -30 145q0 76 30 145q29 70 79 120q51 51 118 80q70 29 143 29q75 0 144 -29q66 -29 119 -80q49 -50 79 -120q29 -70 29 -145q0 -76 -29 -145q-30 -70 -79 -120q-54 -52 -119 -79q-68 -30 -144 -30zM416 680
q-64 0 -120 -25q-59 -26 -98 -67q-41 -43 -65 -101q-24 -59 -24 -122q0 -65 24 -123t65 -100q88 -91 218 -91q65 0 121 25q55 23 98 66q42 42 65 100q25 61 25 123q0 61 -25 122q-22 58 -65 101q-39 41 -98 67q-56 25 -121 25zM542 309l90 -29q-16 -56 -66 -97
q-55 -48 -143 -48q-98 0 -164 66q-67 67 -67 164q0 63 31 115q32 56 83 84q53 31 119 31q77 0 135 -41q55 -43 70 -102l-90 -29q-9 33 -37.5 57.5t-77.5 24.5q-57 0 -94 -38t-37 -100t37 -102q38 -40 94 -40q84 0 117 84z" />
    <glyph glyph-name="ordfeminine" unicode="&#xaa;" horiz-adv-x="519" 
d="M351 360v45q-17 -24 -51 -38q-32 -12 -57 -12q-75 0 -124 53q-50 55 -50 126q0 70 48.5 125t127.5 55q27 0 57 -12q30 -13 49 -37v42h87v-347h-87zM255 634q-44 0 -70 -29q-27 -29 -27 -71t27 -71t70 -29t70 29q27 30 27 71q0 42 -27 71q-26 29 -70 29zM74 269h364v-79
h-364v79z" />
    <glyph glyph-name="guillemotleft" unicode="&#xab;" horiz-adv-x="591" 
d="M306 423l-145 -143l145 -142l-64 -63l-209 205l209 206zM539 423l-145 -143l146 -142l-65 -63l-209 205l209 206z" />
    <glyph glyph-name="logicalnot" unicode="&#xac;" horiz-adv-x="647" 
d="M46 417v103h530v-298h-105v195h-425z" />
    <glyph glyph-name="uni00AD" unicode="&#xad;" horiz-adv-x="432" 
d="M367 359v-113h-302v113h302z" />
    <glyph glyph-name="registered" unicode="&#xae;" horiz-adv-x="604" 
d="M427 274q-59 -34 -125 -34t-125 34q-57 33 -91 91q-33 57 -33 125q0 66 33 125q36 59 91 91q59 34 125 34t125 -34q55 -32 91 -91q33 -59 33 -125q0 -68 -33 -125q-34 -58 -91 -91zM302 692q-83 0 -141 -59q-58 -58 -58 -143t58 -143q58 -59 141 -59q84 0 142 59
q57 59 57 143t-57 143q-58 59 -142 59zM305 450h-41v-103h-58v286h106q50 0 75 -26q24 -27 24 -65q0 -58 -49 -80l59 -115h-64zM353 541q0 38 -46 38h-43v-76h43q23 0 34.5 11t11.5 27z" />
    <glyph glyph-name="degree" unicode="&#xb0;" horiz-adv-x="422" 
d="M210 401q-68 0 -117 49t-49 119q0 68 49 117q48 49 117 49q70 0 119 -49t49 -117q0 -70 -49 -119t-119 -49zM210 645q-32 0 -54 -22q-21 -23 -21 -54t21 -54q23 -23 54 -23q32 0 55 23q22 22 22 54q0 30 -23 53t-54 23z" />
    <glyph glyph-name="plusminus" unicode="&#xb1;" horiz-adv-x="633" 
d="M369 176h-105v168h-199v101h199v166h105v-166h198v-101h-198v-168zM566 122v-99h-500v99h500z" />
    <glyph glyph-name="uni00B2" unicode="&#xb2;" horiz-adv-x="433" 
d="M215 830q68 0 112 -41q43 -41 43 -98q0 -38 -24 -74t-64 -60l-66 -40q-33 -18 -42 -38h198v-83h-315v26q0 99 107 162l58 34q56 32 56 72q0 23 -18 39.5t-47 16.5q-28 0 -47 -20q-18 -20 -18 -47l-88 13q1 56 45 97q43 41 110 41z" />
    <glyph glyph-name="uni00B3" unicode="&#xb3;" horiz-adv-x="417" 
d="M365 529q0 -64 -48 -103q-49 -40 -112 -40q-60 0 -109 38q-47 38 -50 99l91 14q0 -29 20 -47q19 -19 48 -19q28 0 47 16.5t19 43.5q0 24 -19 39q-20 15 -45 15q-19 0 -30 -5l-41 64l113 95h-192v81h303v-77l-103 -88h2q48 -6 76 -42q30 -36 30 -84z" />
    <glyph glyph-name="acute" unicode="&#xb4;" horiz-adv-x="265" 
d="M111 742h136l-135 -160h-96z" />
    <glyph glyph-name="uni00B5" unicode="&#xb5;" horiz-adv-x="615" 
d="M195 497v-278q0 -58 28 -91t82 -33q52 0 83 34q32 35 32 91v277h110v-497h-108v67q-56 -75 -147 -75q-48 0 -83 23v-168h-108v650h111z" />
    <glyph glyph-name="paragraph" unicode="&#xb6;" horiz-adv-x="504" 
d="M290 335h-48q-86 0 -147 59q-62 57 -62 139q-1 80 61.5 139t147.5 57h163v-729h-115v335z" />
    <glyph glyph-name="middot" unicode="&#xb7;" horiz-adv-x="281" 
d="M59 300q0 35 24 59t57 24q34 0 58 -24t24 -59q0 -32 -24 -56t-58 -24q-33 0 -57 24t-24 56z" />
    <glyph glyph-name="uni00B9" unicode="&#xb9;" horiz-adv-x="323" 
d="M156 723l-96 -58l-42 70l141 85h93v-424h-96v327z" />
    <glyph glyph-name="ordmasculine" unicode="&#xba;" horiz-adv-x="509" 
d="M255 355q-77 0 -131 51q-55 52 -55 129q0 76 55 128q54 51 131 51t130 -51q55 -52 55 -127q0 -76 -54 -129q-53 -52 -131 -52zM255 634q-45 0 -70 -28q-28 -28 -28 -70q0 -43 28 -72q29 -29 70 -29q44 0 70 29t26 71q0 41 -26 70q-28 29 -70 29zM74 269h361v-79h-361v79z
" />
    <glyph glyph-name="guillemotright" unicode="&#xbb;" horiz-adv-x="591" 
d="M198 280l-145 143l64 63l208 -206l-208 -205l-65 63zM431 280l-145 143l64 63l209 -206l-209 -205l-65 63z" />
    <glyph glyph-name="onequarter" unicode="&#xbc;" horiz-adv-x="896" 
d="M169 631l-97 -57l-42 70l142 85h93v-424h-96v326zM144 0l475 729h109l-473 -729h-111zM691 0v86h-214v102l190 235h117v-255h72v-82h-72v-86h-93zM691 168v159l-128 -159h128z" />
    <glyph glyph-name="onehalf" unicode="&#xbd;" horiz-adv-x="902" 
d="M169 631l-97 -57l-42 70l141 85h94v-424h-96v326zM144 0l475 729h109l-474 -729h-110zM694 433q71 0 112 -40q43 -42 43 -98q0 -39 -23.5 -74.5t-64.5 -59.5l-66 -40q-34 -22 -41 -38h197v-83h-315v25q0 99 107 162l58 34q56 33 56 72q0 24 -17.5 40.5t-46.5 16.5
q-30 0 -47 -20q-19 -21 -19 -48l-88 14q1 56 45 97q41 40 110 40z" />
    <glyph glyph-name="threequarters" unicode="&#xbe;" horiz-adv-x="918" 
d="M359 438q0 -64 -48 -103q-47 -40 -112 -40q-62 0 -109 38q-48 38 -50 98l90 15q0 -29 20 -47q19 -19 48 -19t48 16.5t19 43.5q0 25 -20 39q-19 15 -45 15q-15 0 -30 -5l-40 64l112 94h-192v82h304v-78l-104 -87h2q46 -6 77 -43q30 -36 30 -83zM172 0l475 729h109
l-474 -729h-110zM719 0v86h-214v102l190 235h117v-255h72v-82h-72v-86h-93zM719 168v159l-129 -159h129z" />
    <glyph glyph-name="questiondown" unicode="&#xbf;" horiz-adv-x="524" 
d="M327 486q21 -21 21 -51q0 -31 -21 -52q-22 -22 -51 -22q-30 0 -52 22t-22 52q0 29 22 51q21 21 52 21q30 0 51 -21zM374 13l117 -5q0 -9 0.5 -18t1 -13.5t0.5 -6.5q0 -62 -33 -110q-32 -48 -86 -74q-55 -25 -113 -25q-57 0 -108 24q-51 22 -88 68q-35 47 -35 103
q0 101 99 174q41 30 62 55q33 37 33 91h104q7 -28 7 -44q0 -60 -37 -102q-25 -29 -75 -67q-73 -52 -73 -104q0 -40 34 -67q34 -26 76 -26q50 0 83 35t33 84q0 10 -2 28z" />
    <glyph glyph-name="Agrave" unicode="&#xc0;" horiz-adv-x="729" 
d="M415 796h-96l-135 160h136zM185 171l-68 -171h-117l297 729h135l295 -729h-119l-67 171h-356zM225 273h277l-139 346z" />
    <glyph glyph-name="Aacute" unicode="&#xc1;" horiz-adv-x="729" 
d="M411 955h136l-135 -160h-96zM185 171l-68 -171h-117l297 729h135l295 -729h-119l-67 171h-356zM225 273h277l-139 346z" />
    <glyph glyph-name="Acircumflex" unicode="&#xc2;" horiz-adv-x="729" 
d="M189 795l128 160h87l134 -160h-106l-69 86l-64 -86h-110zM185 171l-68 -171h-117l297 729h135l295 -729h-119l-67 171h-356zM225 273h277l-139 346z" />
    <glyph glyph-name="Atilde" unicode="&#xc3;" horiz-adv-x="729" 
d="M530 942v-10q0 -124 -96 -124q-26 -1 -71 22.5t-60 23.5q-28 0 -31 -45h-77v11q0 124 98 124q23 1 71 -22.5t62 -22.5q30 0 34 43h70zM185 171l-68 -171h-117l297 729h135l295 -729h-119l-67 171h-356zM225 273h277l-139 346z" />
    <glyph glyph-name="Adieresis" unicode="&#xc4;" horiz-adv-x="729" 
d="M258 790q-30 0 -49 21q-20 20 -20 49q0 30 20 50q19 20 49 20t49 -20q21 -21 21 -50q0 -28 -21 -49q-19 -21 -49 -21zM523 811q-20 -21 -49 -21q-30 0 -49 21q-20 19 -20 49t20 50q19 20 49 20t49 -20q21 -21 21 -50q0 -28 -21 -49zM185 171l-68 -171h-117l297 729h135
l295 -729h-119l-67 171h-356zM225 273h277l-139 346z" />
    <glyph glyph-name="Aring" unicode="&#xc5;" horiz-adv-x="728" 
d="M608 0l-67 171h-356l-68 -171h-117l279 684q-50 39 -50 101q0 54 40 91q40 38 95 38t96 -38q39 -38 39 -91q0 -63 -49 -100l277 -685h-119zM364 845q-27 0 -46 -17q-18 -18 -18 -43t19 -43q18 -18 45 -18t45 18t18 43q0 24 -19 42t-44 18zM363 619l-138 -346h277z" />
    <glyph glyph-name="AE" unicode="&#xc6;" horiz-adv-x="980" 
d="M114 0h-125l396 729h538v-104h-348v-202h316v-104h-316v-215h351v-104h-465v171h-255zM260 273h201v353h-11z" />
    <glyph glyph-name="Ccedilla" unicode="&#xc7;" horiz-adv-x="785" 
d="M457 -6q21 -33 21 -74q0 -49 -25 -81q-26 -35 -63 -50q-36 -16 -83 -16q-42 0 -72 11v74q27 -7 62 -7q45 0 71.5 22t26.5 64q0 26 -14 56q-79 6 -149.5 44.5t-117.5 102.5q-69 90 -69 222q0 80 30 152q30 70 81 120q52 49 119 77q69 29 141 29q115 0 201 -55
q40 -28 66 -57q52 -59 70 -127l-113 -39q-9 40 -36 79q-19 27 -42 44q-56 47 -147 47q-98 0 -173 -72q-77 -75 -77 -194q0 -121 76 -195q74 -72 173 -72q83 0 141 45q27 22 44 44q31 41 43 84l113 -39q-15 -59 -61 -114q-26 -31 -59 -56q-74 -59 -178 -69z" />
    <glyph glyph-name="Egrave" unicode="&#xc8;" horiz-adv-x="618" 
d="M412 796h-96l-136 160h137zM528 319h-321v-215h357v-104h-471v729h467v-104h-353v-202h321v-104z" />
    <glyph glyph-name="Eacute" unicode="&#xc9;" horiz-adv-x="618" 
d="M368 955h135l-135 -160h-97zM93 729h467v-104h-353v-202h321v-104h-321v-215h357v-104h-471v729z" />
    <glyph glyph-name="Ecircumflex" unicode="&#xca;" horiz-adv-x="618" 
d="M264 795h-111l130 160h87l133 -160h-106l-68 86zM528 319h-321v-215h357v-104h-471v729h467v-104h-353v-202h321v-104z" />
    <glyph glyph-name="Edieresis" unicode="&#xcb;" horiz-adv-x="617" 
d="M221 790q-29 0 -49 21q-21 21 -21 49t20 50q20 20 50 20q29 0 49 -20t20 -50q0 -29 -20 -49q-21 -21 -49 -21zM486 811q-21 -21 -50 -21q-30 0 -49 21q-20 20 -20 49q0 28 20 50q19 20 49 20t50 -20t20 -50q0 -29 -20 -49zM93 729h467v-104h-353v-202h321v-104h-321v-215
h356v-104h-470v729z" />
    <glyph glyph-name="Igrave" unicode="&#xcc;" horiz-adv-x="300" 
d="M199 796h-96l-135 160h135zM93 0v729h114v-729h-114z" />
    <glyph glyph-name="Iacute" unicode="&#xcd;" horiz-adv-x="300" 
d="M198 955h135l-135 -160h-97zM207 729v-729h-114v729h114z" />
    <glyph glyph-name="Icircumflex" unicode="&#xce;" horiz-adv-x="300" 
d="M86 795h-111l130 160h86l134 -160h-106l-69 86zM93 0v729h114v-729h-114z" />
    <glyph glyph-name="Idieresis" unicode="&#xcf;" horiz-adv-x="300" 
d="M48 790q-30 0 -49 21q-20 20 -20 49q0 30 20 50q19 20 49 20t50 -20q20 -22 20 -50q0 -27 -20 -49q-21 -21 -50 -21zM250 790q-28 0 -48 21q-21 21 -21 49t20 50q20 20 49 20q30 0 50 -20t20 -50q0 -29 -20 -49q-21 -21 -50 -21zM207 729v-729h-114v729h114z" />
    <glyph glyph-name="Eth" unicode="&#xd0;" horiz-adv-x="777" 
d="M112 319h-98v104h98v306h232q138 0 226 -61q37 -24 74 -64q85 -99 89 -240q1 -78 -33.5 -154.5t-100.5 -129.5q-98 -80 -254 -80h-233v319zM227 423h162v-104h-162v-213h113q109 0 180 56q31 27 52 59q41 64 41 143q1 53 -23 107.5t-70 93.5q-66 58 -179 58h-114v-200z
" />
    <glyph glyph-name="Ntilde" unicode="&#xd1;" horiz-adv-x="800" 
d="M568 942v-10q0 -124 -97 -124q-26 -1 -71 22.5t-60 23.5q-28 0 -30 -45h-78v11q0 124 98 124q23 1 71 -22.5t62 -22.5q30 0 34 43h71zM708 0h-128l-374 558v-558h-113v729h132l370 -555v555h113v-729z" />
    <glyph glyph-name="Ograve" unicode="&#xd2;" horiz-adv-x="838" 
d="M474 796h-96l-135 160h136zM45 363q0 79 30 148q28 70 80 120q49 50 120 79q67 30 145 30q101 0 188 -49q86 -48 135 -135q50 -86 50 -190q0 -78 -30 -149t-80 -119q-51 -50 -120 -78q-72 -29 -146 -29q-75 0 -145 29q-68 27 -119 76q-49 49 -79 119q-29 69 -29 148z
M165 365q-2 -109 73.5 -189t180.5 -78q105 0 181 78q73 78 73 189q0 73 -33 135q-34 61 -93 97t-128 36q-105 2 -180.5 -78t-73.5 -190z" />
    <glyph glyph-name="Oacute" unicode="&#xd3;" horiz-adv-x="838" 
d="M465 955h135l-135 -160h-96zM45 363q0 79 30 148q28 70 80 120q49 50 120 79q67 30 145 30q101 0 188 -49q86 -48 135 -135q50 -86 50 -190q0 -78 -30 -149t-80 -119q-51 -50 -120 -78q-72 -29 -146 -29q-75 0 -145 29q-68 27 -119 76q-49 49 -79 119q-29 69 -29 148z
M165 365q-2 -109 73.5 -189t180.5 -78q105 0 181 78q73 78 73 189q0 73 -33 135q-34 61 -93 97t-128 36q-105 2 -180.5 -78t-73.5 -190z" />
    <glyph glyph-name="Ocircumflex" unicode="&#xd4;" horiz-adv-x="838" 
d="M354 795h-110l129 160h87l133 -160h-106l-68 86zM45 363q0 79 30 148q28 70 80 120q49 50 120 79q67 30 145 30q101 0 188 -49q86 -48 135 -135q50 -86 50 -190q0 -78 -30 -149t-80 -119q-51 -50 -120 -78q-72 -29 -146 -29q-75 0 -145 29q-68 27 -119 76q-49 49 -79 119
q-29 69 -29 148zM165 365q-2 -109 73.5 -189t180.5 -78q105 0 181 78q73 78 73 189q0 73 -33 135q-34 61 -93 97t-128 36q-105 2 -180.5 -78t-73.5 -190z" />
    <glyph glyph-name="Otilde" unicode="&#xd5;" horiz-adv-x="838" 
d="M587 942v-10q0 -124 -96 -124q-26 -1 -71 22.5t-60 23.5q-30 0 -31 -45h-77v11q0 124 98 124q23 1 70.5 -22.5t62.5 -22.5q30 0 34 43h70zM45 363q0 79 30 148q28 70 80 120q49 50 120 79q67 30 145 30q101 0 188 -49q86 -48 135 -135q50 -86 50 -190q0 -78 -30 -149
t-80 -119q-51 -50 -120 -78q-72 -29 -146 -29q-75 0 -145 29q-68 27 -119 76q-49 49 -79 119q-29 69 -29 148zM165 365q-2 -109 73.5 -189t180.5 -78q105 0 181 78q73 78 73 189q0 73 -33 135q-34 61 -93 97t-128 36q-105 2 -180.5 -78t-73.5 -190z" />
    <glyph glyph-name="Odieresis" unicode="&#xd6;" horiz-adv-x="838" 
d="M313 790q-29 0 -49 21q-21 21 -21 49t20 50q19 20 50 20q29 0 49 -20q20 -22 20 -50q0 -27 -20 -49q-21 -21 -49 -21zM578 811q-21 -21 -50 -21q-30 0 -49 21q-20 20 -20 49q0 28 20 50q19 20 49 20t50 -20q20 -22 20 -50q0 -27 -20 -49zM45 363q0 79 30 148
q28 70 80 120q49 50 120 79q67 30 145 30q101 0 188 -49q86 -48 135 -135q50 -86 50 -190q0 -78 -30 -149t-80 -119q-51 -50 -120 -78q-72 -29 -146 -29q-75 0 -145 29q-68 27 -119 76q-49 49 -79 119q-29 69 -29 148zM165 365q-2 -109 73.5 -189t180.5 -78q105 0 181 78
q73 78 73 189q0 73 -33 135q-34 61 -93 97t-128 36q-105 2 -180.5 -78t-73.5 -190z" />
    <glyph glyph-name="multiply" unicode="&#xd7;" horiz-adv-x="629" 
d="M126 59l-71 73l188 188l-188 189l71 73l189 -191l188 191l72 -73l-189 -189l189 -188l-72 -73l-188 190z" />
    <glyph glyph-name="Oslash" unicode="&#xd8;" horiz-adv-x="843" 
d="M800 704l-91 -96q87 -103 87 -242q0 -78 -30 -149t-81 -119q-51 -50 -120 -78q-70 -29 -145 -29q-128 0 -225 73l-86 -88l-64 59l85 90q-83 100 -83 238q0 79 30 148q30 70 80 120t120 79q69 30 146 30q122 0 222 -72l91 96zM167 365q0 -87 45 -154l356 374
q-64 48 -147 48q-105 2 -180.5 -78t-73.5 -190zM675 365q0 90 -47 158l-357 -375q67 -50 150 -50q106 0 181 78q73 78 73 189z" />
    <glyph glyph-name="Ugrave" unicode="&#xd9;" horiz-adv-x="736" 
d="M426 796h-96l-135 160h136zM537 278v451h115v-446q0 -130 -72 -210q-71 -82 -213 -82t-214 83q-68 79 -68 204v451h114v-447q0 -84 47 -134q48 -49 123 -49q80 0 124 50t44 129z" />
    <glyph glyph-name="Uacute" unicode="&#xda;" horiz-adv-x="737" 
d="M406 955h136l-135 -160h-96zM653 729v-446q0 -130 -72 -210q-71 -82 -213 -82t-214 83q-69 78 -69 204v451h115v-447q0 -84 47 -134q48 -49 123 -49q80 0 124 50t44 129v451h115z" />
    <glyph glyph-name="Ucircumflex" unicode="&#xdb;" horiz-adv-x="737" 
d="M304 795h-110l129 160h87l133 -160h-106l-68 86zM538 278v451h115v-446q0 -130 -72 -210q-71 -82 -213 -82t-214 83q-69 78 -69 204v451h115v-447q0 -84 47 -134q48 -49 123 -49q80 0 124 50t44 129z" />
    <glyph glyph-name="Udieresis" unicode="&#xdc;" horiz-adv-x="736" 
d="M260 790q-28 0 -49 21q-20 22 -20 49q0 28 20 50q19 20 49 20t50 -20q20 -22 20 -50q0 -27 -20 -49q-21 -21 -50 -21zM525 811q-19 -21 -49 -21t-49 21q-20 20 -20 49q0 28 20 50q19 20 49 20t49 -20q21 -21 21 -50q0 -28 -21 -49zM652 729v-446q0 -130 -72 -210
q-71 -82 -213 -82t-214 83q-68 79 -68 204v451h114v-447q0 -84 47 -134q48 -49 123 -49q80 0 124 50t44 129v451h115z" />
    <glyph glyph-name="Yacute" unicode="&#xdd;" horiz-adv-x="700" 
d="M389 955h135l-135 -160h-96zM292 0v291l-274 438h133l200 -327l201 327h131l-275 -435v-294h-116z" />
    <glyph glyph-name="Thorn" unicode="&#xde;" horiz-adv-x="635" 
d="M207 600h143q157 -1 218 -99q37 -53 37 -129q0 -97 -67 -162q-72 -70 -201 -70h-130v-140h-114v730h114v-130zM207 245h133q81 0 117 41q32 36 32 84q0 51 -34 87.5t-115 36.5h-133v-249z" />
    <glyph glyph-name="germandbls" unicode="&#xdf;" horiz-adv-x="611" 
d="M580 147q0 -57 -39 -104q-44 -52 -136 -52q-75 0 -124 40q-49 41 -50 104l96 19q0 -34 23 -54q22 -18 54 -18q36 0 52 18q18 18 18 42q0 42 -57 65l-36 15q-106 43 -106 129q0 79 70 124l23 15q32 21 45.5 38.5t13.5 41.5q0 40 -31 66q-31 24 -83 24q-60 0 -93 -42
q-35 -42 -35 -115v-503h-111v510q0 124 70 189q67 61 169 61q89 0 156.5 -47.5t67.5 -138.5q0 -62 -33 -101q-27 -33 -63 -54l-21 -13q-33 -20 -33 -45q0 -15 10 -25t36 -20l38 -16q47 -19 79 -60q30 -39 30 -93z" />
    <glyph glyph-name="agrave" unicode="&#xe0;" horiz-adv-x="535" 
d="M318 582h-96l-135 160h136zM211 -9q-73 0 -120 42q-47 41 -47 105v5q1 95 96 132q51 20 110 20h62q46 0 46 42q0 32 -25 54q-27 22 -73 22q-44 0 -73 -22.5t-35 -60.5l-101 23q5 35 34 75q31 40 78 60q41 19 101 19q140 0 186 -102q17 -37 17 -88v-237q0 -50 3 -80h-108
q-5 23 -5 68q-25 -41 -64 -59q-40 -18 -82 -18zM357 217h-107q-35 0 -65 -18q-30 -19 -30 -51q0 -31 22 -49.5t57 -18.5q57 0 90 33t33 88v16z" />
    <glyph glyph-name="aacute" unicode="&#xe1;" horiz-adv-x="535" 
d="M304 742h136l-135 -160h-96zM211 -9q-73 0 -120 42q-47 41 -47 105v5q1 95 96 132q51 20 110 20h62q46 0 46 42q0 32 -25 54q-27 22 -73 22q-44 0 -73 -22.5t-35 -60.5l-101 23q5 35 34 75q31 40 78 60q41 19 101 19q140 0 186 -102q17 -37 17 -88v-237q0 -50 3 -80h-108
q-5 23 -5 68q-25 -41 -64 -59q-40 -18 -82 -18zM357 217h-107q-35 0 -65 -18q-30 -19 -30 -51q0 -31 22 -49.5t57 -18.5q57 0 90 33t33 88v16z" />
    <glyph glyph-name="acircumflex" unicode="&#xe2;" horiz-adv-x="535" 
d="M197 581h-110l129 161h87l133 -161h-106l-68 86zM211 -9q-73 0 -120 42q-47 41 -47 105v5q1 95 96 132q51 20 110 20h62q46 0 46 42q0 32 -25 54q-27 22 -73 22q-44 0 -73 -22.5t-35 -60.5l-101 23q5 35 34 75q31 40 78 60q41 19 101 19q140 0 186 -102q17 -37 17 -88
v-237q0 -50 3 -80h-108q-5 23 -5 68q-25 -41 -64 -59q-40 -18 -82 -18zM357 217h-107q-35 0 -65 -18q-30 -19 -30 -51q0 -31 22 -49.5t57 -18.5q57 0 90 33t33 88v16z" />
    <glyph glyph-name="atilde" unicode="&#xe3;" horiz-adv-x="535" 
d="M429 724v-10q0 -124 -96 -124q-26 -1 -71.5 22.5t-60.5 22.5q-28 0 -30 -44h-77v10q0 124 98 124q23 1 70.5 -22t62.5 -22q28 0 34 43h70zM211 -9q-73 0 -120 42q-47 41 -47 105v5q1 95 96 132q51 20 110 20h62q46 0 46 42q0 32 -25 54q-27 22 -73 22q-44 0 -73 -22.5
t-35 -60.5l-101 23q5 35 34 75q31 40 78 60q41 19 101 19q140 0 186 -102q17 -37 17 -88v-237q0 -50 3 -80h-108q-5 23 -5 68q-25 -41 -64 -59q-40 -18 -82 -18zM357 217h-107q-35 0 -65 -18q-30 -19 -30 -51q0 -31 22 -49.5t57 -18.5q57 0 90 33t33 88v16z" />
    <glyph glyph-name="adieresis" unicode="&#xe4;" horiz-adv-x="535" 
d="M160 578q-29 0 -49 20q-21 21 -21 50q0 27 20 49q22 20 50 20q27 0 49 -20q21 -21 21 -49q0 -29 -21 -50q-22 -20 -49 -20zM366 578q-29 0 -49 20q-20 22 -20 50q0 27 20 49q20 20 49 20q28 0 50 -20q20 -22 20 -49q0 -29 -21 -50q-20 -20 -49 -20zM211 -9q-73 0 -120 42
q-47 41 -47 105v5q1 95 96 132q51 20 110 20h62q46 0 46 42q0 32 -25 54q-27 22 -73 22q-44 0 -73 -22.5t-35 -60.5l-101 23q5 35 34 75q31 40 78 60q41 19 101 19q140 0 186 -102q17 -37 17 -88v-237q0 -50 3 -80h-108q-5 23 -5 68q-25 -41 -64 -59q-40 -18 -82 -18z
M357 201v16h-107q-35 0 -65 -18q-30 -19 -30 -51q0 -31 22 -49.5t57 -18.5q57 0 90 33t33 88z" />
    <glyph glyph-name="aring" unicode="&#xe5;" horiz-adv-x="535" 
d="M467 317v-237q0 -40 4 -80h-109q-4 19 -4 68q-25 -41 -65 -59t-81 -18q-73 0 -121 42q-47 41 -47 105v5q1 95 97 132q49 20 110 20h61q47 0 47 42q0 31 -26 54q-27 22 -72 22q-44 0 -73 -22.5t-36 -60.5l-100 23q5 48 50 93q24 24 54 39q-28 36 -28 80q0 53 40 90
q41 38 95 38q57 0 97 -37q39 -38 39 -91q0 -45 -28 -79q55 -26 79 -81q17 -34 17 -88zM264 621q-25 0 -42 -16.5t-17 -39.5q0 -24 17 -40q16 -17 42 -17t43 17t17 40t-18 39q-19 17 -42 17zM358 217h-108q-35 0 -65 -18q-30 -19 -30 -51q0 -31 22 -49.5t57 -18.5q56 0 91 33
q33 33 33 88v16z" />
    <glyph glyph-name="ae" unicode="&#xe6;" horiz-adv-x="885" 
d="M846 250q0 -22 -1 -34h-380q2 -55 46 -92q46 -38 102 -38q102 0 131 83l95 -28q-21 -70 -84 -110q-66 -40 -141 -40q-123 0 -200 90q-76 -90 -198 -90h-2q-72 0 -122 42q-48 41 -48 105v5q1 95 96 132q51 20 110 20h71q41 0 41 42q0 32 -26.5 53.5t-71.5 22.5
q-46 0 -77 -23q-31 -22 -37 -59l-99 22q5 35 35 74q32 39 81 62q42 18 99 18q117 0 164 -71q68 71 176 71q113 0 177 -71q63 -70 63 -186zM470 300h265q-3 52 -39 82t-91 30q-53 0 -90 -31q-37 -30 -45 -81zM360 217h-110q-35 0 -65 -18q-30 -19 -30 -51q0 -31 22 -49.5
t57 -18.5q57 0 92 32q34 33 34 89v16z" />
    <glyph glyph-name="ccedilla" unicode="&#xe7;" horiz-adv-x="567" 
d="M268 -7q-98 12 -163 84q-64 71 -64 173q0 70 34 129q33 59 94 94q59 34 132 34q89 0 151 -47q62 -46 79 -113l-100 -33q-9 32 -38 61q-34 32 -92 32q-61 0 -104 -43q-42 -44 -42 -113q0 -68 41 -114q42 -45 106 -45q95 0 131 95l101 -33q-24 -79 -98 -125
q-41 -26 -93 -34q22 -35 22 -75q0 -47 -25 -81q-26 -35 -63 -50q-38 -16 -84 -16q-43 0 -71 11v74q25 -7 61 -7q45 0 71.5 22t26.5 64q0 25 -13 56z" />
    <glyph glyph-name="egrave" unicode="&#xe8;" horiz-adv-x="573" 
d="M345 582h-96l-135 160h135zM532 216h-378q1 -54 46 -92.5t100 -37.5q104 0 132 84l93 -29q-13 -45 -47.5 -80t-80.5 -53q-48 -17 -96 -17q-108 -2 -185 74t-75 184q0 70 32 129q33 61 90 94q58 35 128 35q114 0 178 -71q65 -71 65 -186q0 -14 -2 -34zM292 412
q-53 0 -88 -31q-37 -30 -44 -81h261q-3 50 -39 82q-38 30 -90 30z" />
    <glyph glyph-name="eacute" unicode="&#xe9;" horiz-adv-x="573" 
d="M336 742h136l-135 -160h-96zM532 216h-378q1 -54 46 -92.5t100 -37.5q104 0 132 84l93 -29q-13 -45 -47.5 -80t-80.5 -53q-48 -17 -96 -17q-108 -2 -185 74t-75 184q0 70 32 129q33 61 90 94q58 35 128 35q114 0 178 -71q65 -71 65 -186q0 -14 -2 -34zM292 412
q-53 0 -88 -31q-37 -30 -44 -81h261q-3 50 -39 82q-38 30 -90 30z" />
    <glyph glyph-name="ecircumflex" unicode="&#xea;" horiz-adv-x="573" 
d="M224 581h-110l128 161h87l134 -161h-106l-69 86zM532 216h-378q1 -54 46 -92.5t100 -37.5q104 0 132 84l93 -29q-13 -45 -47.5 -80t-80.5 -53q-48 -17 -96 -17q-108 -2 -185 74t-75 184q0 70 32 129q33 61 90 94q58 35 128 35q114 0 178 -71q65 -71 65 -186q0 -14 -2 -34
zM292 412q-53 0 -88 -31q-37 -30 -44 -81h261q-3 50 -39 82q-38 30 -90 30z" />
    <glyph glyph-name="edieresis" unicode="&#xeb;" horiz-adv-x="573" 
d="M186 578q-29 0 -49 20q-20 22 -20 50q0 27 20 49q20 20 49 20t49 -20q21 -21 21 -49q0 -29 -21 -50q-20 -20 -49 -20zM393 578q-29 0 -49 20q-21 21 -21 50q0 27 20 49q20 20 50 20q29 0 49 -20q20 -22 20 -49q0 -28 -20 -50q-22 -20 -49 -20zM534 250q0 -14 -2 -34h-378
q1 -54 46 -92.5t100 -37.5q104 0 132 84l93 -29q-13 -45 -47.5 -80t-80.5 -53q-48 -17 -96 -17q-108 -2 -185 74t-75 184q0 70 32 129q33 61 90 94q58 35 128 35q114 0 178 -71q65 -71 65 -186zM160 300h261q-3 50 -39 82q-38 30 -90 30q-53 0 -88 -31q-37 -30 -44 -81z" />
    <glyph glyph-name="igrave" unicode="&#xec;" horiz-adv-x="260" 
d="M177 578h-96l-135 160h136zM74 0v497h111v-497h-111z" />
    <glyph glyph-name="iacute" unicode="&#xed;" horiz-adv-x="260" 
d="M178 742h136l-135 -160h-97zM185 497v-497h-111v497h111z" />
    <glyph glyph-name="icircumflex" unicode="&#xee;" horiz-adv-x="260" 
d="M65 581h-110l129 161h86l135 -161h-106l-69 86zM74 0v497h111v-497h-111z" />
    <glyph glyph-name="idieresis" unicode="&#xef;" horiz-adv-x="259" 
d="M24 578q-29 0 -49 20t-20 50q0 29 20 49t49 20t49 -20q21 -21 21 -49q0 -29 -21 -50q-20 -20 -49 -20zM230 578q-27 0 -49 20q-20 22 -20 50q0 27 20 49q20 20 49 20q28 0 50 -20q20 -22 20 -49q0 -28 -20 -50q-22 -20 -50 -20zM185 497v-497h-111v497h111z" />
    <glyph glyph-name="eth" unicode="&#xf0;" horiz-adv-x="610" 
d="M513 656l-84 -37q132 -135 132 -337q0 -170 -123 -251q-63 -40 -142 -40q-70 0 -128 34q-59 33 -93 91q-34 60 -34 129q-1 97 70.5 167t169.5 68q42 0 82 -17q42 -17 71 -45h1q-35 100 -100 158l-143 -64l-29 68l104 45q-51 29 -130 52l38 83q108 -26 193 -88l115 53z
M301 90q65 0 107 45q42 43 42 107q0 62 -44 104q-42 42 -109 42q-66 0 -104 -41q-40 -41 -40 -106q0 -61 42 -106t106 -45z" />
    <glyph glyph-name="ntilde" unicode="&#xf1;" 
d="M465 724v-10q0 -124 -96 -124q-26 -1 -71.5 22.5t-60.5 22.5q-28 0 -30 -44h-77v10q0 124 98 124q23 1 70.5 -22t61.5 -22q29 0 35 43h70zM410 0v278q0 58 -28 91t-82 33q-53 0 -84 -34t-31 -91v-277h-111v497h108v-67q22 29 53 48q31 18 53 24q25 5 46 5q92 0 139 -56
q47 -54 47 -145v-306h-110z" />
    <glyph glyph-name="ograve" unicode="&#xf2;" horiz-adv-x="605" 
d="M355 582h-95l-135 160h135zM40 249q0 72 36 132q37 61 96 93q62 33 132 33q71 0 131 -33q59 -33 95 -92q35 -61 35 -131q0 -72 -35 -131q-35 -60 -95 -95q-62 -34 -132 -34q-69 0 -131 34q-58 31 -96 93q-36 60 -36 131zM154 251q0 -65 42 -112t108 -47q65 0 107 46
q41 46 41 111q0 67 -42 112q-40 46 -107 46q-66 0 -108 -45q-41 -44 -41 -111z" />
    <glyph glyph-name="oacute" unicode="&#xf3;" horiz-adv-x="605" 
d="M345 742h136l-135 -160h-96zM40 249q0 72 36 132q37 61 96 93q62 33 132 33q71 0 131 -33q58 -32 95 -92q35 -61 35 -131q2 -108 -76 -185t-186 -75q-69 0 -131 34q-58 31 -96 93q-36 60 -36 131zM154 251q0 -65 42 -112t108 -47q67 0 107 46q41 46 41 111q0 67 -42 112
q-40 46 -107 46q-66 0 -108 -45q-41 -46 -41 -111z" />
    <glyph glyph-name="ocircumflex" unicode="&#xf4;" horiz-adv-x="605" 
d="M238 581h-110l129 161h87l133 -161h-106l-68 86zM40 249q0 72 36 132q37 61 96 93q62 33 132 33q71 0 131 -33q58 -32 95 -92q35 -61 35 -131q2 -108 -76 -185t-186 -75q-69 0 -131 34q-58 31 -96 93q-36 60 -36 131zM154 251q0 -65 42 -112t108 -47q67 0 107 46
q41 46 41 111q0 67 -42 112q-40 46 -107 46q-66 0 -108 -45q-41 -46 -41 -111z" />
    <glyph glyph-name="otilde" unicode="&#xf5;" horiz-adv-x="605" 
d="M470 724v-10q0 -124 -96 -124q-26 -1 -71 22.5t-60 22.5q-28 0 -31 -44h-77v10q0 124 98 124q23 1 71 -22t62 -22q30 0 34 43h70zM40 249q0 72 36 132q37 61 96 93q62 33 132 33q71 0 131 -33q58 -32 95 -92q35 -61 35 -131q2 -108 -76 -185t-186 -75q-69 0 -131 34
q-58 31 -96 93q-36 60 -36 131zM154 251q0 -65 42 -112t108 -47q65 0 107 46q41 46 41 111q0 67 -42 112q-40 46 -107 46q-66 0 -108 -45q-41 -44 -41 -111z" />
    <glyph glyph-name="odieresis" unicode="&#xf6;" horiz-adv-x="605" 
d="M199 578q-29 0 -49 20t-20 50q0 29 20 49t49 20t49 -20q21 -21 21 -49q0 -29 -21 -50q-20 -20 -49 -20zM405 578q-27 0 -49 20q-20 22 -20 50q0 27 20 49q20 20 49 20q28 0 50 -20q20 -22 20 -49q0 -28 -20 -50q-22 -20 -50 -20zM40 249q0 72 36 132q38 62 96 93
q60 33 132 33q70 0 130 -33t96 -92q35 -61 35 -131q2 -107 -76.5 -184.5t-185.5 -75.5q-69 0 -131 34q-58 31 -96 93q-36 60 -36 131zM154 251q0 -65 42 -112t108 -47q65 0 107 46q41 46 41 111q0 67 -42 112q-40 46 -107 46q-66 0 -108 -45q-41 -44 -41 -111z" />
    <glyph glyph-name="divide" unicode="&#xf7;" horiz-adv-x="556" 
d="M228 507q-21 21 -21 50t21 50q22 20 50 20t50 -20q20 -22 20 -50q0 -30 -20 -50q-21 -21 -50 -21t-50 21zM504 395v-103h-452v103h452zM228 81q-21 21 -21 49q0 29 21 50t50 21t50 -21q20 -20 20 -50q0 -28 -20 -50q-22 -20 -50 -20q-29 0 -50 21z" />
    <glyph glyph-name="oslash" unicode="&#xf8;" horiz-adv-x="610" 
d="M568 460l-54 -54q53 -70 53 -157q0 -70 -35 -131q-36 -60 -95 -93q-62 -34 -132 -34q-84 0 -152 47l-55 -55l-56 54l53 55q-52 68 -52 157q0 72 35 131q34 59 95 94q60 33 132 33q85 0 153 -47l54 55zM155 249q0 -43 18 -79l212 215q-36 21 -80 21q-66 0 -108 -45
q-42 -48 -42 -112zM454 249q0 43 -18 78l-211 -214q35 -21 80 -21q67 0 107 46q42 45 42 111z" />
    <glyph glyph-name="ugrave" unicode="&#xf9;" 
d="M348 582h-96l-135 160h136zM180 497v-278q0 -58 28 -91t81 -33t84 34t31 91v277h111v-497h-108v67q-23 -31 -52 -48q-26 -17 -54 -24q-19 -5 -46 -5q-59 0 -102 26.5t-64 72.5q-20 43 -20 102v306h111z" />
    <glyph glyph-name="uacute" unicode="&#xfa;" 
d="M331 742h135l-135 -160h-96zM180 497v-278q0 -58 28 -91t81 -33t84 34t31 91v277h111v-497h-108v67q-23 -31 -52 -48q-26 -17 -54 -24q-19 -5 -46 -5q-59 0 -102 26.5t-64 72.5q-20 43 -20 102v306h111z" />
    <glyph glyph-name="ucircumflex" unicode="&#xfb;" 
d="M227 581h-110l129 161h87l133 -161h-106l-68 86zM180 497v-278q0 -58 28 -91t81 -33t84 34t31 91v277h111v-497h-108v67q-23 -31 -52 -48q-26 -17 -54 -24q-19 -5 -46 -5q-59 0 -102 26.5t-64 72.5q-20 43 -20 102v306h111z" />
    <glyph glyph-name="udieresis" unicode="&#xfc;" 
d="M186 578q-29 0 -49 20q-20 22 -20 50q0 27 20 49q20 20 49 20t49 -20q21 -21 21 -49q0 -29 -21 -50q-20 -20 -49 -20zM393 578q-29 0 -49 20q-21 21 -21 50q0 27 20 49q20 20 50 20q29 0 49 -20q20 -22 20 -49q0 -28 -20 -50q-22 -20 -49 -20zM180 497v-278q0 -58 28 -91
t81 -33t84 34t31 91v277h111v-497h-108v67q-23 -31 -52 -48q-26 -17 -54 -24q-19 -5 -46 -5q-59 0 -102 26.5t-64 72.5q-20 43 -20 102v306h111z" />
    <glyph glyph-name="yacute" unicode="&#xfd;" horiz-adv-x="570" 
d="M331 742h135l-135 -160h-96zM237 56l-222 441h127l154 -326l144 326h120l-341 -742h-119z" />
    <glyph glyph-name="thorn" unicode="&#xfe;" horiz-adv-x="617" 
d="M575 250q0 -108 -63.5 -183.5t-177.5 -75.5q-100 0 -149 70v-265h-111v962h111v-327q19 29 47 44q28 18 55 24t51 6q111 0 174.5 -76.5t62.5 -178.5zM463 249q0 69 -41 112q-40 43 -102 43q-61 0 -102 -44q-39 -45 -39 -111q0 -65 41 -110q40 -45 100 -45q59 0 101 45
t42 110z" />
    <glyph glyph-name="ydieresis" unicode="&#xff;" horiz-adv-x="570" 
d="M186 578q-29 0 -49 20q-20 22 -20 50q0 27 20 49q20 20 49 20t49 -20q21 -21 21 -49q0 -29 -21 -50q-20 -20 -49 -20zM393 578q-29 0 -49 20q-21 21 -21 50q0 27 20 49q20 20 50 20q29 0 49 -20q20 -22 20 -49q0 -28 -20 -50q-22 -20 -49 -20zM236 56l-221 441h126
l155 -326l143 326h120l-341 -742h-118z" />
    <glyph glyph-name="Amacron" unicode="&#x100;" horiz-adv-x="729" 
d="M525 828h-322v88h322v-88zM185 171l-68 -171h-117l297 729h135l295 -729h-119l-67 171h-356zM225 273h277l-139 346z" />
    <glyph glyph-name="amacron" unicode="&#x101;" horiz-adv-x="535" 
d="M419 591h-323v89h323v-89zM211 -9q-73 0 -120 42q-47 41 -47 105v5q1 95 96 132q51 20 110 20h62q46 0 46 42q0 32 -25 54q-27 22 -73 22q-44 0 -73 -22.5t-35 -60.5l-101 23q5 35 34 75q31 40 78 60q41 19 101 19q140 0 186 -102q17 -37 17 -88v-237q0 -50 3 -80h-108
q-5 23 -5 68q-25 -41 -64 -59q-40 -18 -82 -18zM357 217h-107q-35 0 -65 -18q-30 -19 -30 -51q0 -31 22 -49.5t57 -18.5q57 0 90 33t33 88v16z" />
    <glyph glyph-name="Abreve" unicode="&#x102;" horiz-adv-x="729" 
d="M365 794q-67 -2 -115 40.5t-55 118.5h95q5 -79 75 -79t76 79h93q-6 -75 -52 -117t-117 -42zM185 171l-68 -171h-117l297 729h135l295 -729h-119l-67 171h-356zM225 273h277l-139 346z" />
    <glyph glyph-name="abreve" unicode="&#x103;" horiz-adv-x="535" 
d="M259 580q-67 -2 -115.5 40.5t-55.5 118.5h95q6 -79 76 -79t76 79h93q-6 -74 -52 -117q-46 -42 -117 -42zM211 -9q-73 0 -120 42q-47 41 -47 105v5q1 95 96 132q51 20 110 20h62q46 0 46 42q0 32 -25 54q-27 22 -73 22q-44 0 -73 -22.5t-35 -60.5l-101 23q5 35 34 75
q31 40 78 60q41 19 101 19q140 0 186 -102q17 -37 17 -88v-237q0 -50 3 -80h-108q-5 23 -5 68q-25 -41 -64 -59q-40 -18 -82 -18zM357 217h-107q-35 0 -65 -18q-30 -19 -30 -51q0 -31 22 -49.5t57 -18.5q57 0 90 33t33 88v16z" />
    <glyph glyph-name="Aogonek" unicode="&#x104;" horiz-adv-x="729" 
d="M723 -149v-76q-22 -2 -34 -2q-57 0 -96 27q-39 26 -39 75q0 57 87 125h-33l-67 171h-356l-68 -171h-117l297 729h135l295 -729q-28 -22 -35 -29q-13 -10 -28 -32q-14 -22 -14 -38q0 -50 72 -50h1zM225 273h277l-139 346z" />
    <glyph glyph-name="aogonek" unicode="&#x105;" horiz-adv-x="535" 
d="M393 -99q0 -50 72 -50h1v-76q-22 -2 -34 -2q-57 0 -96 27q-39 26 -39 75q0 57 87 125h-22q-5 23 -5 68q-25 -41 -64 -59q-40 -18 -82 -18q-73 0 -120 42q-47 41 -47 105v5q1 95 96 132q51 20 110 20h62q46 0 46 42q0 32 -25 54q-27 22 -73 22q-44 0 -73 -22.5t-35 -60.5
l-101 23q5 35 34 75q31 40 78 60q41 19 101 19q140 0 186 -102q17 -37 17 -88v-237q0 -50 3 -80q-22 -17 -35 -29q-13 -10 -28 -32q-14 -22 -14 -38zM357 217h-107q-35 0 -65 -18q-30 -19 -30 -51q0 -31 22 -49.5t57 -18.5q57 0 90 33t33 88v16z" />
    <glyph glyph-name="Cacute" unicode="&#x106;" horiz-adv-x="785" 
d="M465 955h135l-135 -160h-96zM411 -9q-83 -1 -160.5 36t-129.5 103q-76 94 -76 232q0 80 30 152q30 70 81 120q52 49 119 77q69 29 141 29q115 0 201 -55q40 -28 66 -57q52 -59 70 -127l-113 -39q-9 40 -36 79q-19 27 -42 44q-56 47 -147 47q-98 0 -173 -72
q-77 -75 -77 -194q0 -121 76 -195q74 -72 173 -72q83 0 141 45q27 22 44 44q31 41 43 84l113 -39q-25 -90 -100 -154q-65 -55 -145 -76q-48 -12 -99 -12z" />
    <glyph glyph-name="cacute" unicode="&#x107;" horiz-adv-x="568" 
d="M340 742h136l-135 -160h-96zM300 -9q-108 -2 -184.5 74.5t-75.5 184.5q0 68 35 129q33 59 94 94q59 34 133 34q89 0 151 -47q61 -46 79 -113l-101 -33q-9 32 -38 61q-34 32 -92 32q-61 0 -104 -43q-42 -44 -42 -113t42 -114t105 -45q95 0 131 95l102 -33
q-18 -61 -75 -109q-62 -54 -160 -54z" />
    <glyph glyph-name="Ccircumflex" unicode="&#x108;" horiz-adv-x="785" 
d="M351 795h-110l129 160h87l133 -160h-105l-69 86zM411 -9q-83 -1 -160.5 36t-129.5 103q-76 94 -76 232q0 80 30 152q30 70 81 120q52 49 119 77q69 29 141 29q115 0 201 -55q40 -28 66 -57q52 -59 70 -127l-113 -39q-9 40 -36 79q-19 27 -42 44q-56 47 -147 47
q-98 0 -173 -72q-77 -75 -77 -194q0 -121 76 -195q74 -72 173 -72q83 0 141 45q27 22 44 44q31 41 43 84l113 -39q-25 -90 -100 -154q-65 -55 -145 -76q-48 -12 -99 -12z" />
    <glyph glyph-name="ccircumflex" unicode="&#x109;" horiz-adv-x="568" 
d="M239 581h-110l128 161h87l134 -161h-106l-69 86zM300 -9q-108 -2 -184.5 74.5t-75.5 184.5q0 68 35 129q33 59 94 94q59 34 133 34q89 0 151 -47q61 -46 79 -113l-101 -33q-9 32 -38 61q-34 32 -92 32q-61 0 -104 -43q-42 -44 -42 -113t42 -114t105 -45q95 0 131 95
l102 -33q-18 -61 -75 -109q-62 -54 -160 -54z" />
    <glyph glyph-name="Cdotaccent" unicode="&#x10a;" horiz-adv-x="785" 
d="M467 812q-22 -22 -52 -22q-29 0 -51 22t-22 52t21 52q21 21 52 21t52 -21q22 -24 22 -52q0 -30 -22 -52zM411 -9q-83 -1 -160.5 36t-129.5 103q-76 94 -76 232q0 80 30 152q30 70 81 120q52 49 119 77q69 29 141 29q115 0 201 -55q40 -28 66 -57q52 -59 70 -127l-113 -39
q-9 40 -36 79q-19 27 -42 44q-56 47 -147 47q-98 0 -173 -72q-77 -75 -77 -194q0 -121 76 -195q74 -72 173 -72q83 0 141 45q27 22 44 44q31 41 43 84l113 -39q-25 -90 -100 -154q-65 -55 -145 -76q-48 -12 -99 -12z" />
    <glyph glyph-name="cdotaccent" unicode="&#x10b;" horiz-adv-x="567" 
d="M354 600q-22 -22 -53 -22q-30 0 -51 22q-21 21 -21 51q0 32 21 53t51 21q32 0 53 -21q21 -22 21 -53q0 -30 -21 -51zM300 -9q-108 -2 -184.5 74.5t-74.5 184.5q0 70 34 129q33 59 94 94q59 34 132 34q89 0 151 -47q62 -46 79 -113l-100 -33q-9 32 -38 61q-34 32 -92 32
q-61 0 -104 -43q-42 -44 -42 -113q0 -68 41 -114q42 -45 106 -45q95 0 131 95l101 -33q-17 -61 -74 -109q-62 -54 -160 -54z" />
    <glyph glyph-name="Ccaron" unicode="&#x10c;" horiz-adv-x="785" 
d="M372 796l-129 160h110l65 -86l68 86h106l-133 -160h-87zM411 -9q-83 -1 -160.5 36t-129.5 103q-76 94 -76 232q0 80 30 152q30 70 81 120q52 49 119 77q69 29 141 29q115 0 201 -55q40 -28 66 -57q52 -59 70 -127l-113 -39q-9 40 -36 79q-19 27 -42 44q-56 47 -147 47
q-98 0 -173 -72q-77 -75 -77 -194q0 -121 76 -195q74 -72 173 -72q83 0 141 45q27 22 44 44q31 41 43 84l113 -39q-25 -90 -100 -154q-65 -55 -145 -76q-48 -12 -99 -12z" />
    <glyph glyph-name="ccaron" unicode="&#x10d;" horiz-adv-x="568" 
d="M256 581l-128 161h110l64 -86l69 86h106l-134 -161h-87zM300 -9q-108 -2 -184.5 74.5t-75.5 184.5q0 68 35 129q33 59 94 94q59 34 133 34q89 0 151 -47q61 -46 79 -113l-101 -33q-9 32 -38 61q-34 32 -92 32q-61 0 -104 -43q-42 -44 -42 -113t42 -114t105 -45
q95 0 131 95l102 -33q-18 -61 -75 -109q-62 -54 -160 -54z" />
    <glyph glyph-name="Dcaron" unicode="&#x10e;" horiz-adv-x="759" 
d="M284 796l-129 160h110l65 -86l68 86h106l-134 -160h-86zM715 364q1 -78 -34 -154.5t-101 -129.5q-98 -80 -253 -80h-234v729h232q118 0 200 -45q80 -45 125 -113q65 -99 65 -207zM597 364q1 53 -23 107.5t-69 93.5q-68 58 -180 58h-115v-517h115q108 0 179 56
q31 27 52 59q41 64 41 143z" />
    <glyph glyph-name="dcaron" unicode="&#x10f;" horiz-adv-x="652" 
d="M635 759h124l-54 -218h-84zM40 249q0 98 65 176q70 82 183 82q40 0 87 -21q49 -20 74 -60v332h111v-758h-109v78q-18 -30 -51 -51q-34 -19 -63 -27q-30 -8 -52 -8q-69 0 -126 37q-56 35 -88 95q-31 60 -31 125zM450 249q0 67 -41 112q-42 45 -108 45q-65 0 -107 -45
q-42 -47 -42 -112t42 -111q42 -45 107 -45q66 0 108 45q41 45 41 111z" />
    <glyph glyph-name="Dcroat" unicode="&#x110;" horiz-adv-x="777" 
d="M112 319h-98v104h98v306h232q138 0 226 -61q37 -24 74 -64q85 -99 89 -240q1 -78 -33.5 -154.5t-100.5 -129.5q-98 -80 -254 -80h-233v319zM227 423h162v-104h-162v-213h113q109 0 180 56q31 27 52 59q41 64 41 143q1 53 -23 107.5t-70 93.5q-66 58 -179 58h-114v-200z
" />
    <glyph glyph-name="dslash" unicode="&#x111;" horiz-adv-x="634" 
d="M560 585v-585h-109v78q-18 -30 -51 -51q-34 -19 -63 -27q-32 -8 -52 -8q-69 0 -126 37q-56 35 -88 95q-31 60 -31 125q0 98 65 176q70 82 183 82q39 0 87 -21q49 -20 74 -60v159h-155v81h155v92h111v-92h65v-81h-65zM450 249q0 67 -41 112q-42 45 -108 45q-67 0 -107 -45
q-42 -47 -42 -112q0 -66 42 -111t107 -45q66 0 108 45q41 45 41 111z" />
    <glyph glyph-name="Emacron" unicode="&#x112;" horiz-adv-x="618" 
d="M490 828h-323v88h323v-88zM93 731h467v-104h-352v-202h320v-104h-320v-215h356v-104h-471v729z" />
    <glyph glyph-name="emacron" unicode="&#x113;" horiz-adv-x="573" 
d="M453 591h-323v89h323v-89zM532 216h-378q1 -54 46 -92.5t100 -37.5q104 0 132 84l93 -29q-13 -45 -47.5 -80t-80.5 -53q-48 -17 -96 -17q-108 -2 -185 74t-75 184q0 70 32 129q33 61 90 94q58 35 128 35q114 0 178 -71q65 -71 65 -186q0 -14 -2 -34zM292 412
q-53 0 -88 -31q-37 -30 -44 -81h261q-3 50 -39 82q-38 30 -90 30z" />
    <glyph glyph-name="Edotaccent" unicode="&#x116;" horiz-adv-x="618" 
d="M385 812q-24 -22 -53 -22t-51 22q-21 21 -21 52t20 52q22 21 52 21t53 -21q21 -22 21 -52q0 -31 -21 -52zM93 729h467v-104h-352v-202h320v-104h-320v-215h356v-104h-471v729z" />
    <glyph glyph-name="edotaccent" unicode="&#x117;" horiz-adv-x="573" 
d="M345 600q-21 -22 -52 -22t-52 22q-21 21 -21 51q0 31 21 53q21 21 52 21t52 -21q22 -22 22 -53q0 -30 -22 -51zM532 216h-378q1 -54 46 -92.5t100 -37.5q104 0 132 84l93 -29q-13 -45 -47.5 -80t-80.5 -53q-48 -17 -96 -17q-108 -2 -185 74t-75 184q0 70 32 129
q33 61 90 94q58 35 128 35q114 0 178 -71q65 -71 65 -186q0 -14 -2 -34zM292 412q-53 0 -88 -31q-37 -30 -44 -81h261q-3 50 -39 82q-38 30 -90 30z" />
    <glyph glyph-name="Eogonek" unicode="&#x118;" horiz-adv-x="617" 
d="M560 -149v-76q-22 -2 -35 -2q-57 0 -96 27q-39 26 -39 75q0 57 87 125h-384v729h467v-104h-353v-202h321v-104h-321v-215h356v-104h1q-30 -23 -36 -29q-11 -10 -28 -32q-14 -22 -14 -38q0 -50 72 -50h2z" />
    <glyph glyph-name="eogonek" unicode="&#x119;" horiz-adv-x="573" 
d="M306 -9h-5q-108 -2 -185 74t-75 184q0 70 32 129q33 61 90 94q58 35 128 35q114 0 178 -71q65 -71 65 -186q0 -14 -2 -34h-378q1 -54 46 -92.5t100 -37.5q104 0 132 84l93 -29q-15 -56 -73 -102l-53 -43q-39 -32 -56 -53t-17 -42q0 -50 72 -50h2v-76q-22 -2 -35 -2
q-57 0 -96 27q-39 26 -39 75q0 55 76 116zM292 412q-53 0 -88 -31q-37 -30 -44 -81h261q-3 50 -39 82q-38 30 -90 30z" />
    <glyph glyph-name="Ecaron" unicode="&#x11a;" horiz-adv-x="618" 
d="M287 796l-129 160h110l65 -86l68 86h106l-133 -160h-87zM93 729h467v-104h-352v-202h320v-104h-320v-215h356v-104h-471v729z" />
    <glyph glyph-name="ecaron" unicode="&#x11b;" horiz-adv-x="573" 
d="M246 581l-128 161h110l64 -86l69 86h106l-134 -161h-87zM532 216h-378q1 -54 46 -92.5t100 -37.5q104 0 132 84l93 -29q-13 -45 -47.5 -80t-80.5 -53q-48 -17 -96 -17q-108 -2 -185 74t-75 184q0 70 32 129q33 61 90 94q58 35 128 35q114 0 178 -71q65 -71 65 -186
q0 -14 -2 -34zM292 412q-53 0 -88 -31q-37 -30 -44 -81h261q-3 50 -39 82q-38 30 -90 30z" />
    <glyph glyph-name="Gcircumflex" unicode="&#x11c;" horiz-adv-x="795" 
d="M354 795h-110l129 160h87l133 -160h-106l-68 86zM741 518l-112 -35q-14 53 -64 98q-57 52 -149 52q-108 0 -179 -77q-73 -76 -73 -191q0 -74 32 -135q32 -62 89 -97q58 -36 130 -36q91 0 148 46q57 48 69 118h-262v104h385v-40q0 -140 -90 -235q-90 -98 -249 -98
q-108 0 -193 48q-84 49 -131 133t-47 190q0 79 29 151q29 70 78 119q50 50 118 78q70 29 147 29q125 0 211 -64.5t113 -157.5z" />
    <glyph glyph-name="gcircumflex" unicode="&#x11d;" horiz-adv-x="630" 
d="M234 581h-111l129 161h87l134 -161h-106l-69 86zM282 -4q-107 0 -174 77q-68 76 -68 177q0 95 65 173q31 38 78.5 60t101.5 22q42 0 88 -20q50 -23 75 -64v76h108v-494q0 -77 -36 -135q-38 -60 -96 -87q-60 -30 -137 -30q-122 0 -196 74q-38 38 -49 94l104 30
q9 -41 48 -69q39 -30 89 -30q68 0 115 37.5t47 110.5v82q-18 -29 -51 -50q-33 -20 -61 -27q-31 -7 -51 -7zM447 252q0 66 -41 110q-40 44 -107 44t-108 -44t-41 -110t42 -111q42 -46 107 -46t107 46q41 46 41 111z" />
    <glyph glyph-name="Gbreve" unicode="&#x11e;" horiz-adv-x="795" 
d="M419 794q-67 -2 -115 40.5t-55 118.5h95q5 -79 75 -79t76 79h93q-6 -75 -52 -117t-117 -42zM741 518l-112 -35q-14 53 -64 98q-57 52 -149 52q-108 0 -179 -77q-73 -76 -73 -191q0 -74 32 -135q32 -62 89 -97q58 -36 130 -36q91 0 148 46q57 48 69 118h-262v104h385v-40
q0 -140 -90 -235q-90 -98 -249 -98q-108 0 -193 48q-84 49 -131 133t-47 190q0 79 29 151q29 70 78 119q50 50 118 78q70 29 147 29q125 0 211 -64.5t113 -157.5z" />
    <glyph glyph-name="gbreve" unicode="&#x11f;" horiz-adv-x="630" 
d="M299 580q-68 -2 -116 40.5t-55 118.5h95q6 -79 76 -79t76 79h93q-6 -74 -52 -117q-46 -42 -117 -42zM282 -4q-107 0 -174 77q-68 76 -68 177q0 95 65 173q31 38 78.5 60t101.5 22q42 0 88 -20q50 -23 75 -64v76h108v-494q0 -77 -36 -135q-38 -60 -96 -87
q-60 -30 -137 -30q-122 0 -196 74q-38 38 -49 94l104 30q9 -41 48 -69q39 -30 89 -30q68 0 115 37.5t47 110.5v82q-18 -29 -51 -50q-33 -20 -61 -27q-31 -7 -51 -7zM447 252q0 66 -41 110q-40 44 -107 44t-108 -44t-41 -110t42 -111q42 -46 107 -46t107 46q41 46 41 111z
" />
    <glyph glyph-name="Gdotaccent" unicode="&#x120;" horiz-adv-x="794" 
d="M470 812q-24 -22 -53 -22t-51 22q-21 21 -21 52t20 52q23 21 52 21q31 0 53 -21q21 -22 21 -52q0 -31 -21 -52zM740 518l-112 -35q-14 53 -64 98q-57 52 -149 52q-70 0 -128 -34q-57 -36 -90 -97q-33 -62 -33 -137q-2 -111 70.5 -190t179.5 -78q91 0 148 46q57 47 69 118
h-261v104h385v-40q0 -139 -90 -235q-92 -98 -250 -98q-108 0 -192 48q-86 50 -132 133q-46 85 -46 190q0 79 29 151q27 69 77 119q107 107 265 107q125 0 211 -64.5t113 -157.5z" />
    <glyph glyph-name="gdotaccent" unicode="&#x121;" horiz-adv-x="630" 
d="M350 600q-22 -22 -52 -22q-31 0 -52 22q-21 21 -21 51q0 31 21 53q21 21 52 21t52 -21q21 -22 21 -53q0 -30 -21 -51zM282 -4q-107 0 -174 77q-68 76 -68 177q0 95 65 173q31 38 78.5 60t101.5 22q42 0 88 -20q50 -23 75 -64v76h108v-494q0 -77 -36 -135q-38 -60 -96 -87
q-60 -30 -137 -30q-122 0 -196 74q-38 38 -49 94l104 30q9 -41 48 -69q39 -30 89 -30q68 0 115 37.5t47 110.5v82q-18 -29 -51 -50q-33 -20 -61 -27q-31 -7 -51 -7zM447 252q0 66 -41 110q-40 44 -107 44t-108 -44t-41 -110t42 -111q42 -46 107 -46t107 46q41 46 41 111z
" />
    <glyph glyph-name="Gcommaaccent" unicode="&#x122;" horiz-adv-x="794" 
d="M740 518l-112 -35q-14 53 -64 98q-57 52 -149 52q-70 0 -128 -34q-57 -36 -90 -97q-33 -62 -33 -137q-2 -111 70.5 -190t179.5 -78q91 0 148 46q57 47 69 118h-261v104h385v-40q0 -139 -90 -235q-92 -98 -250 -98q-108 0 -192 48q-86 50 -132 133q-46 85 -46 190
q0 79 29 151q27 69 77 119q107 107 265 107q125 0 211 -64.5t113 -157.5zM347 -332v44q36 5 57.5 27.5t22.5 55.5q-12 -9 -31 -9q-25 0 -42 17.5t-17 43.5q0 27 19 44q20 18 47 18q35 0 55 -24q19 -25 19 -61q0 -64 -34.5 -105t-95.5 -51z" />
    <glyph glyph-name="gcommaaccent" unicode="&#x123;" horiz-adv-x="630" 
d="M360 812v-44q-37 -5 -58.5 -27.5t-21.5 -54.5q11 8 30 8q26 0 43 -17t17 -43q0 -28 -20 -45q-18 -18 -46 -18q-35 0 -54 25q-20 24 -20 61q0 64 34.5 105t95.5 50zM282 -4q-107 0 -174 77q-68 76 -68 177q0 95 65 173q31 38 78.5 60t101.5 22q42 0 88 -20q50 -23 75 -64
v76h108v-494q0 -77 -36 -135q-38 -60 -96 -87q-60 -30 -137 -30q-122 0 -196 74q-38 38 -49 94l104 30q9 -41 48 -69q39 -30 89 -30q68 0 115 37.5t47 110.5v82q-18 -29 -51 -50q-33 -20 -61 -27q-31 -7 -51 -7zM447 252q0 66 -41 110q-40 44 -107 44t-108 -44t-41 -110
t42 -111q42 -46 107 -46t107 46q41 46 41 111z" />
    <glyph glyph-name="Hbar" unicode="&#x126;" horiz-adv-x="783" 
d="M211 315v-315h-115v537h-71v88h71v104h115v-104h361v104h114v-104h74v-88h-74v-537h-114v315h-361zM572 423v114h-361v-114h361z" />
    <glyph glyph-name="hbar" unicode="&#x127;" 
d="M74 758h111v-92h155v-81h-155v-151q22 28 51 46q33 18 53 22q25 5 45 5q92 0 139 -56q47 -54 47 -145v-306h-110v278q0 58 -28 91t-82 33q-53 0 -84 -34t-31 -91v-277h-111v585h-65v81h65v92z" />
    <glyph glyph-name="Itilde" unicode="&#x128;" horiz-adv-x="300" 
d="M318 942v-10q0 -124 -97 -124q-26 -1 -71 22.5t-60 23.5q-28 0 -30 -45h-78v11q0 124 98 124q23 1 71 -22.5t62 -22.5q30 0 34 43h71zM207 729v-729h-114v729h114z" />
    <glyph glyph-name="itilde" unicode="&#x129;" horiz-adv-x="259" 
d="M297 724v-10q0 -124 -97 -124q-26 -1 -71 22.5t-60 22.5q-28 0 -30 -44h-78v10q0 124 99 124q23 1 70.5 -22t61.5 -22q30 0 34 43h71zM185 497v-497h-111v497h111z" />
    <glyph glyph-name="Imacron" unicode="&#x12a;" horiz-adv-x="301" 
d="M298 828h-295v88h295v-88zM208 729v-729h-115v729h115z" />
    <glyph glyph-name="imacron" unicode="&#x12b;" horiz-adv-x="259" 
d="M275 591h-291v89h291v-89zM185 497v-497h-111v497h111z" />
    <glyph glyph-name="Ibreve" unicode="&#x12c;" horiz-adv-x="300" 
d="M150 794q-66 -2 -114.5 40.5t-55.5 118.5h95q6 -79 75 -79q72 0 76 79h94q-8 -76 -52 -117q-47 -42 -118 -42zM207 729v-729h-114v729h114z" />
    <glyph glyph-name="ibreve" unicode="&#x12d;" horiz-adv-x="259" 
d="M130 580q-67 -2 -115 40.5t-55 118.5h95q5 -79 75 -79t76 79h93q-6 -75 -52 -117q-47 -42 -117 -42zM185 497v-497h-111v497h111z" />
    <glyph glyph-name="Iogonek" unicode="&#x12e;" horiz-adv-x="300" 
d="M130 -99q0 -50 72 -50h2v-76q-22 -2 -35 -2q-57 0 -96 27q-39 26 -39 75q0 57 87 125h-28v729h114v-729h1q-25 -18 -51 -44q-27 -29 -27 -55z" />
    <glyph glyph-name="iogonek" unicode="&#x12f;" horiz-adv-x="259" 
d="M129 585q-29 0 -51 22t-22 51q0 30 22 52q21 22 51 22q31 0 52 -22q21 -21 21 -52q0 -30 -21 -51q-22 -22 -52 -22zM185 0q-29 -22 -50 -44q-27 -29 -27 -55q0 -50 72 -50h1v-76q-22 -2 -34 -2q-58 0 -97 27t-39 75q0 58 88 125h-25v497h111v-497z" />
    <glyph glyph-name="Idot" unicode="&#x130;" horiz-adv-x="300" 
d="M202 812q-24 -22 -52 -22q-30 0 -52 22q-21 21 -21 52q0 30 21 52q21 21 52 21t52 -21q21 -22 21 -52q0 -31 -21 -52zM207 729v-729h-114v729h114z" />
    <glyph glyph-name="dotlessi" unicode="&#x131;" horiz-adv-x="259" 
d="M185 497v-497h-111v497h111z" />
    <glyph glyph-name="IJ" unicode="&#x132;" horiz-adv-x="641" 
d="M324 -8q-109 0 -174 62q-65 61 -65 166v41h115v-35q0 -60 35 -94q36 -33 84 -33q53 0 87 34t34 87v509h115v-509q0 -98 -65 -163t-166 -65zM200 729h-115v-361h115v361z" />
    <glyph glyph-name="Kcommaaccent" unicode="&#x136;" horiz-adv-x="662" 
d="M207 0h-114v729h114v-315l291 315h152l-326 -349l345 -380h-155l-307 344v-344zM282 -332v44q37 5 58.5 27.5t21.5 55.5q-11 -9 -30 -9q-26 0 -42.5 17.5t-16.5 43.5q0 28 19 44q20 18 46 18q36 0 55 -24q19 -25 19 -61q0 -64 -34 -105t-96 -51z" />
    <glyph glyph-name="kcommaaccent" unicode="&#x137;" horiz-adv-x="540" 
d="M185 243v-243h-111v758h111v-457h1l193 196h151l-225 -225l237 -272h-147l-207 243h-3zM218 -332v44q37 5 58.5 27.5t21.5 55.5q-12 -9 -30 -9q-26 0 -42.5 17.5t-16.5 43.5q0 28 19 44q18 18 46 18q34 0 55 -24q19 -25 19 -61q0 -64 -34.5 -105t-95.5 -51z" />
    <glyph glyph-name="Lacute" unicode="&#x139;" horiz-adv-x="551" 
d="M204 955h135l-135 -160h-96zM93 729h114v-623h329v-106h-443v729z" />
    <glyph glyph-name="lacute" unicode="&#x13a;" horiz-adv-x="259" 
d="M178 982h135l-135 -160h-96zM185 758v-758h-111v758h111z" />
    <glyph glyph-name="Lcommaaccent" unicode="&#x13b;" horiz-adv-x="551" 
d="M93 729h114v-623h329v-106h-443v729zM248 -332v44q37 5 58.5 27.5t21.5 55.5q-12 -9 -30 -9q-26 0 -42.5 17.5t-16.5 43.5q0 28 19 44q18 18 46 18q34 0 55 -24q19 -25 19 -61q0 -64 -34.5 -105t-95.5 -51z" />
    <glyph glyph-name="lcommaaccent" unicode="&#x13c;" horiz-adv-x="259" 
d="M185 758v-758h-111v758h111zM66 -332v44q37 5 58.5 27.5t21.5 55.5q-11 -9 -30 -9q-26 0 -42.5 17.5t-16.5 43.5q0 28 19 44q20 18 47 18q35 0 54 -24q20 -26 20 -61q0 -64 -34.5 -105t-96.5 -51z" />
    <glyph glyph-name="Lcaron" unicode="&#x13d;" horiz-adv-x="565" 
d="M412 750h124l-54 -218h-84zM93 729h114v-623h329v-106h-443v729z" />
    <glyph glyph-name="lcaron" unicode="&#x13e;" horiz-adv-x="277" 
d="M260 759h124l-54 -218h-84zM185 758v-758h-111v758h111z" />
    <glyph glyph-name="Ldot" unicode="&#x13f;" horiz-adv-x="564" 
d="M93 729h114v-623h329v-106h-443v729zM411 310q-21 21 -21 51q0 31 21 53q21 21 52 21q29 0 52 -21q21 -22 21 -53q0 -30 -21 -51q-23 -21 -52 -21q-31 0 -52 21z" />
    <glyph glyph-name="ldot" unicode="&#x140;" horiz-adv-x="392" 
d="M185 758v-758h-111v758h111zM272 301q-21 21 -21 51t21 53q21 21 52 21q30 0 51 -21q22 -22 22 -53q0 -30 -22 -51q-21 -21 -51 -21q-31 0 -52 21z" />
    <glyph glyph-name="Lslash" unicode="&#x141;" horiz-adv-x="576" 
d="M116 290l-96 -43v110l96 43v329h115v-277l207 93v-110l-207 -93v-236h329v-106h-444v290z" />
    <glyph glyph-name="lslash" unicode="&#x142;" horiz-adv-x="370" 
d="M37 195v113l95 55v395h111v-331l95 56v-113l-95 -54v-316h-111v250z" />
    <glyph glyph-name="Nacute" unicode="&#x143;" horiz-adv-x="801" 
d="M448 955h135l-135 -160h-96zM708 0h-128l-374 558v-558h-113v729h132l370 -555v555h113v-729z" />
    <glyph glyph-name="nacute" unicode="&#x144;" horiz-adv-x="590" 
d="M346 742h135l-135 -160h-96zM410 0v278q0 58 -28 91t-82 33q-53 0 -83 -34q-32 -35 -32 -91v-277h-111v497h109v-67q23 31 52 48q30 18 53 24q27 5 47 5q91 0 138 -56q48 -55 48 -145v-306h-111z" />
    <glyph glyph-name="Ncommaaccent" unicode="&#x145;" horiz-adv-x="800" 
d="M708 0h-128l-374 558v-558h-113v729h132l370 -555v555h113v-729zM346 -332v44q37 5 58 27.5t22 55.5q-12 -9 -30 -9q-26 0 -43 17.5t-17 43.5q0 27 20 44q20 18 46 18q35 0 55 -24q19 -25 19 -61q0 -64 -34.5 -105t-95.5 -51z" />
    <glyph glyph-name="ncommaaccent" unicode="&#x146;" 
d="M410 0v278q0 58 -28 91t-82 33q-53 0 -84 -34t-31 -91v-277h-111v497h108v-67q22 29 53 48q31 18 53 24q25 5 46 5q92 0 139 -56q47 -54 47 -145v-306h-110zM236 -332v44q37 5 58.5 27.5t21.5 55.5q-10 -9 -30 -9q-26 0 -42.5 17.5t-16.5 43.5q0 28 19 44q20 18 46 18
q36 0 55 -24q19 -25 19 -61q0 -64 -34 -105t-96 -51z" />
    <glyph glyph-name="Ncaron" unicode="&#x147;" horiz-adv-x="801" 
d="M355 796l-129 160h110l64 -86l69 86h106l-134 -160h-86zM708 0h-128l-374 558v-558h-113v729h132l370 -555v555h113v-729z" />
    <glyph glyph-name="ncaron" unicode="&#x148;" horiz-adv-x="590" 
d="M256 581l-128 161h110l64 -86l69 86h106l-134 -161h-87zM410 0v278q0 58 -28 91t-82 33q-53 0 -83 -34q-32 -35 -32 -91v-277h-111v497h109v-67q23 31 52 48q30 18 53 24q27 5 47 5q90 0 138 -56t48 -145v-306h-111z" />
    <glyph glyph-name="Eng" unicode="&#x14a;" horiz-adv-x="800" 
d="M708 729v-804q0 -89 -37 -130t-113 -41q-36 0 -71 9v94q24 -3 36 -3q72 0 72 77v66l-389 564v-561h-113v729h132l370 -539v539h113z" />
    <glyph glyph-name="eng" unicode="&#x14b;" 
d="M410 -70v348q0 58 -28 91t-82 33q-53 0 -84 -34t-31 -91v-277h-111v497h108v-67q22 29 53 48q31 18 53 24q25 5 46 5q92 0 139 -56q47 -54 47 -145v-382q0 -88 -36 -129t-111 -41q-37 0 -71 9v94q24 -3 36 -3q72 0 72 76z" />
    <glyph glyph-name="Omacron" unicode="&#x14c;" horiz-adv-x="838" 
d="M580 828h-322v88h322v-88zM45 363q0 79 30 148q28 70 80 120q49 50 120 79q67 30 145 30q101 0 188 -49q86 -48 135 -135q50 -86 50 -190q0 -78 -30 -149t-80 -119q-51 -50 -120 -78q-72 -29 -146 -29q-75 0 -145 29q-68 27 -119 76q-49 49 -79 119q-29 69 -29 148z
M165 365q-2 -109 73.5 -189t180.5 -78q105 0 181 78q73 78 73 189q0 73 -33 135q-34 61 -93 97t-128 36q-105 2 -180.5 -78t-73.5 -190z" />
    <glyph glyph-name="omacron" unicode="&#x14d;" horiz-adv-x="605" 
d="M464 591h-323v89h323v-89zM40 249q0 72 36 132q37 61 96 93q62 33 132 33q71 0 131 -33q58 -32 95 -92q35 -61 35 -131q2 -108 -76 -185t-186 -75q-69 0 -131 34q-58 31 -96 93q-36 60 -36 131zM154 251q0 -65 42 -112t108 -47q67 0 107 46q41 46 41 111q0 67 -42 112
q-40 46 -107 46q-66 0 -108 -45q-41 -46 -41 -111z" />
    <glyph glyph-name="Ohungarumlaut" unicode="&#x150;" horiz-adv-x="838" 
d="M376 955h131l-131 -160h-91zM559 955h131l-130 -160h-91zM45 363q0 79 30 148q28 70 80 120q49 50 120 79q67 30 145 30q101 0 188 -49q86 -48 135 -135q50 -86 50 -190q0 -78 -30 -149t-80 -119q-51 -50 -120 -78q-72 -29 -146 -29q-75 0 -145 29q-68 27 -119 76
q-49 49 -79 119q-29 69 -29 148zM165 365q-2 -109 73.5 -189t180.5 -78q105 0 181 78q73 78 73 189q0 73 -33 135q-34 61 -93 97t-128 36q-105 2 -180.5 -78t-73.5 -190z" />
    <glyph glyph-name="ohungarumlaut" unicode="&#x151;" horiz-adv-x="605" 
d="M252 742h131l-131 -160h-91zM435 742h131l-130 -160h-91zM40 249q0 72 36 132q38 62 96 93q60 33 132 33q70 0 130 -33t96 -92q35 -61 35 -131q2 -107 -76.5 -184.5t-185.5 -75.5q-69 0 -131 34q-58 31 -96 93q-36 60 -36 131zM154 251q0 -65 42 -112t108 -47
q65 0 107 46q41 46 41 111q0 67 -42 112q-40 46 -107 46q-66 0 -108 -45q-41 -44 -41 -111z" />
    <glyph glyph-name="OE" unicode="&#x152;" horiz-adv-x="1195" 
d="M672 108h-2q-44 -56 -113 -86q-69 -31 -146 -31q-73 0 -142 29q-66 26 -117 76q-50 50 -78 119q-29 69 -29 148t30 148q31 72 80 120q49 51 118 79q69 30 143 30q71 0 142 -31q68 -31 111 -87h3v107h465v-104h-353v-202h321v-104h-321v-215h356v-104h-468v108zM165 365
q0 -73 33 -134t91 -97q59 -36 129 -36q107 0 182 78t75 189q0 73 -35 135q-33 61 -93 97q-59 36 -129 36q-107 0 -180 -78t-73 -190z" />
    <glyph glyph-name="oe" unicode="&#x153;" horiz-adv-x="982" 
d="M941 216h-378q1 -54 46 -92.5t101 -37.5q104 0 131 84l94 -29q-13 -45 -48 -80t-81 -53q-46 -17 -95 -17q-129 0 -204 99q-77 -99 -205 -99q-70 0 -132 34q-57 31 -95 93q-35 61 -35 131q0 73 36 131q34 59 95 94q60 33 131 33q128 0 204 -97q70 97 194 97q114 0 179 -71
q64 -72 64 -186q0 -10 -2 -34zM701 412q-53 0 -88 -31q-37 -30 -44 -81h261q-1 49 -39 82q-37 30 -90 30zM153 249q0 -66 42 -111q42 -46 107 -46q66 0 108 46q41 44 41 111t-41 112q-42 45 -108 45t-107 -45q-42 -47 -42 -112z" />
    <glyph glyph-name="Racute" unicode="&#x154;" horiz-adv-x="670" 
d="M366 955h135l-135 -160h-96zM359 277h-152v-277h-114v729h274q131 0 193 -70q55 -64 55 -155q0 -72 -37 -126t-107 -78l162 -300h-127zM207 380h148q76 0 110 35.5t34 85.5q0 122 -144 122h-148v-243z" />
    <glyph glyph-name="racute" unicode="&#x155;" horiz-adv-x="366" 
d="M258 742h136l-135 -160h-96zM346 499v-114q-13 3 -31 3q-63 0 -96.5 -35t-33.5 -100v-253h-111v497h109v-77q21 39 57.5 60t78.5 21q11 0 27 -2z" />
    <glyph glyph-name="Rcommaaccent" unicode="&#x156;" horiz-adv-x="670" 
d="M359 277h-152v-277h-114v729h274q131 0 193 -70q55 -64 55 -155q0 -72 -37 -126t-107 -78l162 -300h-127zM207 380h148q76 0 110 35.5t34 85.5q0 122 -144 122h-148v-243zM273 -332v44q37 5 58.5 27.5t21.5 55.5q-12 -9 -30 -9q-26 0 -42.5 17.5t-16.5 43.5q0 28 19 44
q18 18 46 18q34 0 55 -24q19 -25 19 -61q0 -64 -34.5 -105t-95.5 -51z" />
    <glyph glyph-name="rcommaaccent" unicode="&#x157;" horiz-adv-x="366" 
d="M346 499v-114q-13 3 -31 3q-63 0 -96.5 -35t-33.5 -100v-253h-111v497h109v-77q21 39 57.5 60t78.5 21q11 0 27 -2zM68 -332v44q37 5 58.5 27.5t21.5 55.5q-12 -9 -30 -9q-26 0 -42.5 17.5t-16.5 43.5q0 28 19 44q18 18 46 18q34 0 55 -24q19 -25 19 -61
q0 -64 -34.5 -105t-95.5 -51z" />
    <glyph glyph-name="Rcaron" unicode="&#x158;" horiz-adv-x="670" 
d="M283 796l-129 160h110l65 -86l68 86h106l-133 -160h-87zM359 277h-152v-277h-114v729h274q131 0 193 -70q55 -64 55 -155q0 -72 -37 -126t-107 -78l162 -300h-127zM207 380h148q76 0 110 35.5t34 85.5q0 122 -144 122h-148v-243z" />
    <glyph glyph-name="rcaron" unicode="&#x159;" horiz-adv-x="366" 
d="M165 581l-130 161h111l65 -86l69 86h105l-133 -161h-87zM346 499v-114q-13 3 -31 3q-63 0 -96.5 -35t-33.5 -100v-253h-111v497h109v-77q21 39 57.5 60t78.5 21q11 0 27 -2z" />
    <glyph glyph-name="Sacute" unicode="&#x15a;" horiz-adv-x="606" 
d="M348 955h135l-135 -160h-96zM309 -8q-124 0 -195 68q-67 63 -75 145l111 30q12 -65 54 -102q43 -38 107 -38q54 0 94 29q38 29 38 73q0 42 -29 69t-79 38l-90 18q-87 18 -135 72q-49 53 -49 126q-2 88 71 155t169 65q138 -1 202 -83q36 -42 47 -97l-107 -33
q-11 43 -48 76t-91 33t-89 -31q-37 -31 -37 -74q0 -33 25 -61q26 -27 67 -36l92 -18q96 -19 147.5 -74t51.5 -137q0 -83 -65 -146q-70 -67 -187 -67z" />
    <glyph glyph-name="sacute" unicode="&#x15b;" horiz-adv-x="462" 
d="M268 742h136l-135 -160h-96zM237 -9q-112 1 -164 70q-30 39 -33 75l95 25q8 -36 34.5 -57.5t65.5 -21.5q33 0 52 15.5t19 42.5q0 41 -59 55l-64 15q-64 15 -98 53t-34 89q0 62 51 109q52 47 125 47q106 -1 153 -66q24 -30 31 -67l-94 -26q-6 31 -29 50t-61 19
q-28 0 -47 -16q-21 -15 -21 -40q0 -42 50 -52l68 -14q67 -15 104 -55t37 -95q0 -63 -47 -109t-134 -46z" />
    <glyph glyph-name="Scircumflex" unicode="&#x15c;" horiz-adv-x="607" 
d="M240 795h-110l128 160h87l134 -160h-106l-69 86zM310 -8q-146 0 -220 93q-44 52 -52 120l112 30q14 -65 55 -102q43 -38 107 -38q55 0 93 29t38 73q0 84 -107 107l-90 18q-88 18 -136 72q-49 53 -49 126q0 59 33 110q30 49 88 80q56 30 120 30q138 -1 202 -83
q37 -43 46 -97l-107 -33q-11 43 -47 76q-38 33 -91 33t-90 -31q-36 -31 -36 -74q0 -33 25 -61q24 -27 67 -36l92 -18q96 -19 147.5 -74t51.5 -137q0 -83 -65 -146q-70 -67 -187 -67z" />
    <glyph glyph-name="scircumflex" unicode="&#x15d;" horiz-adv-x="461" 
d="M165 581h-111l129 161h87l134 -161h-106l-69 86zM236 -9q-111 1 -163 70q-30 39 -33 75l95 25q8 -36 34 -57.5t66 -21.5q33 0 51.5 15.5t18.5 42.5q0 41 -59 55l-63 15q-64 15 -98 52.5t-34 89.5q0 64 51 110t125 46q105 -1 153 -66q25 -33 30 -67l-93 -26
q-7 31 -29.5 50t-60.5 19q-28 0 -48 -16q-20 -14 -20 -40q0 -42 50 -52l68 -14q67 -15 104 -55q37 -42 37 -95q0 -63 -47.5 -109t-134.5 -46z" />
    <glyph glyph-name="Scedilla" unicode="&#x15e;" horiz-adv-x="606" 
d="M270 -6q-105 11 -166 76q-57 59 -65 135l111 30q12 -65 54 -102q43 -38 107 -38q54 0 94 29q38 29 38 73q0 42 -29 69t-79 38l-90 18q-87 18 -135 72q-49 53 -49 126q-2 88 71 155t169 65q138 -1 202 -83q36 -42 47 -97l-107 -33q-11 43 -48 76t-91 33t-89 -31
q-37 -31 -37 -74q0 -33 25 -61q26 -27 67 -36l92 -18q96 -19 147.5 -74t51.5 -137q0 -76 -55 -136q-60 -65 -160 -75q21 -33 21 -74q0 -49 -25 -81q-26 -35 -63 -50q-36 -16 -84 -16q-41 0 -71 11v74q27 -7 61 -7q45 0 71.5 22t26.5 64q0 30 -13 57z" />
    <glyph glyph-name="scedilla" unicode="&#x15f;" horiz-adv-x="461" 
d="M277 -5q22 -35 22 -75q0 -47 -25 -81q-26 -35 -63 -50q-38 -16 -84 -16q-41 0 -71 11v74q27 -7 61 -7q45 0 71.5 22t26.5 64q0 27 -14 57q-90 11 -133 74q-25 35 -28 68l95 25q8 -36 34 -57.5t66 -21.5q33 0 51.5 15.5t18.5 42.5q0 41 -59 55l-63 15q-64 15 -98 52.5
t-34 89.5q0 64 51 110t125 46q105 -1 153 -66q25 -33 30 -67l-93 -26q-7 31 -29.5 50t-60.5 19q-28 0 -48 -16q-20 -14 -20 -40q0 -42 50 -52l68 -14q67 -15 104 -55q37 -42 37 -95q0 -54 -37 -97q-37 -45 -104 -54z" />
    <glyph glyph-name="Scaron" unicode="&#x160;" horiz-adv-x="606" 
d="M256 796l-129 160h110l65 -86l68 86h106l-133 -160h-87zM309 -8q-124 0 -195 68q-65 61 -75 145l111 30q12 -65 55 -102q43 -38 106 -38q56 0 94 29t38 73q0 42 -28.5 69t-79.5 38l-89 18q-88 18 -136 72q-49 55 -49 126q-2 88 71.5 155t169.5 65q136 -1 202 -83
q35 -43 46 -97l-107 -33q-11 43 -48 76t-91 33t-89 -31q-36 -31 -36 -74q0 -33 25 -61q24 -27 66 -36l93 -18q96 -19 147 -74t51 -137q0 -84 -65 -146q-69 -67 -187 -67z" />
    <glyph glyph-name="scaron" unicode="&#x161;" horiz-adv-x="462" 
d="M183 581l-128 161h110l64 -86l69 86h106l-134 -161h-87zM237 -9q-95 0 -147 52q-44 45 -50 93l95 25q8 -36 34.5 -57.5t65.5 -21.5q33 0 52 15.5t19 42.5q0 41 -59 55l-64 15q-64 15 -98 53t-34 89q0 64 51 110q52 46 125 46q106 -1 153 -66q24 -30 31 -67l-94 -26
q-6 31 -29 50t-61 19q-28 0 -47 -16q-21 -15 -21 -40q0 -42 50 -52l68 -14q67 -15 104 -55t37 -95q0 -63 -47 -109t-134 -46z" />
    <glyph glyph-name="uni0162" unicode="&#x162;" horiz-adv-x="614" 
d="M364 623v-623q25 -35 25 -80q0 -49 -25 -81q-26 -35 -63 -50q-38 -16 -84 -16q-41 0 -71 11v74q27 -7 61 -7q45 0 71.5 22t26.5 64q0 36 -17 63h-38v623h-232v106h578v-106h-232z" />
    <glyph glyph-name="uni0163" unicode="&#x163;" horiz-adv-x="396" 
d="M131 -149q45 0 71.5 22t26.5 64q0 33 -18 65q-93 24 -93 152v243h-96v100h96v154h111v-154h126v-100h-126v-237q0 -33 18 -48.5t58 -15.5q20 0 45 4v-95q-24 -7 -60 -9q23 -34 23 -76q0 -49 -25 -81q-26 -35 -63 -50q-36 -16 -84 -16q-18 0 -46 4v77q18 -3 36 -3z" />
    <glyph glyph-name="Tcaron" unicode="&#x164;" horiz-adv-x="615" 
d="M261 796l-128 160h110l64 -86l69 86h106l-134 -160h-87zM250 0v623h-232v106h578v-106h-231v-623h-115z" />
    <glyph glyph-name="tcaron" unicode="&#x165;" horiz-adv-x="396" 
d="M308 759h125l-55 -214h-83zM229 397v-237q0 -33 18 -48.5t58 -15.5q20 0 45 4v-95q-37 -10 -79 -10q-77 0 -115 36t-38 123v243h-96v100h96v154h111v-154h126v-100h-126z" />
    <glyph glyph-name="Tbar" unicode="&#x166;" horiz-adv-x="625" 
d="M255 315h-124v99h124v209h-231v106h578v-106h-232v-209h124v-99h-124v-315h-115v315z" />
    <glyph glyph-name="tbar" unicode="&#x167;" horiz-adv-x="401" 
d="M360 497v-100h-127v-85h108v-97h-108v-55q0 -33 18 -48.5t59 -15.5q20 0 45 4v-95q-37 -10 -80 -10q-77 0 -115 36q-37 36 -37 123v61h-92v97h92v85h-97v100h97v154h110v-154h127z" />
    <glyph glyph-name="Utilde" unicode="&#x168;" horiz-adv-x="736" 
d="M536 942v-10q0 -124 -96 -124q-26 -1 -71.5 22.5t-60.5 23.5q-28 0 -30 -45h-78v11q0 124 99 124q23 1 70.5 -22.5t61.5 -22.5q30 0 34 43h71zM652 729v-446q0 -130 -72 -210q-71 -82 -213 -82t-214 83q-68 79 -68 204v451h114v-447q0 -84 47 -134q48 -49 123 -49
q80 0 124 50t44 129v451h115z" />
    <glyph glyph-name="utilde" unicode="&#x169;" horiz-adv-x="590" 
d="M464 724v-10q0 -124 -96 -124q-26 -1 -71.5 22.5t-60.5 22.5q-28 0 -30 -44h-77v10q0 124 98 124q23 1 71 -22t62 -22q28 0 34 43h70zM180 497v-278q0 -58 28 -91t81 -33t84 34t31 91v277h111v-497h-108v67q-23 -31 -52 -48q-26 -17 -54 -24q-19 -5 -46 -5
q-59 0 -102 26.5t-64 72.5q-20 43 -20 102v306h111z" />
    <glyph glyph-name="Umacron" unicode="&#x16a;" horiz-adv-x="737" 
d="M530 828h-323v88h323v-88zM652 729v-446q0 -131 -71 -210q-73 -82 -214 -82t-214 83q-68 79 -68 204v451h115v-447q0 -86 47 -134q46 -49 123 -49q80 0 123 50q45 49 45 129v451h114z" />
    <glyph glyph-name="umacron" unicode="&#x16b;" horiz-adv-x="590" 
d="M454 591h-323v89h323v-89zM180 497v-278q0 -58 28 -91t81 -33t84 34t31 91v277h111v-497h-108v67q-23 -31 -52 -48q-26 -17 -54 -24q-19 -5 -46 -5q-59 0 -102 26.5t-64 72.5q-20 43 -20 102v306h111z" />
    <glyph glyph-name="Uring" unicode="&#x16e;" horiz-adv-x="736" 
d="M368 792q-55 0 -95 38q-40 37 -40 91t40 91q41 38 95 38q55 0 96 -38q40 -38 40 -91t-40 -91q-41 -38 -96 -38zM368 981q-26 0 -45 -17q-18 -15 -18 -43q0 -25 18 -42q18 -19 45 -19t46 19q18 17 18 42q0 23 -19 42q-19 18 -45 18zM652 729v-446q0 -130 -72 -210
q-71 -82 -213 -82t-214 83q-68 79 -68 204v451h114v-447q0 -84 47 -134q48 -49 123 -49q80 0 124 50t44 129v451h115z" />
    <glyph glyph-name="uring" unicode="&#x16f;" horiz-adv-x="590" 
d="M292 561q-55 0 -95 38q-40 37 -40 91t40 91q41 38 95 38q55 0 96 -38q40 -37 40 -91t-40 -91q-41 -38 -96 -38zM292 750q-28 0 -45 -17q-18 -17 -18 -43q0 -24 18 -42t45 -18q28 0 46 18t18 42t-19 42q-18 18 -45 18zM180 497v-278q0 -58 28 -91t81 -33t84 34t31 91v277
h111v-497h-108v67q-23 -31 -52 -48q-26 -17 -54 -24q-19 -5 -46 -5q-59 0 -102 26.5t-64 72.5q-20 43 -20 102v306h111z" />
    <glyph glyph-name="Uhungarumlaut" unicode="&#x170;" horiz-adv-x="736" 
d="M318 955h131l-130 -160h-92zM501 955h132l-131 -160h-91zM652 729v-446q0 -130 -72 -210q-71 -82 -213 -82t-214 83q-68 79 -68 204v451h114v-447q0 -84 47 -134q48 -49 123 -49q80 0 124 50t44 129v451h115z" />
    <glyph glyph-name="uhungarumlaut" unicode="&#x171;" 
d="M242 742h131l-131 -160h-91zM425 742h131l-130 -160h-91zM180 497v-278q0 -58 28 -91t81 -33t84 34t31 91v277h111v-497h-108v67q-23 -31 -52 -48q-26 -17 -54 -24q-19 -5 -46 -5q-59 0 -102 26.5t-64 72.5q-20 43 -20 102v306h111z" />
    <glyph glyph-name="Uogonek" unicode="&#x172;" horiz-adv-x="736" 
d="M394 -8q-12 -1 -27 -1q-142 0 -214 83q-68 79 -68 204v451h114v-447q0 -84 47 -134q48 -49 123 -49q80 0 124 50t44 129v451h115v-450q0 -152 -105 -236l-59 -47q-73 -57 -73 -95q0 -50 72 -50h2v-76q-22 -2 -34 -2q-58 0 -97 27q-39 26 -39 75q0 54 75 117z" />
    <glyph glyph-name="uogonek" unicode="&#x173;" 
d="M511 -149v-76q-22 -2 -35 -2q-57 0 -96 27q-39 26 -39 75q0 57 87 125h-21v67q-23 -31 -52 -48q-26 -17 -54 -24q-19 -5 -46 -5q-60 0 -103 26.5t-63 72.5q-20 41 -20 102v306h111v-278q0 -58 28 -91t81 -33t84 34t31 91v277h111v-497q-29 -22 -50 -44q-28 -28 -28 -55
q0 -50 72 -50h2z" />
    <glyph glyph-name="Wcircumflex" unicode="&#x174;" horiz-adv-x="1093" 
d="M483 795h-110l128 160h87l134 -160h-106l-69 86zM22 729h122l164 -567l175 567h127l177 -567l167 567h119l-223 -729h-130l-174 570h-1l-175 -570h-129z" />
    <glyph glyph-name="wcircumflex" unicode="&#x175;" horiz-adv-x="819" 
d="M345 581h-110l129 161h86l134 -161h-106l-68 86zM579 145h1l105 352h114l-160 -497h-114l-115 349h-2l-116 -349h-113l-159 497h115l105 -351h1l113 351h111z" />
    <glyph glyph-name="Ycircumflex" unicode="&#x176;" horiz-adv-x="699" 
d="M286 795h-110l129 160h86l134 -160h-106l-69 86zM292 0v291l-274 438h132l200 -327l201 327h131l-275 -435v-294h-115z" />
    <glyph glyph-name="ycircumflex" unicode="&#x177;" horiz-adv-x="570" 
d="M225 581h-110l129 161h87l134 -161h-106l-69 86zM236 56l-221 441h126l155 -326l143 326h120l-341 -742h-118z" />
    <glyph glyph-name="Ydieresis" unicode="&#x178;" horiz-adv-x="700" 
d="M247 790q-29 0 -49 21q-20 22 -20 49q0 28 20 50q20 20 49 20t49 -20q21 -21 21 -50q0 -28 -21 -49q-20 -21 -49 -21zM454 790q-30 0 -49 21q-21 21 -21 49t20 50q20 20 50 20q29 0 49 -20q20 -22 20 -50q0 -27 -20 -49q-21 -21 -49 -21zM408 294v-294h-116v291l-274 438
h133l200 -327l201 327h131z" />
    <glyph glyph-name="Zacute" unicode="&#x179;" horiz-adv-x="620" 
d="M339 955h135l-135 -160h-96zM434 626h-384v103h523v-98l-398 -528h406v-103h-546v99z" />
    <glyph glyph-name="zacute" unicode="&#x17a;" horiz-adv-x="492" 
d="M293 742h135l-135 -160h-96zM310 400h-263v97h401v-88l-273 -313h274v-96h-409v92z" />
    <glyph glyph-name="Zdotaccent" unicode="&#x17b;" horiz-adv-x="619" 
d="M360 812q-24 -22 -52 -22q-30 0 -52 22q-21 21 -21 52q0 30 21 52q21 21 52 21t52 -21q21 -22 21 -52q0 -31 -21 -52zM433 626h-383v103h522v-98l-398 -528h406v-103h-545v99z" />
    <glyph glyph-name="zdotaccent" unicode="&#x17c;" horiz-adv-x="492" 
d="M297 600q-22 -22 -52 -22q-31 0 -52 22q-21 21 -21 51q0 31 21 53q21 21 52 21t52 -21q21 -22 21 -53q0 -30 -21 -51zM310 400h-263v97h402v-88l-274 -313h275v-96h-410v92z" />
    <glyph glyph-name="Zcaron" unicode="&#x17d;" horiz-adv-x="619" 
d="M262 796l-128 160h110l64 -86l69 86h106l-134 -160h-87zM434 626h-383v103h522v-98l-398 -528h406v-103h-546v99z" />
    <glyph glyph-name="zcaron" unicode="&#x17e;" horiz-adv-x="492" 
d="M199 581l-129 161h110l65 -86l69 86h106l-134 -161h-87zM310 400h-263v97h402v-88l-274 -313h275v-96h-410v92z" />
    <glyph glyph-name="florin" unicode="&#x192;" horiz-adv-x="559" 
d="M499 633q-45 0 -74 -28q-31 -28 -38 -70l-7 -38h120v-97h-140l-45 -233q-11 -56 -40 -97q-19 -25 -39 -41q-52 -38 -130 -38q-28 0 -61 7v97q30 -5 48 -5q44 0 75 28q29 27 38 71l41 211h-100v97h120l12 60q14 69 57 118q50 56 149 56q40 0 60 -5v-97q-32 4 -46 4z" />
    <glyph glyph-name="uni01B5" unicode="&#x1b5;" horiz-adv-x="622" 
d="M205 322h-153v98h227l156 206h-383v103h522v-98l-161 -211h161v-98h-233l-165 -219h406v-103h-545v99z" />
    <glyph glyph-name="uni01B6" unicode="&#x1b6;" horiz-adv-x="494" 
d="M145 211h-97v79h166l96 110h-262v97h401v-88l-106 -119h106v-79h-174l-100 -115h275v-96h-410v92z" />
    <glyph glyph-name="uni01CD" unicode="&#x1cd;" horiz-adv-x="729" 
d="M319 796l-129 160h110l65 -86l68 86h106l-134 -160h-86zM185 171l-68 -171h-117l297 729h135l295 -729h-119l-67 171h-356zM225 273h277l-139 346z" />
    <glyph glyph-name="uni01CE" unicode="&#x1ce;" horiz-adv-x="535" 
d="M212 581l-129 161h111l64 -86l69 86h106l-134 -161h-87zM211 -9q-73 0 -120 42q-47 41 -47 105v5q1 95 96 132q51 20 110 20h62q46 0 46 42q0 32 -25 54q-27 22 -73 22q-44 0 -73 -22.5t-35 -60.5l-101 23q5 35 34 75q31 40 78 60q41 19 101 19q140 0 186 -102
q17 -37 17 -88v-237q0 -50 3 -80h-108q-5 23 -5 68q-25 -41 -64 -59q-40 -18 -82 -18zM357 217h-107q-35 0 -65 -18q-30 -19 -30 -51q0 -31 22 -49.5t57 -18.5q57 0 90 33t33 88v16z" />
    <glyph glyph-name="uni01CF" unicode="&#x1cf;" horiz-adv-x="301" 
d="M104 796l-129 160h110l65 -86l70 86h105l-134 -160h-87zM208 729v-729h-115v729h115z" />
    <glyph glyph-name="uni01D0" unicode="&#x1d0;" horiz-adv-x="259" 
d="M84 581l-129 161h110l65 -86l68 86h106l-134 -161h-86zM185 497v-497h-111v497h111z" />
    <glyph glyph-name="uni01D1" unicode="&#x1d1;" horiz-adv-x="838" 
d="M373 796l-128 160h110l64 -86l69 86h106l-134 -160h-87zM45 363q0 79 30 148q28 70 80 120q49 50 120 79q67 30 145 30q101 0 188 -49q86 -48 135 -135q50 -86 50 -190q0 -78 -30 -149t-80 -119q-51 -50 -120 -78q-72 -29 -146 -29q-75 0 -145 29q-68 27 -119 76
q-49 49 -79 119q-29 69 -29 148zM165 365q-2 -109 73.5 -189t180.5 -78q105 0 181 78q73 78 73 189q0 73 -33 135q-34 61 -93 97t-128 36q-105 2 -180.5 -78t-73.5 -190z" />
    <glyph glyph-name="uni01D2" unicode="&#x1d2;" horiz-adv-x="605" 
d="M257 581l-129 161h110l65 -86l68 86h106l-133 -161h-87zM40 249q0 72 36 132q38 62 96 93q60 33 132 33q70 0 130 -33t96 -92q35 -61 35 -131q2 -107 -76.5 -184.5t-185.5 -75.5q-69 0 -131 34q-58 31 -96 93q-36 60 -36 131zM154 251q0 -65 42 -112t108 -47q65 0 107 46
q41 46 41 111q0 67 -42 112q-40 46 -107 46q-66 0 -108 -45q-41 -44 -41 -111z" />
    <glyph glyph-name="uni01D3" unicode="&#x1d3;" horiz-adv-x="736" 
d="M322 796l-128 160h110l64 -86l69 86h106l-134 -160h-87zM652 729v-446q0 -130 -72 -210q-71 -82 -213 -82t-214 83q-68 79 -68 204v451h114v-447q0 -84 47 -134q48 -49 123 -49q80 0 124 50t44 129v451h115z" />
    <glyph glyph-name="uni01D4" unicode="&#x1d4;" 
d="M246 581l-129 161h110l65 -86l68 86h106l-133 -161h-87zM180 497v-278q0 -58 28 -91t81 -33t84 34t31 91v277h111v-497h-108v67q-23 -31 -52 -48q-26 -17 -54 -24q-19 -5 -46 -5q-59 0 -102 26.5t-64 72.5q-20 43 -20 102v306h111z" />
    <glyph glyph-name="uni01D5" unicode="&#x1d5;" horiz-adv-x="736" 
d="M652 729v-446q0 -130 -72 -210q-71 -82 -213 -82t-214 83q-68 79 -68 204v451h114v-447q0 -84 47 -134q48 -49 123 -49q80 0 124 50t44 129v451h115zM530 920h-323v88h323v-88zM310 770q-20 -20 -50 -20q-29 0 -48 20q-20 20 -20 49q0 30 19 50q22 20 49 20q28 0 50 -20
q20 -20 20 -50t-20 -49zM477 750q-31 0 -50 20q-20 20 -20 49q0 28 20 50q20 20 50 20q29 0 49 -20q19 -20 19 -50t-20 -49q-19 -20 -48 -20z" />
    <glyph glyph-name="uni01D6" unicode="&#x1d6;" 
d="M453 720h-323v89h323v-89zM188 545q-28 0 -48 21q-21 21 -21 49t20 50q20 20 49 20q28 0 50 -20q20 -22 20 -50q0 -29 -20 -49q-21 -21 -50 -21zM444 566q-21 -21 -49 -21q-29 0 -49 21q-20 22 -20 49q0 30 19 50q22 20 50 20q27 0 49 -20q21 -21 21 -50q0 -28 -21 -49z
M180 497v-278q0 -58 28 -91t81 -33t84 34t31 91v277h111v-497h-108v67q-23 -31 -52 -48q-26 -17 -54 -24q-19 -5 -46 -5q-59 0 -102 26.5t-64 72.5q-20 43 -20 102v306h111z" />
    <glyph glyph-name="uni01D7" unicode="&#x1d7;" horiz-adv-x="736" 
d="M652 729v-446q0 -130 -72 -210q-71 -82 -213 -82t-214 83q-68 79 -68 204v451h114v-447q0 -84 47 -134q48 -49 123 -49q80 0 124 50t44 129v451h115zM409 1052h133l-128 -151h-96zM260 750q-30 0 -49 20q-20 20 -20 49q0 28 20 50q20 20 49 20q27 0 49 -20q21 -21 21 -50
t-20 -49t-50 -20zM525 770q-20 -20 -49 -20q-30 0 -49 20q-20 20 -20 49q0 30 19 50q22 20 50 20q29 0 49 -20t20 -50t-20 -49z" />
    <glyph glyph-name="uni01D8" unicode="&#x1d8;" 
d="M337 867h136l-135 -161h-96zM188 545q-28 0 -48 21q-21 21 -21 49t20 50q20 20 49 20q28 0 50 -20q20 -22 20 -50q0 -29 -20 -49q-21 -21 -50 -21zM444 566q-21 -21 -49 -21q-29 0 -49 21q-20 22 -20 49q0 30 19 50q22 20 50 20q27 0 49 -20q21 -21 21 -50q0 -28 -21 -49
zM180 497v-278q0 -58 28 -91t81 -33t84 34t31 91v277h111v-497h-108v67q-23 -31 -52 -48q-26 -17 -54 -24q-19 -5 -46 -5q-59 0 -102 26.5t-64 72.5q-20 43 -20 102v306h111z" />
    <glyph glyph-name="uni01D9" unicode="&#x1d9;" horiz-adv-x="736" 
d="M652 729v-446q0 -130 -72 -210q-71 -82 -213 -82t-214 83q-68 79 -68 204v451h114v-447q0 -84 47 -134q48 -49 123 -49q80 0 124 50t44 129v451h115zM322 902l-128 151h110l65 -81l68 81h106l-134 -151h-87zM310 770q-20 -20 -50 -20q-29 0 -48 20q-20 20 -20 49
q0 30 19 50q22 20 49 20q28 0 50 -20q20 -20 20 -50t-20 -49zM477 750q-31 0 -50 20q-20 20 -20 49q0 28 20 50q20 20 50 20q29 0 49 -20q19 -20 19 -50t-20 -49q-19 -20 -48 -20z" />
    <glyph glyph-name="uni01DA" unicode="&#x1da;" 
d="M117 868h110l64 -86l69 86h106l-134 -161h-86zM235 566q-19 -21 -49 -21q-28 0 -49 21t-21 49q0 29 21 50q20 20 49 20q28 0 50 -20q20 -22 20 -50t-21 -49zM393 545q-29 0 -49 21q-21 20 -21 49q0 28 20 50q20 20 50 20q29 0 49 -20q21 -21 21 -50q0 -28 -21 -49
t-49 -21zM180 497v-278q0 -58 28 -91t81 -33t84 34t31 91v277h111v-497h-108v67q-23 -31 -52 -48q-26 -17 -54 -24q-19 -5 -46 -5q-59 0 -102 26.5t-64 72.5q-20 43 -20 102v306h111z" />
    <glyph glyph-name="uni01DB" unicode="&#x1db;" horiz-adv-x="736" 
d="M652 729v-446q0 -130 -72 -210q-71 -82 -213 -82t-214 83q-68 79 -68 204v451h114v-447q0 -84 47 -134q48 -49 123 -49q80 0 124 50t44 129v451h115zM427 770q19 -20 49 -20q29 0 49 20q20 19 20 49t-20 50t-49 20q-28 0 -50 -20q-19 -20 -19 -50q0 -29 20 -49zM260 750
q30 0 50 20t20 49t-21 50q-22 20 -49 20q-29 0 -49 -20q-20 -22 -20 -50q0 -29 20 -49q19 -20 49 -20zM422 901h-96l-128 151h133z" />
    <glyph glyph-name="uni01DC" unicode="&#x1dc;" 
d="M345 706h-95l-135 161h135zM188 545q-28 0 -48 21q-21 21 -21 49t20 50q20 20 49 20q28 0 50 -20q20 -22 20 -50q0 -29 -20 -49q-21 -21 -50 -21zM444 566q-21 -21 -49 -21q-29 0 -49 21q-20 22 -20 49q0 30 19 50q22 20 50 20q27 0 49 -20q21 -21 21 -50q0 -28 -21 -49z
M180 497v-278q0 -58 28 -91t81 -33t84 34t31 91v277h111v-497h-108v67q-23 -31 -52 -48q-26 -17 -54 -24q-19 -5 -46 -5q-59 0 -102 26.5t-64 72.5q-20 43 -20 102v306h111z" />
    <glyph glyph-name="Gcaron" unicode="&#x1e6;" horiz-adv-x="795" 
d="M373 796l-129 160h110l65 -86l68 86h106l-133 -160h-87zM741 518l-112 -35q-14 53 -64 98q-57 52 -149 52q-108 0 -179 -77q-73 -76 -73 -191q0 -74 32 -135q32 -62 89 -97q58 -36 130 -36q91 0 148 46q57 48 69 118h-262v104h385v-40q0 -140 -90 -235q-90 -98 -249 -98
q-108 0 -193 48q-84 49 -131 133t-47 190q0 79 29 151q29 70 78 119q50 50 118 78q70 29 147 29q125 0 211 -64.5t113 -157.5z" />
    <glyph glyph-name="gcaron" unicode="&#x1e7;" horiz-adv-x="630" 
d="M252 581l-129 161h111l64 -86l69 86h106l-134 -161h-87zM282 -4q-107 0 -174 77q-68 76 -68 177q0 95 65 173q31 38 78.5 60t101.5 22q42 0 88 -20q50 -23 75 -64v76h108v-494q0 -77 -36 -135q-38 -60 -96 -87q-60 -30 -137 -30q-122 0 -196 74q-38 38 -49 94l104 30
q9 -41 48 -69q39 -30 89 -30q68 0 115 37.5t47 110.5v82q-18 -29 -51 -50q-33 -20 -61 -27q-31 -7 -51 -7zM447 252q0 66 -41 110q-40 44 -107 44t-108 -44t-41 -110t42 -111q42 -46 107 -46t107 46q41 46 41 111z" />
    <glyph glyph-name="uni01E8" unicode="&#x1e8;" horiz-adv-x="662" 
d="M303 796l-128 160h110l64 -86l69 86h106l-134 -160h-87zM499 729h151l-326 -349l345 -380h-155l-307 344v-344h-114v729h114v-315z" />
    <glyph glyph-name="uni01E9" unicode="&#x1e9;" horiz-adv-x="541" 
d="M186 243v-243h-112v758h112v-457h1l193 196h150l-224 -225l237 -272h-147l-207 243h-3zM361 581l-129 161h110l65 -86l68 86h106l-133 -161h-87z" />
    <glyph glyph-name="uni01F4" unicode="&#x1f4;" horiz-adv-x="794" 
d="M465 955h136l-135 -160h-96zM740 518l-112 -35q-14 53 -64 98q-57 52 -149 52q-70 0 -128 -34q-57 -36 -90 -97q-33 -62 -33 -137q-2 -111 70.5 -190t179.5 -78q91 0 148 46q57 47 69 118h-261v104h385v-40q0 -139 -90 -235q-92 -98 -250 -98q-108 0 -192 48
q-86 50 -132 133q-46 85 -46 190q0 79 29 151q27 69 77 119q107 107 265 107q125 0 211 -64.5t113 -157.5z" />
    <glyph glyph-name="uni01F5" unicode="&#x1f5;" horiz-adv-x="630" 
d="M342 742h135l-135 -160h-96zM282 -4q-107 0 -174 77q-68 76 -68 177q0 95 65 173q31 38 78.5 60t101.5 22q42 0 88 -20q50 -23 75 -64v76h108v-494q0 -77 -36 -135q-38 -60 -96 -87q-60 -30 -137 -30q-122 0 -196 74q-38 38 -49 94l104 30q9 -41 48 -69q39 -30 89 -30
q68 0 115 37.5t47 110.5v82q-18 -29 -51 -50q-33 -20 -61 -27q-31 -7 -51 -7zM447 252q0 66 -41 110q-40 44 -107 44t-108 -44t-41 -110t42 -111q42 -46 107 -46t107 46q41 46 41 111z" />
    <glyph glyph-name="Aringacute" unicode="&#x1fa;" horiz-adv-x="728" 
d="M401 909l58 96h136l-122 -144q26 -34 26 -76q0 -63 -49 -100l277 -685h-119l-67 171h-356l-68 -171h-117l279 684q-50 39 -50 101q0 54 40 91q40 38 95 38q17 0 37 -5zM364 845q-27 0 -46 -17q-18 -18 -18 -43t19 -43q18 -18 45 -18t45 18t18 43q0 24 -19 42t-44 18z
M502 273l-139 346l-138 -346h277z" />
    <glyph glyph-name="aringacute" unicode="&#x1fb;" horiz-adv-x="535" 
d="M304 687l56 94h135l-120 -143q24 -33 24 -73q0 -45 -28 -79q55 -26 79 -81q17 -34 17 -88v-237q0 -40 4 -80h-109q-4 19 -4 68q-25 -41 -65 -59t-81 -18q-73 0 -121 42q-47 41 -47 105v5q1 95 97 132q49 20 110 20h61q47 0 47 42q0 31 -26 54q-27 22 -72 22
q-44 0 -73 -22.5t-36 -60.5l-100 23q5 48 50 93q24 24 54 39q-28 36 -28 80q0 53 40 90q41 38 95 38q21 0 41 -6zM264 621q-25 0 -42 -16.5t-17 -39.5q0 -24 17 -40q16 -17 42 -17t43 17t17 40t-18 39q-19 17 -42 17zM358 217h-108q-35 0 -65 -18q-30 -19 -30 -51
q0 -31 22 -49.5t57 -18.5q56 0 91 33q33 33 33 88v16z" />
    <glyph glyph-name="AEacute" unicode="&#x1fc;" horiz-adv-x="980" 
d="M581 955h136l-135 -160h-96zM114 0h-125l396 729h538v-104h-348v-202h316v-104h-316v-215h351v-104h-465v171h-255zM260 273h201v353h-11z" />
    <glyph glyph-name="aeacute" unicode="&#x1fd;" horiz-adv-x="885" 
d="M485 742h135l-135 -160h-95zM846 250q0 -22 -1 -34h-380q2 -55 46 -92q46 -38 102 -38q102 0 131 83l95 -28q-21 -70 -84 -110q-66 -40 -141 -40q-123 0 -200 90q-76 -90 -198 -90h-2q-72 0 -122 42q-48 41 -48 105v5q1 95 96 132q51 20 110 20h71q41 0 41 42
q0 32 -26.5 53.5t-71.5 22.5q-46 0 -77 -23q-31 -22 -37 -59l-99 22q5 35 35 74q32 39 81 62q42 18 99 18q117 0 164 -71q68 71 176 71q113 0 177 -71q63 -70 63 -186zM470 300h265q-3 52 -39 82t-91 30q-53 0 -90 -31q-37 -30 -45 -81zM360 217h-110q-35 0 -65 -18
q-30 -19 -30 -51q0 -31 22 -49.5t57 -18.5q57 0 92 32q34 33 34 89v16z" />
    <glyph glyph-name="Oslashacute" unicode="&#x1fe;" horiz-adv-x="843" 
d="M468 955h136l-135 -160h-96zM800 704l-91 -96q87 -103 87 -242q0 -78 -30 -149t-81 -119q-51 -50 -120 -78q-70 -29 -145 -29q-128 0 -225 73l-86 -88l-64 59l85 90q-83 100 -83 238q0 79 30 148q30 70 80 120t120 79q69 30 146 30q122 0 222 -72l91 96zM167 365
q0 -87 45 -154l356 374q-64 48 -147 48q-105 2 -180.5 -78t-73.5 -190zM675 365q0 90 -47 158l-357 -375q67 -50 150 -50q106 0 181 78q73 78 73 189z" />
    <glyph glyph-name="oslashacute" unicode="&#x1ff;" horiz-adv-x="610" 
d="M346 742h136l-135 -160h-96zM568 460l-54 -54q53 -70 53 -157q0 -70 -35 -131q-36 -60 -95 -93q-62 -34 -132 -34q-84 0 -152 47l-55 -55l-56 54l53 55q-52 68 -52 157q0 72 35 131q34 59 95 94q60 33 132 33q85 0 153 -47l54 55zM155 249q0 -43 18 -79l212 215
q-36 21 -80 21q-66 0 -108 -45q-42 -48 -42 -112zM454 249q0 43 -18 78l-211 -214q35 -21 80 -21q67 0 107 46q42 45 42 111z" />
    <glyph glyph-name="Scommaaccent" unicode="&#x218;" horiz-adv-x="606" 
d="M309 -8q-124 0 -195 68q-67 63 -75 145l111 30q12 -65 54 -102q43 -38 107 -38q54 0 94 29q38 29 38 73q0 42 -29 69t-79 38l-90 18q-87 18 -135 72q-49 53 -49 126q-2 88 71 155t169 65q138 -1 202 -83q36 -42 47 -97l-107 -33q-11 43 -48 76t-91 33t-89 -31
q-37 -31 -37 -74q0 -33 25 -61q26 -27 67 -36l92 -18q96 -19 147.5 -74t51.5 -137q0 -83 -65 -146q-70 -67 -187 -67zM245 -332v44q37 5 58.5 27.5t21.5 55.5q-11 -9 -30 -9q-26 0 -42.5 17.5t-16.5 43.5q0 28 19 44q19 18 46 18q35 0 55 -24q19 -25 19 -61q0 -64 -34 -105
t-96 -51z" />
    <glyph glyph-name="scommaaccent" unicode="&#x219;" horiz-adv-x="461" 
d="M236 -9q-111 1 -163 70q-30 39 -33 75l95 25q8 -36 34 -57.5t66 -21.5q33 0 51.5 15.5t18.5 42.5q0 41 -59 55l-63 15q-64 15 -98 52.5t-34 89.5q0 64 51 110t125 46q105 -1 153 -66q25 -33 30 -67l-93 -26q-7 31 -29.5 50t-60.5 19q-28 0 -48 -16q-20 -14 -20 -40
q0 -42 50 -52l68 -14q67 -15 104 -55q37 -42 37 -95q0 -63 -47.5 -109t-134.5 -46zM166 -332v44q37 5 58 27.5t22 55.5q-12 -9 -31 -9q-26 0 -42.5 17.5t-16.5 43.5q0 27 19 44q19 18 47 18q34 0 54 -24t20 -61q0 -64 -34.5 -105t-95.5 -51z" />
    <glyph glyph-name="uni021A" unicode="&#x21a;" horiz-adv-x="614" 
d="M250 0v623h-232v106h578v-106h-232v-623h-114zM244 -332v44q36 5 57.5 27.5t22.5 55.5q-12 -9 -31 -9q-26 0 -42.5 17.5t-16.5 43.5q0 28 19 44q19 18 47 18q34 0 54 -24q20 -26 20 -61q0 -64 -34.5 -105t-95.5 -51z" />
    <glyph glyph-name="uni021B" unicode="&#x21b;" horiz-adv-x="396" 
d="M355 497v-100h-126v-237q0 -33 18 -48.5t58 -15.5q20 0 45 4v-95q-37 -10 -79 -10q-77 0 -115 36t-38 123v243h-96v100h96v154h111v-154h126zM154 -288v-44q61 10 95.5 51t34.5 105q0 36 -19 61q-21 24 -55 24q-28 0 -46 -18q-19 -16 -19 -44q0 -26 16.5 -43.5
t42.5 -17.5q18 0 30 9q0 -33 -21.5 -55.5t-58.5 -27.5z" />
    <glyph glyph-name="uni0237" unicode="&#x237;" horiz-adv-x="266" 
d="M81 -70v567h111v-573q0 -88 -36 -129t-111 -41q-37 0 -71 9v94q24 -3 36 -3q71 0 71 76z" />
    <glyph glyph-name="gravecomb" unicode="&#x300;" horiz-adv-x="0" 
d="M115 582h-95l-135 160h135z" />
    <glyph glyph-name="acutecomb" unicode="&#x301;" horiz-adv-x="0" 
d="M-20 742h135l-135 -160h-95z" />
    <glyph glyph-name="uni0302" unicode="&#x302;" horiz-adv-x="0" 
d="M-65 581h-110l129 161h87l134 -161h-106l-69 86z" />
    <glyph glyph-name="tildecomb" unicode="&#x303;" horiz-adv-x="0" 
d="M168 724v-10q0 -124 -97 -124q-26 -1 -71 22.5t-60 22.5q-28 0 -30 -44h-78v10q0 124 98 124q23 1 71 -22t62 -22q30 0 34 43h71z" />
    <glyph glyph-name="uni0304" unicode="&#x304;" horiz-adv-x="0" 
d="M161 591h-322v89h322v-89z" />
    <glyph glyph-name="uni0306" unicode="&#x306;" horiz-adv-x="0" 
d="M0 580q-66 -2 -114.5 40.5t-55.5 118.5h95q6 -79 75 -79q72 0 76 79h94q-8 -76 -52 -117q-46 -42 -118 -42z" />
    <glyph glyph-name="uni0307" unicode="&#x307;" horiz-adv-x="0" 
d="M52 600q-22 -22 -52 -22q-31 0 -52 22q-21 21 -21 51q0 31 21 53q21 21 52 21t52 -21q21 -22 21 -53q0 -30 -21 -51z" />
    <glyph glyph-name="uni0308" unicode="&#x308;" horiz-adv-x="0" 
d="M-104 578q-27 0 -49 20q-20 22 -20 50q0 27 20 49q20 20 49 20q28 0 50 -20q20 -20 20 -49q0 -30 -20 -50q-22 -20 -50 -20zM103 578q-29 0 -49 20t-20 50q0 29 20 49t49 20q28 0 50 -20q20 -22 20 -49q0 -29 -21 -50q-20 -20 -49 -20z" />
    <glyph glyph-name="uni030A" unicode="&#x30a;" horiz-adv-x="0" 
d="M0 561q-55 0 -96 38q-39 37 -39 91t40 91q40 38 95 38t96 -38q39 -37 39 -91t-39 -91q-41 -38 -96 -38zM0 750q-29 0 -46 -17q-18 -17 -18 -43q0 -24 18 -42q17 -18 46 -18q28 0 45 18q18 18 18 42t-19 42q-18 18 -44 18z" />
    <glyph glyph-name="uni030B" unicode="&#x30b;" horiz-adv-x="0" 
d="M-112 742h131l-130 -160h-92zM71 742h132l-131 -160h-91z" />
    <glyph glyph-name="uni030C" unicode="&#x30c;" horiz-adv-x="0" 
d="M-46 581l-129 161h110l65 -86l69 86h106l-134 -161h-87z" />
    <glyph glyph-name="uni0312" unicode="&#x312;" horiz-adv-x="0" 
d="M59 812v-44q-36 -5 -57.5 -27.5t-22.5 -54.5q11 8 31 8q25 0 42 -17t17 -43q0 -28 -19 -45q-19 -18 -47 -18q-35 0 -55 25q-19 25 -19 61q0 64 34.5 105t95.5 50z" />
    <glyph glyph-name="uni0326" unicode="&#x326;" horiz-adv-x="0" 
d="M-60 -332v44q36 5 57.5 27.5t22.5 55.5q-12 -9 -30 -9q-26 0 -43 17.5t-17 43.5q0 28 19 44q19 18 47 18q34 0 54 -24t20 -61q0 -64 -34.5 -105t-95.5 -51z" />
    <glyph glyph-name="uni0327" unicode="&#x327;" horiz-adv-x="0" 
d="M21 0h75q25 -34 25 -80q0 -49 -25 -81q-24 -35 -62 -50q-38 -16 -84 -16q-43 0 -71 11v74q25 -7 61 -7q45 0 71.5 22t26.5 64q0 32 -17 63z" />
    <glyph glyph-name="uni0328" unicode="&#x328;" horiz-adv-x="0" 
d="M0 0h87q-33 -26 -51 -44q-27 -29 -27 -55q0 -50 72 -50h2v-76q-22 -2 -34 -2q-58 0 -97 27q-39 26 -39 75q0 57 87 125z" />
    <glyph glyph-name="Theta" unicode="&#x398;" horiz-adv-x="838" 
d="M45 363q0 79 30 148q28 70 80 120q49 50 120 79q67 30 145 30q101 0 188 -49q86 -48 135 -135q50 -86 50 -190q0 -78 -30 -149t-80 -119q-51 -50 -120 -78q-72 -29 -146 -29q-75 0 -145 29q-68 27 -119 76q-49 49 -79 119q-29 69 -29 148zM164 365q0 -73 34 -134
q33 -62 92 -97q58 -36 129 -36q69 0 128 36t93 97q33 62 33 134q0 73 -33 135q-34 61 -93 97t-128 36q-71 0 -129 -36q-59 -35 -92 -97q-34 -61 -34 -135zM613 319h-388v104h388v-104z" />
    <glyph glyph-name="uni03A9" unicode="&#x3a9;" horiz-adv-x="815" 
d="M174 401q0 -85 51 -147q52 -63 138 -79v-175h-305v99h202v22q-93 40 -149 115q-57 75 -57 171q0 75 29 134q29 64 77 106q104 93 248 93q95 0 176 -42q81 -43 128 -118q49 -76 49 -172t-57 -172q-58 -75 -149 -115v-22h201v-99h-304v175q86 17 138 79q51 62 51 147
q2 97 -67 165.5t-167 66.5q-97 0 -166 -67q-67 -66 -67 -165z" />
    <glyph glyph-name="theta" unicode="&#x3b8;" horiz-adv-x="676" 
d="M337 -9q-79 0 -142 43t-100 117q-50 97 -50 224q0 158 79 270q36 53 93 84q55 31 122 31q79 1 142 -42t99 -117q51 -96 51 -224q0 -157 -78 -270q-37 -53 -93 -84q-58 -32 -123 -32zM159 427h358q-7 94 -52 162q-48 71 -128 71q-78 0 -123.5 -66.5t-54.5 -166.5zM518 330
h-359q8 -98 51 -165q47 -73 129 -73t129 73q44 68 50 165z" />
    <glyph glyph-name="pi" unicode="&#x3c0;" horiz-adv-x="661" 
d="M506 398l1 -238q0 -24 9 -42q13 -22 52 -22q18 0 47 4v-94q-39 -11 -80 -11q-73 0 -106.5 41t-32.5 104v258h-158v-398h-111v398h-107v99h595v-99h-109z" />
    <glyph glyph-name="uni0401" unicode="&#x401;" horiz-adv-x="617" 
d="M221 790q-29 0 -49 21q-21 21 -21 49t20 50q20 20 50 20q29 0 49 -20t20 -50q0 -29 -20 -49q-21 -21 -49 -21zM486 811q-21 -21 -50 -21q-30 0 -49 21q-20 20 -20 49q0 28 20 50q19 20 49 20t50 -20t20 -50q0 -29 -20 -49zM93 729h467v-104h-353v-202h321v-104h-321v-215
h356v-104h-470v729z" />
    <glyph glyph-name="uni0402" unicode="&#x402;" horiz-adv-x="784" 
d="M513 -11q-43 0 -84 11v110q27 -9 58 -9q67 0 109 32.5t42 101.5q0 61 -40 95t-111 34q-109 0 -185 -69v-295h-115v624h-167v105h579v-105h-297v-216q98 68 211 68q111 0 177 -65q66 -64 66 -175q0 -118 -66 -183q-65 -64 -177 -64z" />
    <glyph glyph-name="uni0403" unicode="&#x403;" horiz-adv-x="550" 
d="M344 955h136l-135 -160h-96zM93 0v729h439v-106h-325v-623h-114z" />
    <glyph glyph-name="uni0404" unicode="&#x404;" horiz-adv-x="789" 
d="M411 -9q-83 -1 -160.5 36t-129.5 103q-76 94 -76 232q0 80 30 152q30 70 81 120q52 49 119 77q69 29 141 29q116 0 200 -55q41 -28 66 -57q53 -57 71 -127l-111 -37q-18 62 -56 102q-66 68 -171 67q-88 0 -158 -58q-70 -56 -88 -153h320v-102h-322q10 -65 47 -117
q37 -53 89 -78q53 -27 111 -27q87 0 142 45q24 18 44 44q32 43 44 84l111 -39q-17 -65 -70 -123q-32 -35 -67 -59q-87 -59 -207 -59z" />
    <glyph glyph-name="uni0405" unicode="&#x405;" horiz-adv-x="606" 
d="M309 -8q-124 0 -195 68q-67 63 -75 145l111 30q12 -65 54 -102q43 -38 107 -38q54 0 94 29q38 29 38 73q0 42 -29 69t-79 38l-90 18q-87 18 -135 72q-49 53 -49 126q-2 88 71 155t169 65q138 -1 202 -83q36 -42 47 -97l-107 -33q-11 43 -48 76t-91 33t-89 -31
q-37 -31 -37 -74q0 -33 25 -61q26 -27 67 -36l92 -18q96 -19 147.5 -74t51.5 -137q0 -83 -65 -146q-70 -67 -187 -67z" />
    <glyph glyph-name="uni0406" unicode="&#x406;" horiz-adv-x="300" 
d="M207 729v-729h-114v729h114z" />
    <glyph glyph-name="uni0407" unicode="&#x407;" horiz-adv-x="300" 
d="M48 790q-30 0 -49 21q-20 20 -20 49q0 30 20 50q19 20 49 20t50 -20q20 -22 20 -50q0 -27 -20 -49q-21 -21 -50 -21zM250 790q-28 0 -48 21q-21 21 -21 49t20 50q20 20 49 20q30 0 50 -20t20 -50q0 -29 -20 -49q-21 -21 -50 -21zM207 729v-729h-114v729h114z" />
    <glyph glyph-name="uni0408" unicode="&#x408;" horiz-adv-x="587" 
d="M271 -8q-110 0 -173 62q-65 62 -65 166v77h112v-71q0 -60 36 -93q35 -34 84 -34q53 0 87 34t34 87v509h115v-509q0 -99 -65 -163q-65 -65 -165 -65z" />
    <glyph glyph-name="uni0409" unicode="&#x409;" horiz-adv-x="1139" 
d="M308 625l-38 -345q-1 -7 -2.5 -18t-1.5 -12l-6 -36q-5 -27 -10 -42q-16 -51 -38 -84q-32 -47 -70 -66q-51 -26 -113 -25l-8 1v103q57 3 87 43q22 32 30 57q2 8 5 18t4 13q1 4 3 14t3 16q1 5 2 11t1.5 9.5t0.5 5.5q0 1 2 21l46 420h475v-284h170q50 0 94.5 -12t82.5 -36.5
t60.5 -68t22.5 -101.5q0 -96 -63 -159q-66 -68 -198 -68h-284v625h-257zM680 104h165q87 0 121 40q30 34 30 84t-36 82q-38 33 -116 33h-164v-239z" />
    <glyph glyph-name="uni040A" unicode="&#x40a;" horiz-adv-x="1141" 
d="M682 435h175q49 0 92.5 -11t81 -34.5t59.5 -66.5t22 -101q0 -96 -61 -157q-67 -65 -198 -65h-286v332h-361v-332h-113v729h113v-294h361v294h115v-294zM682 105h170q147 0 147 119q0 53 -38 81.5t-111 28.5h-168v-229z" />
    <glyph glyph-name="uni040B" unicode="&#x40b;" horiz-adv-x="803" 
d="M642 0v209q0 73 -38.5 112.5t-112.5 39.5q-110 0 -189 -71v-290h-114v624h-168v105h579v-105h-297v-219q100 68 211 68q109 0 177 -59q66 -58 66 -166v-248h-114z" />
    <glyph glyph-name="uni040C" unicode="&#x40c;" horiz-adv-x="662" 
d="M393 955h135l-135 -160h-96zM207 0h-114v729h114v-315l291 315h152l-326 -349l345 -380h-155l-307 344v-344z" />
    <glyph glyph-name="uni040E" unicode="&#x40e;" horiz-adv-x="659" 
d="M338 792q-64 0 -113 38q-47 40 -56 115l75 14q14 -43 35 -64t59 -21q37 0 58.5 21t35.5 64l74 -14q-7 -50 -31 -86t-60 -52q-35 -15 -77 -15zM666 729l-260 -527q-34 -69 -55 -100q-52 -75 -131 -94q-34 -8 -70 -8h-85v111h75q99 0 147 100l-283 518h127l218 -406
l194 406h123z" />
    <glyph glyph-name="uni040F" unicode="&#x40f;" horiz-adv-x="770" 
d="M442 0v-154h-114v154h-235v729h114v-624h356v624h114v-729h-235z" />
    <glyph glyph-name="uni0410" unicode="&#x410;" horiz-adv-x="729" 
d="M185 171l-68 -171h-117l297 729h135l295 -729h-119l-67 171h-356zM225 273h277l-139 346z" />
    <glyph glyph-name="uni0411" unicode="&#x411;" horiz-adv-x="676" 
d="M207 436h171q129 2 206 -69q54 -54 54 -146q0 -95 -62 -156q-67 -65 -202 -65h-281v729h500v-104h-386v-189zM207 105h156q84 0 123 29t39 90q0 54 -39 82.5t-113 28.5h-166v-230z" />
    <glyph glyph-name="uni0412" unicode="&#x412;" horiz-adv-x="684" 
d="M93 729h279q106 0 170 -51q64 -52 64 -141q0 -37 -20 -78q-23 -51 -85 -79q78 -25 111 -80q27 -48 27 -96q0 -91 -66 -148q-67 -56 -193 -56h-287v729zM206 420h144q72 0 106 30q36 30 36 75q0 47 -34 74t-102 27h-150v-206zM207 103h175q68 0 105.5 29.5t37.5 80.5
q0 49 -38.5 78t-111.5 29h-168v-217z" />
    <glyph glyph-name="uni0413" unicode="&#x413;" horiz-adv-x="550" 
d="M93 0v729h439v-106h-325v-623h-114z" />
    <glyph glyph-name="uni0414" unicode="&#x414;" horiz-adv-x="810" 
d="M690 729v-626h77v-257h-115v154h-524v-154h-114v257h3q71 -1 116 95q21 43 33 104q4 18 7 42l46 385h471zM575 626h-254l-35 -289q-7 -65 -32 -131q-24 -64 -66 -102h387v522z" />
    <glyph glyph-name="uni0415" unicode="&#x415;" horiz-adv-x="617" 
d="M93 729h467v-104h-353v-202h321v-104h-321v-215h356v-104h-470v729z" />
    <glyph glyph-name="uni0416" unicode="&#x416;" horiz-adv-x="983" 
d="M549 387h4l277 342h143l-293 -357l302 -372h-146l-282 354h-5v-354h-115v354h-5l-283 -354h-145l301 372l-292 357h143l277 -342h4v342h115v-342z" />
    <glyph glyph-name="uni0417" unicode="&#x417;" horiz-adv-x="630" 
d="M306 -9q-117 0 -192 67q-72 63 -83 154l111 20q5 -58 51 -97q47 -39 115 -39q55 0 102 33q50 35 50 100q0 56 -43 88q-43 33 -103 33q-50 0 -77 -15l-54 85l225 206h-353v103h506v-97l-206 -188q101 -6 163 -66q62 -59 62 -147q0 -114 -89 -182q-74 -58 -185 -58z" />
    <glyph glyph-name="uni0418" unicode="&#x418;" horiz-adv-x="796" 
d="M703 729v-729h-113v563l-365 -563h-132v729h113v-564l365 564h132z" />
    <glyph glyph-name="uni0419" unicode="&#x419;" horiz-adv-x="796" 
d="M399 792q-64 0 -113 38q-48 39 -57 115l75 14q15 -44 36 -64.5t59 -20.5q37 0 58.5 21t35.5 64l74 -14q-8 -54 -32 -87q-46 -66 -136 -66zM225 0h-132v729h113v-564l365 564h132v-729h-113v563z" />
    <glyph glyph-name="uni041A" unicode="&#x41a;" horiz-adv-x="662" 
d="M207 0h-114v729h114v-315l291 315h152l-326 -349l345 -380h-155l-307 344v-344z" />
    <glyph glyph-name="uni041B" unicode="&#x41b;" horiz-adv-x="778" 
d="M308 625l-38 -345q-11 -97 -41 -161q-19 -40 -43 -64q-55 -58 -152 -58q-10 0 -13 1v103q43 0 73 27q21 19 41 64q11 27 20 79q0 5 1.5 17.5t2.5 20.5l46 420h480v-729h-114v625h-263z" />
    <glyph glyph-name="uni041C" unicode="&#x41c;" horiz-adv-x="969" 
d="M876 0h-114v546h-2l-228 -546h-97l-227 544h-3v-544h-112v729h155l236 -564h1l232 564h159v-729z" />
    <glyph glyph-name="uni041D" unicode="&#x41d;" horiz-adv-x="775" 
d="M207 315v-315h-114v729h114v-306h361v306h115v-729h-115v315h-361z" />
    <glyph glyph-name="uni041E" unicode="&#x41e;" horiz-adv-x="838" 
d="M45 363q0 79 30 148q28 70 80 120q49 50 120 79q67 30 145 30q101 0 188 -49q86 -48 135 -135q50 -86 50 -190q0 -78 -30 -149t-80 -119q-51 -50 -120 -78q-72 -29 -146 -29q-75 0 -145 29q-68 27 -119 76q-49 49 -79 119q-29 69 -29 148zM165 365q-2 -109 73.5 -189
t180.5 -78q105 0 181 78q73 78 73 189q0 73 -33 135q-34 61 -93 97t-128 36q-105 2 -180.5 -78t-73.5 -190z" />
    <glyph glyph-name="uni041F" unicode="&#x41f;" horiz-adv-x="767" 
d="M207 625v-625h-114v729h582v-729h-115v625h-353z" />
    <glyph glyph-name="uni0420" unicode="&#x420;" horiz-adv-x="635" 
d="M606 502q0 -97 -68 -163q-71 -69 -201 -69h-130v-270h-114v729h258q154 0 218 -98q37 -57 37 -129zM490 500q0 50 -34 86.5t-115 36.5h-134v-248h134q80 0 116 41q33 38 33 84z" />
    <glyph glyph-name="uni0421" unicode="&#x421;" horiz-adv-x="785" 
d="M411 -9q-83 -1 -160.5 36t-129.5 103q-76 94 -76 232q0 80 30 152q30 70 81 120q52 49 119 77q69 29 141 29q115 0 201 -55q40 -28 66 -57q52 -59 70 -127l-113 -39q-9 40 -36 79q-19 27 -42 44q-56 47 -147 47q-98 0 -173 -72q-77 -75 -77 -194q0 -121 76 -195
q74 -72 173 -72q83 0 141 45q27 22 44 44q31 41 43 84l113 -39q-25 -90 -100 -154q-65 -55 -145 -76q-48 -12 -99 -12z" />
    <glyph glyph-name="uni0422" unicode="&#x422;" horiz-adv-x="613" 
d="M249 0v623h-231v106h577v-106h-231v-623h-115z" />
    <glyph glyph-name="uni0423" unicode="&#x423;" horiz-adv-x="659" 
d="M666 729l-260 -527q-34 -69 -55 -100q-52 -75 -131 -94q-34 -8 -70 -8h-85v111h75q99 0 147 100l-283 518h127l218 -406l194 406h123z" />
    <glyph glyph-name="uni0424" unicode="&#x424;" horiz-adv-x="904" 
d="M509 752v-68q213 0 308 -143q48 -72 48 -169q1 -141 -99.5 -228.5t-256.5 -85.5v-81h-114v81q-156 -2 -256.5 86t-99.5 229q0 146 103 230q100 81 253 81v68h114zM157 371q0 -110 80 -167q58 -42 158 -42v418q-120 0 -181 -64q-57 -58 -57 -145zM747 371q0 86 -56 145
q-61 64 -182 64v-418q148 0 204 88q34 51 34 121z" />
    <glyph glyph-name="uni0425" unicode="&#x425;" horiz-adv-x="682" 
d="M340 286l-205 -286h-133l271 375l-255 354h137l187 -266l187 266h135l-254 -353l269 -376h-136z" />
    <glyph glyph-name="uni0426" unicode="&#x426;" horiz-adv-x="797" 
d="M640 -154v154h-547v729h114v-624h356v624h114v-624h77v-259h-114z" />
    <glyph glyph-name="uni0427" unicode="&#x427;" horiz-adv-x="708" 
d="M501 0v298q-121 -63 -210 -63q-115 0 -177 62t-62 172v260h114v-228q0 -79 35.5 -118t113.5 -39q51 0 101 19q50 18 85 42v324h114v-729h-114z" />
    <glyph glyph-name="uni0428" unicode="&#x428;" horiz-adv-x="1133" 
d="M206 729v-625h303v625h115v-625h302v625h114v-729h-947v729h113z" />
    <glyph glyph-name="uni0429" unicode="&#x429;" horiz-adv-x="1161" 
d="M207 729v-624h303v624h114v-624h302v624h115v-624h77v-259h-114v154h-911v729h114z" />
    <glyph glyph-name="uni042A" unicode="&#x42a;" horiz-adv-x="755" 
d="M295 445h170q133 0 205 -72q55 -53 55 -146q0 -95 -62 -159q-68 -68 -199 -68h-284v625h-164v104h279v-284zM295 104h166q86 0 121 40q30 34 30 84q0 51 -37 82q-36 33 -115 33h-165v-239z" />
    <glyph glyph-name="uni042B" unicode="&#x42b;" horiz-adv-x="938" 
d="M623 311q15 -37 15 -84q0 -44 -16 -87q-16 -40 -47 -72q-68 -68 -199 -68h-283v729h114v-284h170q82 0 147 -31q72 -35 99 -103zM845 729v-729h-120v729h120zM524 228q0 50 -36.5 82.5t-115.5 32.5h-165v-239h166q86 0 121 40q30 36 30 84z" />
    <glyph glyph-name="uni042C" unicode="&#x42c;" horiz-adv-x="667" 
d="M623 311q15 -37 15 -84q0 -44 -16 -87q-16 -40 -47 -72q-68 -68 -199 -68h-283v729h114v-284h170q82 0 147 -31q72 -35 99 -103zM524 228q0 50 -36.5 82.5t-115.5 32.5h-165v-239h166q86 0 121 40q30 36 30 84z" />
    <glyph glyph-name="uni042D" unicode="&#x42d;" horiz-adv-x="789" 
d="M376 -9q-118 0 -205 59q-35 24 -67 59q-54 60 -70 123l111 39q12 -42 45 -84q19 -22 45 -44q57 -45 144 -45q91 0 159 61q70 62 83 161h-321v102h320q-12 64 -48 112q-37 49 -87 74q-49 25 -107 25q-92 0 -149 -46q-25 -20 -43 -44q-28 -38 -39 -79l-111 37
q11 47 48.5 97.5t93.5 86.5q88 55 201 55q153 0 259 -104q49 -49 77 -118q29 -72 29 -151q0 -85 -31 -159q-30 -71 -83 -119q-109 -98 -254 -98z" />
    <glyph glyph-name="uni042E" unicode="&#x42e;" horiz-adv-x="1080" 
d="M207 729v-310h109q12 92 61 165q48 72 128 114q77 42 170 42q101 0 185 -49q81 -49 128 -135t47 -191q0 -78 -27.5 -148t-76.5 -119q-104 -107 -259 -107q-93 0 -171 42q-77 41 -126 114q-48 73 -59 166h-109v-313h-114v729h114zM434 365q0 -109 66 -186q68 -81 173 -81
q71 0 126 36q56 37 85 97q30 60 30 134q0 111 -68 189q-67 79 -173 79q-69 0 -124 -37q-58 -39 -85 -98q-30 -60 -30 -133z" />
    <glyph glyph-name="uni042F" unicode="&#x42f;" horiz-adv-x="670" 
d="M37 0l162 300q-70 24 -107 78.5t-37 127.5q0 114 81 177q62 46 167 46h274v-729h-115v277h-152l-147 -277h-126zM462 623h-147q-144 0 -144 -123q0 -45 31 -80q34 -40 113 -40h147v243z" />
    <glyph glyph-name="uni0430" unicode="&#x430;" horiz-adv-x="535" 
d="M211 -9q-73 0 -120 42q-47 41 -47 105v5q1 95 96 132q51 20 110 20h62q46 0 46 42q0 32 -25 54q-27 22 -73 22q-44 0 -73 -22.5t-35 -60.5l-101 23q5 35 34 75q31 40 78 60q41 19 101 19q140 0 186 -102q17 -37 17 -88v-237q0 -50 3 -80h-108q-5 23 -5 68
q-25 -41 -64 -59q-40 -18 -82 -18zM357 217h-107q-35 0 -65 -18q-30 -19 -30 -51q0 -31 22 -49.5t57 -18.5q57 0 90 33t33 88v16z" />
    <glyph glyph-name="uni0431" unicode="&#x431;" horiz-adv-x="617" 
d="M545 656l-175 -38q-101 -22 -152 -63q-22 -18 -38 -45q-23 -40 -29 -111l4 -1q21 38 75 72q53 31 110 31q95 0 165 -70q71 -71 71 -178q0 -117 -72 -189q-74 -72 -186 -72q-114 0 -186 72q-75 75 -75 226q0 66 6 121q2 25 10 58q15 66 44 105q36 54 88 84q65 38 146 55
l175 37zM319 406q-60 0 -104 -43q-44 -46 -44 -112q0 -71 43 -115q42 -44 105 -44q62 0 104 44q41 46 41 115q0 72 -43.5 113.5t-101.5 41.5z" />
    <glyph glyph-name="uni0432" unicode="&#x432;" horiz-adv-x="567" 
d="M74 497h264q72 0 119 -32q46 -33 46 -92q0 -78 -80 -113q42 -8 72 -42q29 -35 29 -83q0 -72 -57 -105q-54 -30 -125 -30h-268v497zM184 294h130q36 0 55.5 16.5t19.5 42.5q0 24 -19.5 39.5t-53.5 15.5h-132v-114zM184 91h142q40 0 62 16.5t22 47.5q0 28 -24.5 43
t-63.5 15h-138v-122z" />
    <glyph glyph-name="uni0433" unicode="&#x433;" horiz-adv-x="442" 
d="M74 0v497h350v-100h-239v-397h-111z" />
    <glyph glyph-name="uni0434" unicode="&#x434;" horiz-adv-x="658" 
d="M506 0h-372v-154h-109v252h2q51 0 79.5 52t35.5 113l28 234h382v-397h63v-254h-109v154zM269 397l-19 -144q-4 -45 -24 -87q-17 -41 -49 -66h263v297h-171z" />
    <glyph glyph-name="uni0435" unicode="&#x435;" horiz-adv-x="573" 
d="M532 216h-378q1 -54 46 -92.5t100 -37.5q104 0 132 84l93 -29q-13 -45 -47.5 -80t-80.5 -53q-48 -17 -96 -17q-108 -2 -185 74t-75 184q0 70 32 129q33 61 90 94q58 35 128 35q114 0 178 -71q65 -71 65 -186q0 -14 -2 -34zM292 412q-53 0 -88 -31q-37 -30 -44 -81h261
q-3 50 -39 82q-38 30 -90 30z" />
    <glyph glyph-name="uni0436" unicode="&#x436;" horiz-adv-x="811" 
d="M460 268h6l188 229h141l-205 -242l211 -255h-142l-194 241h-5v-241h-110v241h-5l-193 -241h-142l211 255l-205 242h141l188 -229h5v229h110v-229z" />
    <glyph glyph-name="uni0437" unicode="&#x437;" horiz-adv-x="506" 
d="M461 160q0 -87 -81 -136q-56 -33 -133 -33t-139 39q-60 38 -77 111l99 30q8 -33 36.5 -59t80.5 -25q56 0 87 31q16 17 16 42q0 32 -27 50q-29 17 -66 17q-11 0 -30 -3q-22 -5 -32 -10l-46 72l152 116h-250v95h396v-86l-142 -109q70 -3 113 -43t43 -99z" />
    <glyph glyph-name="uni0438" unicode="&#x438;" horiz-adv-x="600" 
d="M417 331l-235 -331h-108v497h109v-332l235 332h107v-497h-108v331z" />
    <glyph glyph-name="uni0439" unicode="&#x439;" horiz-adv-x="600" 
d="M300 579q-65 0 -112 38q-48 39 -57 114l75 15q14 -44 35 -64.5t59 -20.5t59.5 20.5t35.5 63.5l74 -14q-7 -49 -31.5 -85t-60.5 -52q-35 -15 -77 -15zM417 331l-235 -331h-108v497h109v-332l235 332h107v-497h-108v331z" />
    <glyph glyph-name="uni043A" unicode="&#x43a;" horiz-adv-x="546" 
d="M185 0h-111v497h111v-209h5l197 209h147l-227 -238l243 -259h-150l-210 230h-5v-230z" />
    <glyph glyph-name="uni043B" unicode="&#x43b;" horiz-adv-x="609" 
d="M255 397l-25 -202q-8 -67 -31 -111q-15 -28 -36 -46q-48 -43 -134 -43h-3v100q51 0 72 38q18 29 24 77l34 287h379v-497h-111v397h-169z" />
    <glyph glyph-name="uni043C" unicode="&#x43c;" horiz-adv-x="754" 
d="M182 0h-108v497h157l147 -357l144 357h158v-497h-109v374l-152 -374h-82l-155 371v-371z" />
    <glyph glyph-name="uni043D" unicode="&#x43d;" horiz-adv-x="595" 
d="M185 203v-203h-111v497h111v-197h225v197h111v-497h-111v203h-225z" />
    <glyph glyph-name="uni043E" unicode="&#x43e;" horiz-adv-x="605" 
d="M40 249q0 72 36 132q38 62 96 93q60 33 132 33q70 0 130 -33t96 -92q35 -61 35 -131q2 -107 -76.5 -184.5t-185.5 -75.5q-69 0 -131 34q-58 31 -96 93q-36 60 -36 131zM154 251q0 -65 42 -112t108 -47q65 0 107 46q41 46 41 111q0 67 -42 112q-40 46 -107 46
q-66 0 -108 -45q-41 -44 -41 -111z" />
    <glyph glyph-name="uni043F" unicode="&#x43f;" horiz-adv-x="592" 
d="M185 397v-397h-111v497h444v-497h-111v397h-222z" />
    <glyph glyph-name="uni0440" unicode="&#x440;" horiz-adv-x="634" 
d="M593 250q0 -68 -30 -126q-32 -60 -88 -95q-60 -37 -129 -37q-52 0 -110 33q-33 19 -51 48v-318h-111v742h108v-77q30 49 83 69q46 18 84 18q111 0 180 -82q64 -78 64 -175zM183 249q0 -65 42 -111q42 -45 107 -45q66 0 108 45q41 45 41 111q0 67 -41 112q-42 45 -108 45
q-65 0 -107 -45q-42 -47 -42 -112z" />
    <glyph glyph-name="uni0441" unicode="&#x441;" horiz-adv-x="567" 
d="M300 -9q-108 -2 -184.5 74.5t-74.5 184.5q0 70 34 129q33 59 94 94q59 34 132 34q89 0 151 -47q62 -46 79 -113l-100 -33q-9 32 -38 61q-34 32 -92 32q-61 0 -104 -43q-42 -44 -42 -113q0 -68 41 -114q42 -45 106 -45q95 0 131 95l101 -33q-17 -61 -74 -109
q-62 -54 -160 -54z" />
    <glyph glyph-name="uni0442" unicode="&#x442;" horiz-adv-x="474" 
d="M181 0v397h-162v100h436v-100h-163v-397h-111z" />
    <glyph glyph-name="uni0443" unicode="&#x443;" horiz-adv-x="570" 
d="M236 56l-221 441h126l155 -326l143 326h120l-341 -742h-118z" />
    <glyph glyph-name="uni0444" unicode="&#x444;" horiz-adv-x="825" 
d="M357 -227v265q-49 -43 -112 -43q-99 0 -150 73t-51 182q0 106 50 177q52 77 151 77q32 0 65 -14q34 -16 47 -32v271h111v-271q14 16 47 32q33 14 65 14q99 0 152 -77q49 -72 49 -179q0 -108 -50.5 -180.5t-149.5 -72.5q-64 0 -113 43v-265h-111zM277 407q-58 0 -90 -44
q-31 -45 -31 -116q0 -76 31 -116.5t90 -40.5q44 0 80 33v250q-39 34 -80 34zM550 407q-43 0 -82 -34v-250q37 -33 82 -33q119 0 119 159q0 71 -30 114q-30 44 -89 44z" />
    <glyph glyph-name="uni0445" unicode="&#x445;" horiz-adv-x="531" 
d="M265 173l-125 -173h-127l189 251l-182 246h127l119 -165l120 165h125l-182 -244l188 -253h-127z" />
    <glyph glyph-name="uni0446" unicode="&#x446;" horiz-adv-x="624" 
d="M472 -153v153h-398v497h111v-397h221v397h112v-397h63v-253h-109z" />
    <glyph glyph-name="uni0447" unicode="&#x447;" horiz-adv-x="550" 
d="M364 0v180q-79 -38 -143 -38q-81 0 -129 41q-49 40 -49 122v192h112v-174q0 -38 23 -60t61 -22q63 0 125 36v220h111v-497h-111z" />
    <glyph glyph-name="uni0448" unicode="&#x448;" horiz-adv-x="863" 
d="M185 497v-397h191v397h110v-397h192v397h111v-497h-715v497h111z" />
    <glyph glyph-name="uni0449" unicode="&#x449;" horiz-adv-x="895" 
d="M185 497v-397h191v397h110v-397h192v397h111v-397h63v-253h-105v153h-673v497h111z" />
    <glyph glyph-name="uni044A" unicode="&#x44a;" horiz-adv-x="636" 
d="M609 171q0 -76 -51 -124q-50 -47 -144 -47h-250v398h-144v99h255v-164h130q125 0 176 -70q28 -37 28 -92zM497 172q0 36 -27 55.5t-73 19.5h-122v-154h124q98 0 98 79z" />
    <glyph glyph-name="uni044B" unicode="&#x44b;" horiz-adv-x="806" 
d="M519 171q0 -76 -51 -124q-50 -47 -144 -47h-250v497h111v-164h130q125 0 176 -70q28 -37 28 -92zM407 172q0 36 -27 55.5t-73 19.5h-122v-154h124q98 0 98 79zM732 497v-497h-111v497h111z" />
    <glyph glyph-name="uni044C" unicode="&#x44c;" horiz-adv-x="546" 
d="M519 171q0 -76 -51 -124q-50 -47 -144 -47h-250v497h111v-164h130q125 0 176 -70q28 -37 28 -92zM407 172q0 36 -27 55.5t-73 19.5h-122v-154h124q98 0 98 79z" />
    <glyph glyph-name="uni044D" unicode="&#x44d;" horiz-adv-x="568" 
d="M217 300h192q-14 50 -51 80q-38 29 -88 29q-56 0 -90 -29q-36 -28 -46 -64l-98 32q17 65 83 112q65 47 154 47q76 0 132 -34q59 -35 90 -92q31 -56 31 -128q0 -115 -72 -188q-74 -74 -186 -74q-91 0 -158 53q-59 48 -76 109l99 32q11 -33 41 -61q34 -34 95 -34
q53 0 93 35q40 34 49 89h-194v86z" />
    <glyph glyph-name="uni044E" unicode="&#x44e;" horiz-adv-x="811" 
d="M184 296h85q15 92 84 152q70 59 165 59q109 0 181 -73q71 -74 71 -185q2 -108 -72.5 -183.5t-181.5 -74.5q-95 0 -163 59q-68 61 -83 153h-86v-203h-110v497h110v-201zM378 249q0 -67 39 -112q37 -45 101 -45t102 45q37 44 37 112q0 66 -38 113q-39 45 -103 45
q-65 0 -101 -45q-37 -43 -37 -113z" />
    <glyph glyph-name="uni044F" unicode="&#x44f;" horiz-adv-x="571" 
d="M284 164l-121 -164h-132l139 183q-119 39 -119 152q0 69 50 116q52 46 147 46h249v-497h-111v164h-102zM386 404h-126q-33 0 -62 -14q-35 -16 -35 -61q0 -31 24 -54q23 -22 74 -22h125v151z" />
    <glyph glyph-name="uni0451" unicode="&#x451;" horiz-adv-x="573" 
d="M186 578q-29 0 -49 20q-20 22 -20 50q0 27 20 49q20 20 49 20t49 -20q21 -21 21 -49q0 -29 -21 -50q-20 -20 -49 -20zM393 578q-29 0 -49 20q-21 21 -21 50q0 27 20 49q20 20 50 20q29 0 49 -20q20 -22 20 -49q0 -28 -20 -50q-22 -20 -49 -20zM534 250q0 -14 -2 -34h-378
q1 -54 46 -92.5t100 -37.5q104 0 132 84l93 -29q-13 -45 -47.5 -80t-80.5 -53q-48 -17 -96 -17q-108 -2 -185 74t-75 184q0 70 32 129q33 61 90 94q58 35 128 35q114 0 178 -71q65 -71 65 -186zM160 300h261q-3 50 -39 82q-38 30 -90 30q-53 0 -88 -31q-37 -30 -44 -81z" />
    <glyph glyph-name="uni0452" unicode="&#x452;" horiz-adv-x="576" 
d="M305 -149q47 0 77 32q29 34 29 88v307q0 58 -28 91t-82 33q-52 0 -84 -35q-32 -33 -32 -92v-275h-111v585h-65v81h65v92h111v-92h155v-81h-155v-152q31 40 73 57q38 17 77 17q92 0 139 -56q48 -55 48 -145v-366q0 -84 -49 -135q-47 -50 -130 -50q-44 0 -77 10v93
q15 -7 39 -7z" />
    <glyph glyph-name="uni0453" unicode="&#x453;" horiz-adv-x="442" 
d="M284 742h135l-135 -160h-96zM74 0v497h350v-100h-239v-397h-111z" />
    <glyph glyph-name="uni0454" unicode="&#x454;" horiz-adv-x="567" 
d="M350 214h-195q12 -57 52 -89q41 -35 94 -35q96 0 134 95l99 -32q-20 -65 -80.5 -113.5t-153.5 -48.5q-108 -2 -184.5 74.5t-74.5 184.5q0 70 34 129q33 59 94 94q59 34 132 34q89 0 151 -46q63 -47 79 -113l-98 -32q-10 32 -39 61q-34 32 -93 32q-50 0 -90 -29
q-38 -29 -52 -80h191v-86z" />
    <glyph glyph-name="uni0455" unicode="&#x455;" horiz-adv-x="461" 
d="M236 -9q-111 1 -163 70q-30 39 -33 75l95 25q8 -36 34 -57.5t66 -21.5q33 0 51.5 15.5t18.5 42.5q0 41 -59 55l-63 15q-64 15 -98 52.5t-34 89.5q0 64 51 110t125 46q105 -1 153 -66q25 -33 30 -67l-93 -26q-7 31 -29.5 50t-60.5 19q-28 0 -48 -16q-20 -14 -20 -40
q0 -42 50 -52l68 -14q67 -15 104 -55q37 -42 37 -95q0 -63 -47.5 -109t-134.5 -46z" />
    <glyph glyph-name="uni0456" unicode="&#x456;" horiz-adv-x="259" 
d="M78 607q-22 22 -22 51q0 30 22 52q21 22 51 22q31 0 52 -22q21 -21 21 -52q0 -30 -21 -51q-22 -22 -52 -22q-29 0 -51 22zM74 0v497h111v-497h-111z" />
    <glyph glyph-name="uni0457" unicode="&#x457;" horiz-adv-x="259" 
d="M24 578q-29 0 -49 20t-20 50q0 29 20 49t49 20t49 -20q21 -21 21 -49q0 -29 -21 -50q-20 -20 -49 -20zM230 578q-27 0 -49 20q-20 22 -20 50q0 27 20 49q20 20 49 20q28 0 50 -20q20 -22 20 -49q0 -28 -20 -50q-22 -20 -50 -20zM185 497v-497h-111v497h111z" />
    <glyph glyph-name="uni0458" unicode="&#x458;" horiz-adv-x="266" 
d="M64 658q0 31 21 52q22 22 51 22q31 0 53 -22q21 -21 21 -52q0 -30 -21 -51q-24 -22 -53 -22t-51 22q-21 21 -21 51zM81 -70v567h111v-573q0 -88 -36 -129t-111 -41q-37 0 -71 9v94q24 -3 36 -3q71 0 71 76z" />
    <glyph glyph-name="uni0459" unicode="&#x459;" horiz-adv-x="896" 
d="M868 171q0 -76 -50 -124q-52 -47 -145 -47h-250v397h-168l-25 -202q-8 -67 -32 -110q-14 -29 -35 -47q-48 -43 -134 -43h-3v100q50 0 72 38q19 33 23 77l35 287h379v-164h130q125 0 176 -70q27 -38 27 -92zM757 172q0 36 -27 55.5t-73 19.5h-122v-154h124q98 0 98 79z
" />
    <glyph glyph-name="uni045A" unicode="&#x45a;" horiz-adv-x="882" 
d="M410 238h-225v-238h-111v497h111v-172h225v172h110v-172h131q92 0 147.5 -38.5t55.5 -119.5q0 -77 -50 -122q-51 -45 -145 -45h-249v238zM520 93h125q98 0 98 76q0 70 -100 70h-123v-146z" />
    <glyph glyph-name="uni045B" unicode="&#x45b;" 
d="M74 758h111v-92h155v-81h-155v-151q22 28 51 46q33 18 53 22q25 5 45 5q92 0 139 -56q47 -54 47 -145v-306h-110v278q0 58 -28 91t-82 33q-53 0 -84 -34t-31 -91v-277h-111v585h-65v81h65v92z" />
    <glyph glyph-name="uni045C" unicode="&#x45c;" horiz-adv-x="546" 
d="M323 742h136l-135 -160h-96zM534 497l-227 -238l243 -259h-150l-210 230h-5v-230h-111v497h111v-209h5l197 209h147z" />
    <glyph glyph-name="uni045E" unicode="&#x45e;" horiz-adv-x="570" 
d="M292 579q-67 0 -112 38q-48 39 -57 114l75 15q13 -44 34.5 -64.5t59.5 -20.5t59 20.5t35 63.5l74 -14q-7 -50 -31 -85.5t-60 -51.5q-35 -15 -77 -15zM236 56l-221 441h126l155 -326l143 326h120l-341 -742h-118z" />
    <glyph glyph-name="uni045F" unicode="&#x45f;" horiz-adv-x="592" 
d="M243 -153v153h-169v497h111v-397h221v397h112v-497h-167v-153h-108z" />
    <glyph glyph-name="uni0490" unicode="&#x490;" horiz-adv-x="550" 
d="M207 0h-114v729h325v151h114v-257h-325v-623z" />
    <glyph glyph-name="uni0491" unicode="&#x491;" horiz-adv-x="442" 
d="M74 0v497h246v148h104v-248h-239v-397h-111z" />
    <glyph glyph-name="uni0496" unicode="&#x496;" horiz-adv-x="1002" 
d="M982 -154h-114v154h-32l-282 354h-5v-354h-115v354h-5l-283 -354h-145l301 372l-292 357h143l277 -342h4v342h115v-342h4l277 342h143l-293 -357l217 -267h85v-259z" />
    <glyph glyph-name="uni0497" unicode="&#x497;" horiz-adv-x="830" 
d="M801 -153h-105v153h-37l-194 241h-5v-241h-110v241h-5l-193 -241h-142l211 255l-205 242h141l188 -229h5v229h110v-229h6l188 229h141l-205 -242l129 -155h82v-253z" />
    <glyph glyph-name="uni0498" unicode="&#x498;" horiz-adv-x="630" 
d="M364 -154h-114v150q-93 15 -151 76q-59 61 -68 140l111 20q5 -58 51 -97q47 -39 115 -39q55 0 102 33q50 35 50 100q0 56 -43 88q-43 33 -103 33q-50 0 -77 -15l-54 85l225 206h-353v103h506v-97l-206 -188q101 -6 163 -66q62 -59 62 -147q0 -114 -89 -182
q-53 -41 -127 -53v-150z" />
    <glyph glyph-name="uni0499" unicode="&#x499;" horiz-adv-x="506" 
d="M300 -153h-105v149q-64 12 -106 49q-44 37 -58 96l99 30q8 -33 36.5 -59t80.5 -25q56 0 87 31q16 17 16 42q0 32 -27 50q-29 17 -66 17q-11 0 -30 -3q-22 -5 -32 -10l-46 72l152 116h-250v95h396v-86l-142 -109q70 -3 113 -43t43 -99q0 -87 -81 -136q-35 -21 -80 -28
v-149z" />
    <glyph glyph-name="uni049A" unicode="&#x49a;" horiz-adv-x="685" 
d="M669 -154h-114v154h-41l-307 344v-344h-114v729h114v-315l291 315h152l-326 -349l250 -275h95v-259z" />
    <glyph glyph-name="uni049B" unicode="&#x49b;" horiz-adv-x="567" 
d="M550 -153h-105v153h-45l-210 230h-5v-230h-111v497h111v-209h5l197 209h147l-227 -238l150 -159h93v-253z" />
    <glyph glyph-name="uni04A2" unicode="&#x4a2;" horiz-adv-x="803" 
d="M760 -154h-115v154h-77v315h-361v-315h-114v729h114v-306h361v306h115v-624h77v-259z" />
    <glyph glyph-name="uni04A3" unicode="&#x4a3;" horiz-adv-x="627" 
d="M585 -153h-105v153h-70v203h-225v-203h-111v497h111v-197h225v197h111v-397h64v-253z" />
    <glyph glyph-name="uni04AA" unicode="&#x4aa;" horiz-adv-x="785" 
d="M468 -154h-114v150q-130 19 -219.5 117t-89.5 249q0 80 30 152q30 70 81 120q52 49 119 77q69 29 141 29q115 0 201 -55q40 -28 66 -57q52 -59 70 -127l-113 -39q-9 40 -36 79q-19 27 -42 44q-56 47 -147 47q-98 0 -173 -72q-77 -75 -77 -194q0 -121 76 -195
q74 -72 173 -72q83 0 141 45q27 22 44 44q31 41 43 84l113 -39q-15 -57 -60 -112q-20 -26 -55 -56q-72 -57 -172 -70v-149z" />
    <glyph glyph-name="uni04AB" unicode="&#x4ab;" horiz-adv-x="567" 
d="M351 -153h-105v149q-90 18 -147 89q-58 68 -58 165q0 70 34 129q33 59 94 94q59 34 132 34q89 0 151 -47q62 -46 79 -113l-100 -33q-9 32 -38 61q-34 32 -92 32q-61 0 -104 -43q-42 -44 -42 -113q0 -68 41 -114q42 -45 106 -45q95 0 131 95l101 -33q-14 -53 -63 -100
q-47 -44 -120 -58v-149z" />
    <glyph glyph-name="uni04AC" unicode="&#x4ac;" horiz-adv-x="617" 
d="M440 -154h-114v154h-77v623h-231v106h577v-106h-231v-518h76v-259z" />
    <glyph glyph-name="uni04AD" unicode="&#x4ad;" horiz-adv-x="478" 
d="M356 -153h-105v153h-70v397h-162v100h436v-100h-163v-297h64v-253z" />
    <glyph glyph-name="uni04B2" unicode="&#x4b2;" horiz-adv-x="700" 
d="M679 -154h-114v154h-22l-203 286l-205 -286h-133l271 375l-255 354h137l187 -266l187 266h135l-254 -353l194 -271h75v-259z" />
    <glyph glyph-name="uni04B3" unicode="&#x4b3;" horiz-adv-x="548" 
d="M518 -153h-105v153h-23l-125 173l-125 -173h-127l189 251l-182 246h127l119 -165l120 165h125l-182 -244l114 -153h75v-253z" />
    <glyph glyph-name="uni04B6" unicode="&#x4b6;" horiz-adv-x="737" 
d="M579 -154v154h-78v298q-121 -63 -210 -63q-115 0 -177 62t-62 172v260h114v-228q0 -79 35.5 -118t113.5 -39q51 0 101 19q50 18 85 42v324h116v-624h76v-259h-114z" />
    <glyph glyph-name="uni04B7" unicode="&#x4b7;" horiz-adv-x="581" 
d="M539 -153h-105v153h-70v180q-79 -38 -143 -38q-81 0 -129 41q-49 40 -49 122v192h112v-174q0 -38 23 -60t61 -22q63 0 125 36v220h111v-397h64v-253z" />
    <glyph glyph-name="uni04C0" unicode="&#x4c0;" horiz-adv-x="300" 
d="M207 729v-729h-114v729h114z" />
    <glyph glyph-name="uni04C1" unicode="&#x4c1;" horiz-adv-x="983" 
d="M491 792q-64 0 -113 38q-48 39 -57 115l75 14q14 -43 35.5 -64t59.5 -21q37 0 58.5 21t35.5 64l74 -14q-7 -50 -31 -86t-60 -52q-34 -15 -77 -15zM549 387h4l277 342h143l-293 -357l302 -372h-146l-282 354h-5v-354h-115v354h-5l-283 -354h-145l301 372l-292 357h143
l277 -342h4v342h115v-342z" />
    <glyph glyph-name="uni04C2" unicode="&#x4c2;" horiz-adv-x="811" 
d="M406 579q-67 0 -112 38q-48 39 -57 114l75 15q14 -44 35 -64.5t59 -20.5t59 20.5t35 63.5l75 -14q-15 -102 -92 -137q-35 -15 -77 -15zM460 268h6l188 229h141l-205 -242l211 -255h-142l-194 241h-5v-241h-110v241h-5l-193 -241h-142l211 255l-205 242h141l188 -229h5
v229h110v-229z" />
    <glyph glyph-name="uni04CF" unicode="&#x4cf;" horiz-adv-x="259" 
d="M185 497v-497h-111v497h111z" />
    <glyph glyph-name="uni04D0" unicode="&#x4d0;" horiz-adv-x="729" 
d="M365 792q-64 0 -113 38q-48 39 -57 115l75 14q15 -44 36 -64.5t59 -20.5q37 0 58.5 21t35.5 64l74 -14q-7 -50 -31.5 -86t-60.5 -52q-34 -15 -76 -15zM185 171l-68 -171h-117l297 729h135l295 -729h-119l-67 171h-356zM225 273h277l-139 346z" />
    <glyph glyph-name="uni04D1" unicode="&#x4d1;" horiz-adv-x="535" 
d="M258 579q-66 0 -113 38q-48 39 -57 114l75 15q14 -44 35.5 -64.5t59.5 -20.5q37 0 58.5 20.5t35.5 63.5l74 -14q-7 -49 -31.5 -85t-59.5 -52q-36 -15 -77 -15zM211 -9q-73 0 -120 42q-47 41 -47 105v5q1 95 96 132q51 20 110 20h62q46 0 46 42q0 32 -25 54q-27 22 -73 22
q-44 0 -73 -22.5t-35 -60.5l-101 23q5 35 34 75q31 40 78 60q41 19 101 19q140 0 186 -102q17 -37 17 -88v-237q0 -50 3 -80h-108q-5 23 -5 68q-25 -41 -64 -59q-40 -18 -82 -18zM357 217h-107q-35 0 -65 -18q-30 -19 -30 -51q0 -31 22 -49.5t57 -18.5q57 0 90 33t33 88v16z
" />
    <glyph glyph-name="uni04D2" unicode="&#x4d2;" horiz-adv-x="729" 
d="M258 790q-30 0 -49 21q-20 20 -20 49q0 30 20 50q19 20 49 20t49 -20q21 -21 21 -50q0 -28 -21 -49q-19 -21 -49 -21zM523 811q-20 -21 -49 -21q-30 0 -49 21q-20 19 -20 49t20 50q19 20 49 20t49 -20q21 -21 21 -50q0 -28 -21 -49zM185 171l-68 -171h-117l297 729h135
l295 -729h-119l-67 171h-356zM225 273h277l-139 346z" />
    <glyph glyph-name="uni04D3" unicode="&#x4d3;" horiz-adv-x="535" 
d="M160 578q-29 0 -49 20q-21 21 -21 50q0 27 20 49q22 20 50 20q27 0 49 -20q21 -21 21 -49q0 -29 -21 -50q-22 -20 -49 -20zM366 578q-29 0 -49 20q-20 22 -20 50q0 27 20 49q20 20 49 20q28 0 50 -20q20 -22 20 -49q0 -29 -21 -50q-20 -20 -49 -20zM211 -9q-73 0 -120 42
q-47 41 -47 105v5q1 95 96 132q51 20 110 20h62q46 0 46 42q0 32 -25 54q-27 22 -73 22q-44 0 -73 -22.5t-35 -60.5l-101 23q5 35 34 75q31 40 78 60q41 19 101 19q140 0 186 -102q17 -37 17 -88v-237q0 -50 3 -80h-108q-5 23 -5 68q-25 -41 -64 -59q-40 -18 -82 -18z
M357 201v16h-107q-35 0 -65 -18q-30 -19 -30 -51q0 -31 22 -49.5t57 -18.5q57 0 90 33t33 88z" />
    <glyph glyph-name="uni04D4" unicode="&#x4d4;" horiz-adv-x="980" 
d="M114 0h-125l396 729h538v-104h-348v-202h316v-104h-316v-215h351v-104h-465v171h-255zM260 273h201v353h-11z" />
    <glyph glyph-name="uni04D5" unicode="&#x4d5;" horiz-adv-x="885" 
d="M846 250q0 -22 -1 -34h-380q2 -55 46 -92q46 -38 102 -38q102 0 131 83l95 -28q-21 -70 -84 -110q-66 -40 -141 -40q-123 0 -200 90q-76 -90 -198 -90h-2q-72 0 -122 42q-48 41 -48 105v5q1 95 96 132q51 20 110 20h71q41 0 41 42q0 32 -26.5 53.5t-71.5 22.5
q-46 0 -77 -23q-31 -22 -37 -59l-99 22q5 35 35 74q32 39 81 62q42 18 99 18q117 0 164 -71q68 71 176 71q113 0 177 -71q63 -70 63 -186zM470 300h265q-3 52 -39 82t-91 30q-53 0 -90 -31q-37 -30 -45 -81zM360 217h-110q-35 0 -65 -18q-30 -19 -30 -51q0 -31 22 -49.5
t57 -18.5q57 0 92 32q34 33 34 89v16z" />
    <glyph glyph-name="uni04D6" unicode="&#x4d6;" horiz-adv-x="617" 
d="M326 792q-65 0 -112 38q-48 39 -57 115l75 14q15 -44 35.5 -64.5t58.5 -20.5t59 21t35 64l75 -14q-15 -103 -92 -138q-35 -15 -77 -15zM93 729h467v-104h-353v-202h321v-104h-321v-215h356v-104h-470v729z" />
    <glyph glyph-name="uni04D7" unicode="&#x4d7;" horiz-adv-x="573" 
d="M290 579q-65 0 -112 38q-48 39 -57 114l75 15q14 -44 35 -64.5t59 -20.5t59.5 20.5t35.5 63.5l74 -14q-7 -49 -31.5 -85t-60.5 -52q-34 -15 -77 -15zM532 216h-378q1 -54 46 -92.5t100 -37.5q104 0 132 84l93 -29q-13 -45 -47.5 -80t-80.5 -53q-48 -17 -96 -17
q-108 -2 -185 74t-75 184q0 70 32 129q33 61 90 94q58 35 128 35q114 0 178 -71q65 -71 65 -186q0 -14 -2 -34zM292 412q-53 0 -88 -31q-37 -30 -44 -81h261q-3 50 -39 82q-38 30 -90 30z" />
    <glyph glyph-name="uni04DC" unicode="&#x4dc;" horiz-adv-x="983" 
d="M383 790q-29 0 -48 21q-21 21 -21 49t20 50q20 20 49 20q28 0 50 -20q20 -22 20 -50q0 -27 -20 -49q-21 -21 -50 -21zM599 790q-29 0 -49 21q-20 20 -20 49q0 30 20 50t49 20q28 0 50 -20q20 -22 20 -50t-21 -49q-20 -21 -49 -21zM549 387h4l277 342h143l-293 -357
l302 -372h-146l-282 354h-5v-354h-115v354h-5l-283 -354h-145l301 372l-292 357h143l277 -342h4v342h115v-342z" />
    <glyph glyph-name="uni04DD" unicode="&#x4dd;" horiz-adv-x="811" 
d="M302 578q-29 0 -49 20q-20 22 -20 50q0 27 20 49q20 20 49 20t49 -20q21 -21 21 -49q0 -29 -21 -50q-20 -20 -49 -20zM509 578q-29 0 -49 20q-21 21 -21 50q0 27 20 49q20 20 50 20q29 0 49 -20q20 -22 20 -49q0 -28 -20 -50q-22 -20 -49 -20zM460 268h6l188 229h141
l-205 -242l211 -255h-142l-194 241h-5v-241h-110v241h-5l-193 -241h-142l211 255l-205 242h141l188 -229h5v229h110v-229z" />
    <glyph glyph-name="uni04DE" unicode="&#x4de;" horiz-adv-x="630" 
d="M200 790q-30 0 -49 21q-21 21 -21 49t20 50q22 20 50 20q27 0 49 -20q21 -21 21 -50q0 -28 -21 -49t-49 -21zM415 790q-28 0 -49 21q-20 22 -20 49q0 28 20 50q20 20 49 20q28 0 50 -20q20 -22 20 -50q0 -27 -20 -49q-21 -21 -50 -21zM306 -9q-117 0 -192 67
q-72 63 -83 154l111 20q5 -58 51 -97q47 -39 115 -39q55 0 102 33q50 35 50 100q0 56 -43 88q-43 33 -103 33q-50 0 -77 -15l-54 85l225 206h-353v103h506v-97l-206 -188q101 -6 163 -66q62 -59 62 -147q0 -114 -89 -182q-74 -58 -185 -58z" />
    <glyph glyph-name="uni04DF" unicode="&#x4df;" horiz-adv-x="506" 
d="M145 578q-27 0 -49 20q-20 22 -20 50q0 27 20 49q20 20 49 20q28 0 50 -20q20 -22 20 -49q0 -28 -20 -50q-22 -20 -50 -20zM352 578q-29 0 -49 20q-21 21 -21 50q0 27 20 49q20 20 50 20q29 0 49 -20t20 -49q0 -30 -20 -50q-22 -20 -49 -20zM461 160q0 -87 -81 -136
q-56 -33 -133 -33t-139 39q-60 38 -77 111l99 30q8 -33 36.5 -59t80.5 -25q56 0 87 31q16 17 16 42q0 32 -27 50q-29 17 -66 17q-11 0 -30 -3q-22 -5 -32 -10l-46 72l152 116h-250v95h396v-86l-142 -109q70 -3 113 -43t43 -99z" />
    <glyph glyph-name="uni04E2" unicode="&#x4e2;" horiz-adv-x="796" 
d="M560 828h-323v88h323v-88zM703 729v-729h-113v563l-365 -563h-132v729h113v-564l365 564h132z" />
    <glyph glyph-name="uni04E3" unicode="&#x4e3;" horiz-adv-x="600" 
d="M461 591h-322v89h322v-89zM417 331l-235 -331h-108v497h109v-332l235 332h107v-497h-108v331z" />
    <glyph glyph-name="uni04E4" unicode="&#x4e4;" horiz-adv-x="796" 
d="M290 790q-28 0 -49 21q-20 22 -20 49q0 28 20 50q20 20 49 20q28 0 50 -20q20 -22 20 -50q0 -27 -20 -49q-21 -21 -50 -21zM506 790q-29 0 -49 21q-21 21 -21 49t20 50q22 20 50 20q29 0 49 -20t20 -50q0 -29 -20 -49q-21 -21 -49 -21zM703 729v-729h-113v563l-365 -563
h-132v729h113v-564l365 564h132z" />
    <glyph glyph-name="uni04E5" unicode="&#x4e5;" horiz-adv-x="600" 
d="M196 578q-28 0 -48 20q-21 21 -21 50q0 27 20 49q20 20 49 20q28 0 50 -20q20 -20 20 -49q0 -30 -20 -50q-22 -20 -50 -20zM403 578q-29 0 -49 20t-20 50q0 29 20 49t49 20q28 0 50 -20q20 -22 20 -49q0 -29 -21 -50q-20 -20 -49 -20zM417 331l-235 -331h-108v497h109
v-332l235 332h107v-497h-108v331z" />
    <glyph glyph-name="uni04E6" unicode="&#x4e6;" horiz-adv-x="838" 
d="M313 790q-29 0 -49 21q-21 21 -21 49t20 50q19 20 50 20q29 0 49 -20q20 -22 20 -50q0 -27 -20 -49q-21 -21 -49 -21zM578 811q-21 -21 -50 -21q-30 0 -49 21q-20 20 -20 49q0 28 20 50q19 20 49 20t50 -20q20 -22 20 -50q0 -27 -20 -49zM45 363q0 79 30 148
q28 70 80 120q49 50 120 79q67 30 145 30q101 0 188 -49q86 -48 135 -135q50 -86 50 -190q0 -78 -30 -149t-80 -119q-51 -50 -120 -78q-72 -29 -146 -29q-75 0 -145 29q-68 27 -119 76q-49 49 -79 119q-29 69 -29 148zM165 365q-2 -109 73.5 -189t180.5 -78q105 0 181 78
q73 78 73 189q0 73 -33 135q-34 61 -93 97t-128 36q-105 2 -180.5 -78t-73.5 -190z" />
    <glyph glyph-name="uni04E7" unicode="&#x4e7;" horiz-adv-x="605" 
d="M199 578q-29 0 -49 20t-20 50q0 29 20 49t49 20t49 -20q21 -21 21 -49q0 -29 -21 -50q-20 -20 -49 -20zM405 578q-27 0 -49 20q-20 22 -20 50q0 27 20 49q20 20 49 20q28 0 50 -20q20 -22 20 -49q0 -28 -20 -50q-22 -20 -50 -20zM40 249q0 72 36 132q38 62 96 93
q60 33 132 33q70 0 130 -33t96 -92q35 -61 35 -131q2 -107 -76.5 -184.5t-185.5 -75.5q-69 0 -131 34q-58 31 -96 93q-36 60 -36 131zM154 251q0 -65 42 -112t108 -47q65 0 107 46q41 46 41 111q0 67 -42 112q-40 46 -107 46q-66 0 -108 -45q-41 -44 -41 -111z" />
    <glyph glyph-name="uni04E8" unicode="&#x4e8;" horiz-adv-x="838" 
d="M45 363q0 79 30 148q28 70 80 120q49 50 120 79q67 30 145 30q101 0 188 -49q86 -48 135 -135q50 -86 50 -190q0 -78 -30 -149t-80 -119q-51 -50 -120 -78q-72 -29 -146 -29q-75 0 -145 29q-68 27 -119 76q-49 49 -79 119q-29 69 -29 148zM169 420h499q-15 91 -86 153
q-70 60 -163 60t-164 -60q-70 -62 -86 -153zM670 320h-503q13 -94 85 -158q73 -64 167 -64t166 64q71 64 85 158z" />
    <glyph glyph-name="uni04E9" unicode="&#x4e9;" horiz-adv-x="605" 
d="M565 251q2 -107 -76.5 -184.5t-185.5 -75.5q-69 0 -131 34q-58 31 -96 93q-36 60 -36 131q0 72 36 132q38 62 96 93q60 33 132 33q70 0 130 -33t96 -92q35 -61 35 -131zM155 291h295q-10 51 -51 84q-40 34 -96 34q-58 0 -98 -34q-41 -33 -50 -84zM450 209h-294
q9 -51 51 -84q41 -35 97 -35t96 34q41 34 50 85z" />
    <glyph glyph-name="uni04EA" unicode="&#x4ea;" horiz-adv-x="838" 
d="M308 790q-30 0 -49 21q-20 20 -20 49q0 30 20 50q19 20 49 20t49 -20q21 -21 21 -50q0 -28 -21 -49q-19 -21 -49 -21zM582 811q-20 -21 -49 -21q-30 0 -49 21q-20 19 -20 49t20 50q19 20 49 20t49 -20q21 -21 21 -50q0 -28 -21 -49zM45 363q0 79 30 148q28 70 80 120
q49 50 120 79q67 30 145 30q101 0 188 -49q86 -48 135 -135q50 -86 50 -190q0 -78 -30 -149t-80 -119q-51 -50 -120 -78q-72 -29 -146 -29q-75 0 -145 29q-68 27 -119 76q-49 49 -79 119q-29 69 -29 148zM169 420h500q-16 91 -87 153q-70 60 -163 60t-164 -60
q-70 -62 -86 -153zM670 320h-503q13 -94 85 -158q73 -64 167 -64t166 64q71 64 85 158z" />
    <glyph glyph-name="uni04EB" unicode="&#x4eb;" horiz-adv-x="605" 
d="M269 648q0 -29 -21 -50q-20 -20 -49 -20t-49 20t-20 50q0 29 20 49t49 20t49 -20q21 -21 21 -49zM475 648q0 -28 -20 -50q-22 -20 -50 -20q-27 0 -49 20q-20 22 -20 50q0 27 20 49q20 20 49 20q28 0 50 -20q20 -22 20 -49zM565 251q2 -107 -76.5 -184.5t-185.5 -75.5
q-69 0 -131 34q-58 31 -96 93q-36 60 -36 131q0 72 36 132q38 62 96 93q60 33 132 33q70 0 130 -33t96 -92q35 -61 35 -131zM155 291h295q-10 51 -51 84q-40 34 -96 34q-58 0 -98 -34q-41 -33 -50 -84zM450 209h-294q9 -51 51 -84q41 -35 97 -35t96 34q41 34 50 85z" />
    <glyph glyph-name="uni04EC" unicode="&#x4ec;" horiz-adv-x="789" 
d="M274 790q-28 0 -49 21q-20 22 -20 49q0 28 20 50q20 20 49 20q28 0 50 -20q20 -22 20 -50q0 -27 -20 -49q-21 -21 -50 -21zM490 790q-30 0 -49 21q-21 21 -21 49t20 50q22 20 50 20t50 -20q20 -22 20 -50t-21 -49t-49 -21zM376 -9q-118 0 -205 59q-35 24 -67 59
q-54 60 -70 123l111 39q12 -42 45 -84q19 -22 45 -44q57 -45 144 -45q91 0 159 61q70 62 83 161h-321v102h320q-12 64 -48 112q-37 49 -87 74q-49 25 -107 25q-92 0 -149 -46q-25 -20 -43 -44q-28 -38 -39 -79l-111 37q11 47 48.5 97.5t93.5 86.5q88 55 201 55
q153 0 259 -104q49 -49 77 -118q29 -72 29 -151q0 -85 -31 -159q-30 -71 -83 -119q-109 -98 -254 -98z" />
    <glyph glyph-name="uni04ED" unicode="&#x4ed;" horiz-adv-x="568" 
d="M162 578q-29 0 -49 20q-20 22 -20 50q0 27 20 49q20 20 49 20t49 -20q21 -21 21 -49q0 -29 -21 -50q-20 -20 -49 -20zM369 578q-29 0 -49 20q-21 21 -21 50q0 27 20 49q20 20 50 20q29 0 49 -20q20 -22 20 -49q0 -28 -20 -50q-22 -20 -49 -20zM217 300h192q-14 50 -51 80
q-38 29 -88 29q-56 0 -90 -29q-36 -28 -46 -64l-98 32q17 65 83 112q65 47 154 47q76 0 132 -34q59 -35 90 -92q31 -56 31 -128q0 -115 -72 -188q-74 -74 -186 -74q-91 0 -158 53q-59 48 -76 109l99 32q11 -33 41 -61q34 -34 95 -34q53 0 93 35q40 34 49 89h-194v86z" />
    <glyph glyph-name="uni04EE" unicode="&#x4ee;" horiz-adv-x="659" 
d="M498 828h-323v88h323v-88zM666 729l-260 -527q-34 -69 -55 -100q-52 -75 -131 -94q-34 -8 -70 -8h-85v111h75q99 0 147 100l-283 518h127l218 -406l194 406h123z" />
    <glyph glyph-name="uni04EF" unicode="&#x4ef;" horiz-adv-x="570" 
d="M450 591h-323v89h323v-89zM236 56l-221 441h126l155 -326l143 326h120l-341 -742h-118z" />
    <glyph glyph-name="uni04F0" unicode="&#x4f0;" horiz-adv-x="659" 
d="M231 790q-29 0 -48 21q-21 21 -21 49t20 50q20 20 49 20q28 0 50 -20q20 -20 20 -50q0 -29 -20 -49q-21 -21 -50 -21zM447 790q-29 0 -49 21q-20 22 -20 49q0 28 20 50q20 20 49 20q28 0 50 -20q20 -22 20 -50t-21 -49q-20 -21 -49 -21zM666 729l-260 -527
q-34 -69 -55 -100q-52 -75 -131 -94q-34 -8 -70 -8h-85v111h75q99 0 147 100l-283 518h127l218 -406l194 406h123z" />
    <glyph glyph-name="uni04F1" unicode="&#x4f1;" horiz-adv-x="570" 
d="M186 578q-29 0 -49 20q-20 22 -20 50q0 27 20 49q20 20 49 20t49 -20q21 -21 21 -49q0 -29 -21 -50q-20 -20 -49 -20zM393 578q-29 0 -49 20q-21 21 -21 50q0 27 20 49q20 20 50 20q29 0 49 -20q20 -22 20 -49q0 -28 -20 -50q-22 -20 -49 -20zM236 56l-221 441h126
l155 -326l143 326h120l-341 -742h-118z" />
    <glyph glyph-name="uni04F2" unicode="&#x4f2;" horiz-adv-x="659" 
d="M290 955h130l-130 -160h-91zM473 955h131l-130 -160h-92zM666 729l-260 -527q-34 -69 -55 -100q-52 -75 -131 -94q-34 -8 -70 -8h-85v111h75q99 0 147 100l-283 518h127l218 -406l194 406h123z" />
    <glyph glyph-name="uni04F3" unicode="&#x4f3;" horiz-adv-x="570" 
d="M243 742h131l-131 -160h-91zM426 742h131l-130 -160h-92zM236 56l-221 441h126l155 -326l143 326h120l-341 -742h-118z" />
    <glyph glyph-name="uni04F4" unicode="&#x4f4;" horiz-adv-x="708" 
d="M225 790q-29 0 -48 21q-21 21 -21 49t20 50q22 20 49 20q28 0 50 -20q20 -20 20 -50q0 -29 -20 -49q-21 -21 -50 -21zM441 790q-29 0 -49 21q-20 22 -20 49q0 28 20 50q20 20 49 20q28 0 50 -20q20 -22 20 -50t-21 -49q-20 -21 -49 -21zM501 0v298q-121 -63 -210 -63
q-115 0 -177 62t-62 172v260h114v-228q0 -79 35.5 -118t113.5 -39q51 0 101 19q50 18 85 42v324h114v-729h-114z" />
    <glyph glyph-name="uni04F5" unicode="&#x4f5;" horiz-adv-x="550" 
d="M155 578q-28 0 -48 20q-21 21 -21 50q0 27 20 49q22 20 49 20q28 0 50 -20q20 -20 20 -49q0 -30 -20 -50q-22 -20 -50 -20zM362 578q-29 0 -49 20q-20 22 -20 50q0 27 20 49q20 20 49 20q28 0 50 -20q20 -22 20 -49q0 -29 -21 -50q-20 -20 -49 -20zM364 0v180
q-79 -38 -143 -38q-81 0 -129 41q-49 40 -49 122v192h112v-174q0 -38 23 -60t61 -22q63 0 125 36v220h111v-497h-111z" />
    <glyph glyph-name="uni04F8" unicode="&#x4f8;" horiz-adv-x="938" 
d="M361 790q-29 0 -49 21q-20 22 -20 49q0 28 20 50q20 20 49 20t49 -20q21 -21 21 -50q0 -28 -21 -49q-20 -21 -49 -21zM577 790q-29 0 -49 21q-21 21 -21 49t20 50q20 20 50 20q29 0 49 -20t20 -50q0 -29 -20 -49q-21 -21 -49 -21zM623 311q15 -37 15 -84q0 -44 -16 -87
q-16 -40 -47 -72q-68 -68 -199 -68h-283v729h114v-284h170q82 0 147 -31q72 -35 99 -103zM845 729v-729h-120v729h120zM524 228q0 50 -36.5 82.5t-115.5 32.5h-165v-239h166q86 0 121 40q30 36 30 84z" />
    <glyph glyph-name="uni04F9" unicode="&#x4f9;" horiz-adv-x="806" 
d="M299 578q-27 0 -49 20q-20 22 -20 50q0 27 20 49q20 20 49 20q28 0 50 -20q20 -22 20 -49q0 -28 -20 -50q-22 -20 -50 -20zM506 578q-29 0 -49 20q-21 21 -21 50q0 27 20 49q22 20 50 20q29 0 49 -20t20 -49q0 -30 -20 -50q-22 -20 -49 -20zM519 171q0 -76 -51 -124
q-50 -47 -144 -47h-250v497h111v-164h130q125 0 176 -70q28 -37 28 -92zM407 172q0 36 -27 55.5t-73 19.5h-122v-154h124q98 0 98 79zM732 497v-497h-111v497h111z" />
    <glyph glyph-name="uni0E3F" unicode="&#xe3f;" horiz-adv-x="684" 
d="M93 0v729h212v101h75v-101q102 -1 165 -54q61 -51 61 -137q0 -35 -20 -78q-24 -53 -86 -80q78 -25 112 -81q27 -47 27 -95q0 -91 -66 -148q-67 -56 -193 -56v-95h-75v95h-212zM205 626v-206h101v206h-101zM379 625v-203q56 6 85 34t29 70t-29 68.5t-85 30.5zM206 320
v-218h100v218h-100zM379 102h3q68 0 105.5 29.5t37.5 80.5q0 50 -37.5 79t-108.5 29v-218z" />
    <glyph glyph-name="uni1E20" unicode="&#x1e20;" horiz-adv-x="795" 
d="M577 828h-323v88h323v-88zM741 518l-112 -35q-14 53 -64 98q-57 52 -149 52q-108 0 -179 -77q-73 -76 -73 -191q0 -74 32 -135q32 -62 89 -97q58 -36 130 -36q91 0 148 46q57 48 69 118h-262v104h385v-40q0 -140 -90 -235q-90 -98 -249 -98q-108 0 -193 48
q-84 49 -131 133t-47 190q0 79 29 151q29 70 78 119q50 50 118 78q70 29 147 29q125 0 211 -64.5t113 -157.5z" />
    <glyph glyph-name="uni1E21" unicode="&#x1e21;" horiz-adv-x="630" 
d="M460 591h-324v89h324v-89zM282 -4q-107 0 -174 77q-68 76 -68 177q0 95 65 173q31 38 78.5 60t101.5 22q42 0 88 -20q50 -23 75 -64v76h108v-494q0 -77 -36 -135q-38 -60 -96 -87q-60 -30 -137 -30q-122 0 -196 74q-38 38 -49 94l104 30q9 -41 48 -69q39 -30 89 -30
q68 0 115 37.5t47 110.5v82q-18 -29 -51 -50q-33 -20 -61 -27q-31 -7 -51 -7zM447 252q0 66 -41 110q-40 44 -107 44t-108 -44t-41 -110t42 -111q42 -46 107 -46t107 46q41 46 41 111z" />
    <glyph glyph-name="uni1E30" unicode="&#x1e30;" horiz-adv-x="662" 
d="M388 955h136l-135 -160h-96zM499 729h151l-326 -349l345 -380h-155l-307 344v-344h-114v729h114v-315z" />
    <glyph glyph-name="uni1E31" unicode="&#x1e31;" horiz-adv-x="541" 
d="M186 243v-243h-112v758h112v-457h1l193 196h150l-224 -225l237 -272h-147l-207 243h-3zM366 742h135l-135 -160h-96z" />
    <glyph glyph-name="uni1E60" unicode="&#x1e60;" horiz-adv-x="607" 
d="M355 812q-24 -22 -52 -22q-30 0 -52 22q-21 21 -21 52q0 30 21 52q21 21 52 21t52 -21q21 -22 21 -52q0 -31 -21 -52zM310 -8q-146 0 -220 93q-44 52 -52 120l112 30q14 -65 55 -102q43 -38 107 -38q55 0 93 29t38 73q0 84 -107 107l-90 18q-88 18 -136 72
q-49 55 -49 126q-1 88 72 155t169 65q138 -1 202 -83q37 -43 46 -97l-107 -33q-11 43 -47 76q-38 33 -91 33t-90 -31q-36 -31 -36 -74q0 -33 25 -61q24 -27 67 -36l92 -18q96 -19 147.5 -74t51.5 -137q0 -83 -65 -146q-70 -67 -187 -67z" />
    <glyph glyph-name="uni1E61" unicode="&#x1e61;" horiz-adv-x="461" 
d="M280 600q-21 -22 -52 -22q-30 0 -51 22q-22 22 -22 51q0 31 21 53q21 21 52 21t52 -21q22 -22 22 -53q0 -30 -22 -51zM236 -9q-94 0 -146 52q-45 47 -51 93l96 25q8 -36 34 -57.5t66 -21.5q33 0 51.5 15.5t18.5 42.5q0 41 -59 55l-63 15q-64 15 -98 52.5t-34 89.5
q0 64 51 110t125 46q105 -1 153 -66q25 -33 30 -67l-93 -26q-7 31 -29.5 50t-60.5 19q-28 0 -48 -16q-20 -14 -20 -40q0 -42 50 -52l68 -14q67 -15 104 -55q37 -42 37 -95q0 -63 -47.5 -109t-134.5 -46z" />
    <glyph glyph-name="Wgrave" unicode="&#x1e80;" horiz-adv-x="1093" 
d="M499 955l95 -160h-96l-135 160h136zM22 729h122l164 -567l175 567h127l177 -567l167 567h119l-223 -729h-130l-174 570h-1l-175 -570h-129z" />
    <glyph glyph-name="wgrave" unicode="&#x1e81;" horiz-adv-x="819" 
d="M460 582h-95l-135 160h135zM579 145h1l105 352h114l-160 -497h-114l-115 349h-2l-116 -349h-113l-159 497h115l105 -351h1l113 351h111z" />
    <glyph glyph-name="Wacute" unicode="&#x1e82;" horiz-adv-x="1093" 
d="M592 955h135l-135 -160h-96zM22 729h122l164 -567l175 567h127l177 -567l167 567h119l-223 -729h-130l-174 570h-1l-175 -570h-129z" />
    <glyph glyph-name="wacute" unicode="&#x1e83;" horiz-adv-x="819" 
d="M456 742h135l-135 -160h-96zM579 145h1l105 352h114l-160 -497h-114l-115 349h-2l-116 -349h-113l-159 497h115l105 -351h1l113 351h111z" />
    <glyph glyph-name="Wdieresis" unicode="&#x1e84;" horiz-adv-x="1093" 
d="M444 790q-30 0 -49 21q-20 20 -20 49q0 30 20 50t49 20t49 -20q21 -21 21 -50q0 -28 -21 -49q-19 -21 -49 -21zM650 790q-28 0 -49 21q-20 22 -20 49q0 28 20 50q20 20 49 20q28 0 50 -20q20 -22 20 -50q0 -27 -20 -49q-21 -21 -50 -21zM22 729h122l164 -567l175 567h127
l177 -567l167 567h119l-223 -729h-130l-174 570h-1l-175 -570h-129z" />
    <glyph glyph-name="wdieresis" unicode="&#x1e85;" horiz-adv-x="819" 
d="M306 578q-29 0 -49 20q-20 22 -20 50q0 27 20 49q20 20 49 20t49 -20q21 -21 21 -49q0 -29 -21 -50q-20 -20 -49 -20zM513 578q-29 0 -49 20q-21 21 -21 50q0 27 20 49q20 20 50 20q29 0 49 -20q20 -22 20 -49q0 -28 -20 -50q-22 -20 -49 -20zM579 145h1l105 352h114
l-160 -497h-114l-115 349h-2l-116 -349h-113l-159 497h115l105 -351h1l113 351h111z" />
    <glyph glyph-name="uni1E90" unicode="&#x1e90;" horiz-adv-x="620" 
d="M244 795h-110l129 160h87l133 -160h-106l-68 86zM573 631l-398 -528h406v-103h-546v99l399 527h-384v103h523v-98z" />
    <glyph glyph-name="uni1E91" unicode="&#x1e91;" horiz-adv-x="492" 
d="M180 581h-110l129 161h87l134 -161h-106l-69 86zM449 409l-274 -313h275v-96h-410v92l270 308h-263v97h402v-88z" />
    <glyph glyph-name="uni1EBC" unicode="&#x1ebc;" horiz-adv-x="617" 
d="M495 942v-10q0 -124 -96 -124q-26 -1 -71 22.5t-60 23.5q-28 0 -31 -45h-77v11q0 124 98 124q23 1 71 -22.5t62 -22.5q30 0 34 43h70zM93 729h467v-104h-353v-202h321v-104h-321v-215h356v-104h-470v729z" />
    <glyph glyph-name="uni1EBD" unicode="&#x1ebd;" horiz-adv-x="573" 
d="M455 724v-10q0 -124 -96 -124q-26 -1 -71 22.5t-60 22.5q-28 0 -31 -44h-77v10q0 124 98 124q23 1 71 -22t62 -22q30 0 34 43h70zM532 216h-378q1 -54 46 -92.5t100 -37.5q104 0 132 84l93 -29q-13 -45 -47.5 -80t-80.5 -53q-48 -17 -96 -17q-108 -2 -185 74t-75 184
q0 70 32 129q33 61 90 94q58 35 128 35q114 0 178 -71q65 -71 65 -186q0 -14 -2 -34zM292 412q-53 0 -88 -31q-37 -30 -44 -81h261q-3 50 -39 82q-38 30 -90 30z" />
    <glyph glyph-name="Ygrave" unicode="&#x1ef2;" horiz-adv-x="699" 
d="M313 955l96 -160h-96l-135 160h135zM292 0v291l-274 438h132l200 -327l201 327h131l-275 -435v-294h-115z" />
    <glyph glyph-name="ygrave" unicode="&#x1ef3;" horiz-adv-x="570" 
d="M352 582h-96l-135 160h135zM236 56l-221 441h126l155 -326l143 326h120l-341 -742h-118z" />
    <glyph glyph-name="uni2000" unicode="&#x2000;" horiz-adv-x="526" 
 />
    <glyph glyph-name="uni2001" unicode="&#x2001;" horiz-adv-x="1053" 
 />
    <glyph glyph-name="uni2002" unicode="&#x2002;" horiz-adv-x="526" 
 />
    <glyph glyph-name="uni2003" unicode="&#x2003;" horiz-adv-x="1053" 
 />
    <glyph glyph-name="uni2004" unicode="&#x2004;" horiz-adv-x="351" 
 />
    <glyph glyph-name="uni2005" unicode="&#x2005;" horiz-adv-x="263" 
 />
    <glyph glyph-name="uni2006" unicode="&#x2006;" horiz-adv-x="175" 
 />
    <glyph glyph-name="uni2007" unicode="&#x2007;" horiz-adv-x="175" 
 />
    <glyph glyph-name="uni2008" unicode="&#x2008;" horiz-adv-x="131" 
 />
    <glyph glyph-name="uni2009" unicode="&#x2009;" horiz-adv-x="210" 
 />
    <glyph glyph-name="uni200A" unicode="&#x200a;" horiz-adv-x="58" 
 />
    <glyph glyph-name="uni2010" unicode="&#x2010;" horiz-adv-x="432" 
d="M367 359v-113h-302v113h302z" />
    <glyph glyph-name="uni2011" unicode="&#x2011;" horiz-adv-x="432" 
d="M367 359v-113h-302v113h302z" />
    <glyph glyph-name="figuredash" unicode="&#x2012;" horiz-adv-x="432" 
d="M367 359v-113h-302v113h302z" />
    <glyph glyph-name="endash" unicode="&#x2013;" horiz-adv-x="563" 
d="M495 355v-106h-427v106h427z" />
    <glyph glyph-name="emdash" unicode="&#x2014;" horiz-adv-x="948" 
d="M880 355v-106h-812v106h812z" />
    <glyph glyph-name="quoteleft" unicode="&#x2018;" horiz-adv-x="267" 
d="M202 736v-52q-37 -7 -61 -37q-25 -30 -25 -67q10 7 28 7q30 0 50 -20q19 -20 19 -51q0 -33 -22 -52q-23 -21 -55 -21q-42 0 -64 29q-23 29 -23 71q0 72 41 127q42 56 112 66z" />
    <glyph glyph-name="quoteright" unicode="&#x2019;" horiz-adv-x="268" 
d="M70 441v52q37 7 61 37q23 29 25 67q-10 -7 -28 -7q-30 0 -50 20q-19 20 -19 51q0 32 22 53q23 20 55 20q42 0 64 -29q23 -29 23 -70q0 -73 -41 -128q-40 -55 -112 -66z" />
    <glyph glyph-name="quotesinglbase" unicode="&#x201a;" horiz-adv-x="279" 
d="M69 -152v52q37 7 61 37q23 28 25 67q-12 -7 -28 -7q-31 0 -50 21q-20 20 -20 50q0 32 23 53q21 20 55 20q42 0 64 -29q23 -29 23 -71q2 -72 -40.5 -127.5t-112.5 -65.5z" />
    <glyph glyph-name="quotedblleft" unicode="&#x201c;" horiz-adv-x="476" 
d="M202 736v-52q-37 -7 -61 -37q-25 -30 -25 -67q10 7 28 7q31 0 50 -20t19 -52q0 -31 -22 -52q-23 -20 -55 -20q-42 0 -64 29q-23 29 -23 71q0 72 41 127q42 56 112 66zM411 736v-52q-37 -7 -61 -37t-25 -67q10 7 28 7q31 0 50.5 -20t19.5 -52q0 -31 -23 -52
q-23 -20 -55 -20q-42 0 -64 29q-22 28 -22 71q0 74 41 127q40 56 111 66z" />
    <glyph glyph-name="quotedblright" unicode="&#x201d;" horiz-adv-x="478" 
d="M70 441v52q37 7 61 37q23 29 25 67q-10 -7 -28 -7q-30 0 -50 20q-19 20 -19 51q0 32 22 53q23 20 55 20q42 0 64 -29q23 -29 23 -70q0 -73 -41 -128q-40 -55 -112 -66zM280 441v52q38 8 60 37q25 31 25 67q-10 -7 -27 -7q-31 0 -50.5 20t-19.5 51q0 32 22 53q23 20 55 20
q42 0 65 -29q22 -28 22 -70q0 -75 -41 -128q-41 -55 -111 -66z" />
    <glyph glyph-name="quotedblbase" unicode="&#x201e;" horiz-adv-x="485" 
d="M68 -151v52q37 7 61 37q23 28 25 67q-10 -7 -28 -7q-30 0 -50 21q-20 20 -20 50q0 32 23 53q23 20 55 20q42 0 64 -29q23 -29 23 -71q2 -72 -40.5 -127.5t-112.5 -65.5zM276 -151v52q38 8 61 37q24 28 24 67q-8 -7 -27 -7q-30 0 -50 21q-20 19 -20 50q0 32 23 53
q23 20 55 20q41 0 64 -29t23 -71q1 -72 -41.5 -127.5t-111.5 -65.5z" />
    <glyph glyph-name="dagger" unicode="&#x2020;" horiz-adv-x="585" 
d="M235 0v393h-179v104h179v192h114v-192h180v-104h-180v-393h-114z" />
    <glyph glyph-name="daggerdbl" unicode="&#x2021;" horiz-adv-x="585" 
d="M349 0v-192h-114v192h-179v104h179v289h-179v104h179v192h114v-192h180v-104h-180v-289h180v-104h-180z" />
    <glyph glyph-name="bullet" unicode="&#x2022;" horiz-adv-x="458" 
d="M229 177q-67 0 -114 48q-48 47 -48 115q0 67 48 115q46 49 114 49q66 0 114 -49q47 -47 47 -115q0 -69 -47 -115q-47 -48 -114 -48z" />
    <glyph glyph-name="ellipsis" unicode="&#x2026;" horiz-adv-x="838" 
d="M55 76q0 35 24 59q26 24 57 24q32 0 58 -24q23 -23 23 -59q0 -34 -23 -56q-24 -24 -58 -24q-33 0 -57 24q-24 22 -24 56zM337 76q0 35 24 59q26 24 58 24q31 0 57 -24q24 -24 24 -59q0 -34 -24 -56q-24 -24 -57 -24q-34 0 -58 24q-24 22 -24 56zM620 76q0 35 24 59
q26 24 57 24q33 0 59 -24q23 -25 23 -59q0 -33 -23 -56q-24 -24 -59 -24q-33 0 -57 24q-24 23 -24 56z" />
    <glyph glyph-name="uni202F" unicode="&#x202f;" horiz-adv-x="210" 
 />
    <glyph glyph-name="perthousand" unicode="&#x2030;" horiz-adv-x="1189" 
d="M315 688q48 -48 48 -116t-48 -117q-48 -48 -116 -48q-67 0 -117 48q-48 49 -48 117t48 116q49 48 117 48t116 -48zM115 0l475 729h109l-474 -729h-110zM249 522q21 21 21 50t-21 50t-50 21q-31 0 -50 -21q-21 -21 -21 -50t21 -50q19 -21 50 -21q29 0 50 21zM732 276
q48 -48 48 -116q0 -69 -48 -117t-117 -48q-68 0 -116 48t-48 117q0 68 48 116t116 48q69 0 117 -48zM665 110q21 18 21 50q0 30 -21 50q-20 20 -50 20q-29 0 -50 -20q-20 -20 -20 -50q0 -31 20 -50q21 -21 50 -21q30 0 50 21zM1107 276q48 -48 48 -116q0 -69 -48 -117
t-117 -48q-68 0 -116 48t-48 117q0 68 48 116t116 48q69 0 117 -48zM1041 110q20 19 20 50q0 30 -20 50t-51 20q-30 0 -50 -20t-20 -50q0 -31 20 -50q20 -21 50 -21q31 0 51 21z" />
    <glyph glyph-name="guilsinglleft" unicode="&#x2039;" horiz-adv-x="358" 
d="M306 423l-146 -143l146 -142l-65 -63l-208 205l209 206z" />
    <glyph glyph-name="guilsinglright" unicode="&#x203a;" horiz-adv-x="358" 
d="M198 280l-145 143l64 63l208 -206l-208 -205l-65 63z" />
    <glyph glyph-name="uni203D" unicode="&#x203d;" horiz-adv-x="534" 
d="M147 488l-110 4q-2 15 -2 39q0 64 33 110q32 48 86 74q55 25 113 25q55 0 108 -24q52 -22 87 -68q35 -47 35 -103q0 -104 -98 -174q-41 -28 -63 -55q-32 -38 -32 -91h-101l-9 310h114q-2 -31 -3 -108q78 59 78 115q0 44 -35 71q-36 27 -81 27q-53 0 -87 -36
q-35 -37 -35 -89q0 -7 2 -27zM202 15q-22 22 -22 51q0 30 22 52t51 22q28 0 52 -22q21 -21 21 -52q0 -30 -21 -51t-52 -21q-30 0 -51 21z" />
    <glyph glyph-name="uni2042" unicode="&#x2042;" horiz-adv-x="852" 
d="M502 384l-77 104l-75 -103l-59 42l74 103l-120 40l23 69l120 -40v130h75v-130l121 40l23 -69l-120 -40l73 -103zM288 -16l-76 103l-76 -103l-58 43l73 102l-120 40l23 69l120 -39v129h76v-129l120 39l24 -69l-121 -40l74 -102zM715 -16l-76 103l-75 -103l-59 43l74 102
l-121 40l23 69l120 -39v129h76v-129l120 39l24 -69l-121 -40l74 -102z" />
    <glyph glyph-name="fraction" unicode="&#x2044;" horiz-adv-x="594" 
d="M6 0l475 730h109l-474 -730h-110z" />
    <glyph glyph-name="uni2051" unicode="&#x2051;" horiz-adv-x="460" 
d="M306 384l-76 104l-75 -103l-59 42l74 103l-121 40l23 69l120 -40v130h76v-130l120 40l23 -69l-120 -40l74 -103zM306 -16l-76 103l-75 -103l-59 43l74 102l-121 40l23 69l120 -39v129h76v-129l120 39l23 -69l-120 -40l74 -102z" />
    <glyph glyph-name="uni205F" unicode="&#x205f;" horiz-adv-x="263" 
 />
    <glyph glyph-name="lira" unicode="&#x20a4;" horiz-adv-x="641" 
d="M495 206l110 -10q0 -86 -52 -141t-136 -55h-359v99q44 20 78 61q31 35 39 85h-112v76h105q-9 34 -25 74h-80v76h54q-7 28 -7 58q0 92 66.5 151t160.5 59q94 2 159 -53.5t64 -140.5l-111 -19q0 44 -31 77q-31 31 -80 31q-47 0 -78 -31q-32 -30 -32 -77q0 -23 8 -55h225
v-76h-197q17 -43 25 -74h172v-76h-169q-10 -82 -87 -142h192q46 0 73 32q25 29 25 71z" />
    <glyph glyph-name="uni20A9" unicode="&#x20a9;" horiz-adv-x="1126" 
d="M1079 400v-68h-112l-101 -332h-130l-102 334h-146l-103 -334h-128l-100 332h-110v68h89l-99 329h123l95 -331h141l103 331h127l103 -331h143l97 331h119l-100 -329h91zM562 570h-1l-53 -172h106zM274 334l50 -172l53 172h-103zM853 334h-104l53 -172z" />
    <glyph glyph-name="dong" unicode="&#x20ab;" horiz-adv-x="665" 
d="M557 585v-585h-108v78q-18 -30 -52 -51q-33 -19 -62 -27q-32 -8 -53 -8q-67 0 -126 37q-55 36 -87 95q-31 60 -31 125q0 98 65 176q70 82 182 82q40 0 88 -21q49 -20 73 -60v159h-146v81h146v92h111v-92h61v-81h-61zM192 138q42 -45 107 -45q66 0 108 45q41 45 41 111
q0 67 -41 112q-42 45 -108 45t-108 -45q-41 -47 -41 -112q0 -66 42 -111zM557 -81v-99h-501v99h501z" />
    <glyph glyph-name="Euro" unicode="&#x20ac;" horiz-adv-x="859" 
d="M474 -9q-163 0 -273 119q-54 60 -78 139h-83v80h69q-2 22 -2 33q0 18 3 41h-70v80h86q35 114 134.5 186.5t217.5 70.5q117 0 201 -55q37 -25 66 -57q54 -59 70 -127l-112 -39q-9 40 -37 79q-18 26 -41 44q-56 47 -148 47q-73 0 -137 -42q-63 -40 -90 -107h297l-26 -80
h-291q-2 -26 -2 -37t2 -37h273l-26 -80h-226q29 -71 91 -109q60 -41 134 -41q83 0 142 45q25 20 43 44q30 39 44 84l112 -39q-26 -91 -100 -154q-66 -56 -145 -76q-48 -12 -98 -12z" />
    <glyph glyph-name="uni20AE" unicode="&#x20ae;" horiz-adv-x="657" 
d="M389 455l191 67v-85l-191 -67v-78l191 68v-85l-191 -68v-207h-114v166l-191 -68v85l191 68v78l-191 -68v85l191 68v209h-232v106h578v-106h-232v-168z" />
    <glyph glyph-name="uni20B1" unicode="&#x20b1;" horiz-adv-x="736" 
d="M704 461h-70q-15 -85 -84 -137q-68 -54 -181 -54h-131v-270h-114v461h-76v76h76v192h258q119 0 183 -59q60 -54 70 -133h69v-76zM238 535h280q-22 88 -144 88h-136v-88zM238 375h136q58 0 94.5 24t48.5 64h-279v-88z" />
    <glyph glyph-name="uni20B4" unicode="&#x20b4;" horiz-adv-x="699" 
d="M49 485h417q12 23 12 51q0 45 -38 74q-37 28 -99 28q-34 0 -69 -17q-37 -17 -62 -51l-88 62q37 52 96 79q59 28 127 28q109 0 179 -58q69 -59 69 -151q0 -20 -5 -45h60v-81h-599v81zM648 259h-419q-22 -25 -22 -61q0 -47 38 -76q38 -28 106 -28q109 0 172 81l89 -62
q-88 -121 -267 -121q-127 0 -193 63q-62 59 -62 141q0 34 9 63h-50v81h599v-81z" />
    <glyph glyph-name="uni20B8" unicode="&#x20b8;" horiz-adv-x="664" 
d="M621 624h-578v105h578v-105zM275 0v446h-232v105h578v-105h-232v-446h-114z" />
    <glyph glyph-name="uni20B9" unicode="&#x20b9;" horiz-adv-x="590" 
d="M548 635h-165q49 -32 65 -89h100v-88h-98q-24 -118 -141 -158l158 -300h-127l-140 277l-145 1v102h142q108 0 135 78h-277v88h277q-23 77 -135 77h-142v106h493v-94z" />
    <glyph glyph-name="uni20BA" unicode="&#x20ba;" horiz-adv-x="684" 
d="M540 317l110 -12q-10 -140 -113 -222.5t-287 -82.5h-90v255l-103 -50v90l103 49v80l-103 -49v89l103 49v216h114v-162l226 108v-89l-226 -108v-80l226 108v-89l-226 -108v-206q133 3 196 66q58 58 70 148z" />
    <glyph glyph-name="uni20BD" unicode="&#x20bd;" horiz-adv-x="685" 
d="M261 197h199v-86h-199v-111h-115v111h-89v86h89v73h-89v105h89v354h249q155 0 218 -98q37 -55 37 -129q0 -96 -67 -163q-71 -69 -201 -69h-121v-73zM261 375h124q81 0 117 41q32 36 32 84q0 50 -34 86.5t-115 36.5h-124v-248z" />
    <glyph glyph-name="uni2113" unicode="&#x2113;" horiz-adv-x="426" 
d="M206 240v-63q0 -97 86 -97q50 0 87 20v-88q-35 -21 -98 -21q-80 0 -126 43q-46 44 -46 121v43q-44 -16 -74 -23v90q43 12 74 27v238q0 72 38 119q39 47 108 47q71 0 108 -42q37 -45 37 -116q0 -87 -56 -167q-56 -79 -138 -131zM256 610q-36 0 -46 -41q-4 -15 -4 -35v-185
q98 74 98 192q0 69 -48 69z" />
    <glyph glyph-name="uni2116" unicode="&#x2116;" horiz-adv-x="1226" 
d="M708 0h-128l-374 558v-558h-113v729h132l370 -555v555h113v-729zM996 273q-76 0 -129 52q-53 50 -53 127q0 78 53 128q53 51 129 51q75 0 129 -51q53 -53 53 -128q0 -76 -53 -127q-52 -52 -129 -52zM1053 510q-23 24 -57 24t-57 -24q-23 -23 -23 -58q0 -34 23 -57
q23 -24 57 -24t57 24q22 22 22 57q0 36 -22 58zM827 192h341v-97h-341v97z" />
    <glyph glyph-name="trademark" unicode="&#x2122;" horiz-adv-x="991" 
d="M249 309h-90v339h-123v81h335v-81h-122v-339zM822 640l-114 -331h-60l-116 325h-5v-325h-84v420h132l103 -289l99 289h137v-420h-87v331h-5z" />
    <glyph glyph-name="estimated" unicode="&#x212e;" horiz-adv-x="807" 
d="M410 -11q-168 0 -266 111q-95 109 -95 270q0 157 100 262q46 49 114 79q70 29 147 29q106 0 188 -49q84 -50 128 -133q45 -84 45 -186v-8h-563v-236q36 -37 92 -60q54 -22 110 -22q192 0 269 155l49 -27q-39 -86 -122 -135q-85 -50 -196 -50zM614 421v184q-37 38 -93 59
q-57 20 -112 20q-119 0 -201 -78v-185h406z" />
    <glyph glyph-name="uni2153" unicode="&#x2153;" horiz-adv-x="940" 
d="M144 0l475 730h109l-474 -730h-110zM169 631l-97 -57l-42 70l141 85h94v-424h-96v326zM886 131q0 -41 -23 -75q-24 -33 -60 -51q-35 -16 -77 -16q-64 0 -109 38q-47 37 -50 98l90 15q1 -29 20 -48q19 -18 48 -18q28 0 47.5 16.5t19.5 42.5q0 25 -20 40q-19 15 -44 15
q-15 0 -30 -5l-41 64l113 94h-192v82h303v-78l-103 -87h2q48 -6 76 -43q30 -36 30 -84z" />
    <glyph glyph-name="uni2154" unicode="&#x2154;" horiz-adv-x="1016" 
d="M201 739q68 0 112 -41q42 -41 42 -98q0 -38 -23.5 -74t-63.5 -60l-67 -40q-33 -20 -41 -37h198v-84h-315v26q0 101 106 162l59 34q55 31 55 72q0 24 -17.5 40t-46.5 16q-28 0 -47 -19q-18 -20 -18 -48l-89 14q3 56 45 97q45 40 111 40zM225 0l475 730h109l-474 -730h-110
zM972 131q0 -43 -23 -75q-25 -34 -59 -51q-36 -16 -78 -16q-62 0 -109 38t-50 98l91 15q0 -29 20 -48q20 -18 48 -18t47 16.5t19 42.5q0 25 -19 40q-21 15 -45 15q-15 0 -30 -5l-41 64l113 94h-192v82h304v-78l-104 -87h2q48 -6 77 -43t29 -84z" />
    <glyph glyph-name="oneeighth" unicode="&#x215b;" horiz-adv-x="907" 
d="M144 0l475 730h109l-474 -730h-110zM169 631l-97 -57l-42 70l141 85h94v-424h-96v326zM851 310q0 -29 -21 -56q-20 -26 -50 -37q38 -12 59.5 -38t21.5 -62q0 -64 -54 -97q-50 -29 -112 -29q-66 0 -116 32t-50 94q0 36 22 62t59 38q-28 10 -49 37t-21 56q0 39 25 67
q26 30 59 41q33 13 71 13q84 0 131 -54q25 -28 25 -67zM760 303q0 22 -20 36q-21 12 -45 12q-25 0 -44 -12q-21 -13 -21 -36t21 -35q23 -13 44 -13q22 0 45 13q20 12 20 35zM746 85q23 14 23 39q0 24 -23 38t-50.5 14t-50.5 -14q-24 -14 -24 -38q0 -26 24 -39q51 -31 101 0z
" />
    <glyph glyph-name="threeeighths" unicode="&#x215c;" horiz-adv-x="925" 
d="M171 0l475 730h109l-474 -730h-110zM356 438q0 -64 -48 -103q-47 -40 -112 -40q-62 0 -109 38q-47 37 -50 98l90 15q2 -30 20 -47q19 -19 48 -19t48 16.5t19 43.5q0 24 -19 39t-45 15q-17 0 -30 -5l-41 64l113 94h-192v82h303v-78l-103 -87h2q45 -6 76 -43q30 -36 30 -83
zM889 117q0 -64 -55 -97q-50 -29 -112 -29q-66 0 -116 32t-50 94q0 73 82 100q-30 11 -50 37q-21 27 -21 56q0 39 25 67q26 30 59 41q35 13 72 13q83 0 131 -54q24 -29 24 -67q0 -29 -21 -56q-20 -26 -50 -37q82 -27 82 -100zM787 303q0 22 -20 36q-21 12 -45 12t-44 -12
q-20 -14 -20 -36q0 -23 20 -35q23 -13 45 -13q21 0 44 13q20 12 20 35zM773 85q23 13 23 39q0 25 -23 38q-51 29 -101 0q-23 -13 -23 -38q0 -26 23 -39q51 -30 101 0z" />
    <glyph glyph-name="fiveeighths" unicode="&#x215d;" horiz-adv-x="943" 
d="M177 0l475 730h109l-473 -730h-111zM357 446q0 -64 -48 -107q-49 -44 -113 -44q-61 -2 -110.5 37.5t-51.5 99.5l90 14q2 -29 22 -48t49 -19q30 0 50 19q20 20 20 48q0 30 -19.5 48t-49.5 18q-37 0 -64 -30l-79 28l47 219h242v-82h-176l-19 -86q32 23 76 23q59 0 97 -39
q37 -38 37 -99zM904 117q0 -63 -54 -97q-50 -29 -112 -29q-66 0 -116 32t-50 94q0 36 22 62t59 38q-28 10 -49 37q-22 28 -22 56q0 39 25 67q28 30 60 41q33 13 71 13q84 0 131 -54q25 -30 25 -67q0 -29 -21 -56q-20 -26 -50 -37q37 -12 59 -38t22 -62zM803 303q0 23 -21 36
q-20 12 -44 12t-44 -12q-21 -13 -21 -36t21 -35q21 -13 44 -13t44 13q21 12 21 35zM789 85q23 14 23 39q0 24 -23 38q-52 29 -102 0q-23 -14 -23 -38q0 -26 24 -39q50 -30 101 0z" />
    <glyph glyph-name="seveneighths" unicode="&#x215e;" horiz-adv-x="858" 
d="M95 0l475 730h109l-474 -730h-110zM250 647h-213v82h317v-82l-181 -342h-104zM811 310q0 -29 -21 -56q-20 -26 -50 -37q38 -12 59.5 -38t21.5 -62q0 -64 -54 -97q-50 -29 -112 -29q-66 0 -116 32t-50 94q0 36 22 62t59 38q-28 10 -49 37t-21 56q0 39 25 67q26 30 59 41
q33 13 71 13q84 0 131 -54q25 -28 25 -67zM720 303q0 22 -20 36q-21 12 -45 12q-25 0 -44 -12q-21 -13 -21 -36t21 -35q23 -13 44 -13q22 0 45 13q20 12 20 35zM706 85q23 14 23 39q0 24 -23 38t-50.5 14t-50.5 -14q-24 -14 -24 -38q0 -26 24 -39q51 -31 101 0z" />
    <glyph glyph-name="arrowleft" unicode="&#x2190;" horiz-adv-x="618" 
d="M288 639l66 -61q-79 -86 -174 -184h406v-109h-406q16 -16 174 -184l-66 -61l-270 291v17z" />
    <glyph glyph-name="arrowup" unicode="&#x2191;" horiz-adv-x="618" 
d="M609 354l-62 -66q-107 98 -184 173v-406h-109v406q-111 -107 -184 -173l-61 66l291 269h17z" />
    <glyph glyph-name="arrowright" unicode="&#x2192;" horiz-adv-x="618" 
d="M330 40l-66 61q41 44 173 184h-405v109h405q-72 74 -173 184l66 61l270 -291v-17z" />
    <glyph glyph-name="arrowdown" unicode="&#x2193;" horiz-adv-x="618" 
d="M9 325l62 66q156 -147 184 -173v405h109v-405q100 95 183 173l62 -66l-292 -270h-16z" />
    <glyph glyph-name="uni2196" unicode="&#x2196;" horiz-adv-x="618" 
d="M519 557l3 -90q-163 -6 -252 -7l286 -287l-77 -77l-286 286q0 -7 -1 -44t-3 -92t-4 -116l-90 3l15 397l12 12z" />
    <glyph glyph-name="uni2197" unicode="&#x2197;" horiz-adv-x="618" 
d="M523 133l-90 -3q-6 157 -8 252l-287 -286l-77 77l287 287q-94 1 -252 7l3 90l396 -15l12 -12z" />
    <glyph glyph-name="uni2198" unicode="&#x2198;" horiz-adv-x="618" 
d="M98 96l-3 90q139 5 252 7l-286 287l77 77l287 -287q1 90 7 253l90 -3l-15 -397l-12 -12z" />
    <glyph glyph-name="uni2199" unicode="&#x2199;" horiz-adv-x="618" 
d="M95 520l90 3q8 -221 8 -253l287 287l77 -77l-287 -287q112 -2 252 -7l-2 -90l-397 15l-12 12z" />
    <glyph glyph-name="uni21A9" unicode="&#x21a9;" horiz-adv-x="1026" 
d="M675 140h-485q86 -87 174 -183l-66 -62l-270 292v17l270 291l66 -61q-72 -78 -174 -184h481q88 0 144 50q56 51 56 133q0 85 -54 135q-53 47 -148 49h-186v108h192q140 0 225 -83q84 -82 84 -209t-84 -209q-86 -84 -225 -84z" />
    <glyph glyph-name="uni21B0" unicode="&#x21b0;" horiz-adv-x="788" 
d="M425 434h-234q85 -88 173 -184l-66 -61l-269 291v17l269 292l66 -62q-103 -111 -173 -183h247q142 0 218 -66t76 -191v-287h-112v275q0 80 -52 120q-52 39 -143 39z" />
    <glyph glyph-name="uni21B1" unicode="&#x21b1;" horiz-adv-x="788" 
d="M597 434h-234q-91 0 -143 -39q-51 -39 -51 -120v-275h-114v287q0 125 77 191q76 66 218 66h247q-123 128 -173 183l66 62l269 -292v-17l-269 -291l-66 61q47 53 173 184z" />
    <glyph glyph-name="uni21B2" unicode="&#x21b2;" horiz-adv-x="788" 
d="M191 295h234q91 0 143 40q52 38 52 119v275h112v-287q0 -124 -76 -190t-218 -66h-247q75 -77 173 -184l-66 -62l-269 292v17l269 291l66 -61q-88 -96 -173 -184z" />
    <glyph glyph-name="uni21B3" unicode="&#x21b3;" horiz-adv-x="788" 
d="M363 295h234q-148 156 -173 184l66 61l269 -291v-17l-269 -292l-66 62q101 110 173 184h-247q-142 0 -218 66q-77 66 -77 190v287h114v-275q0 -82 51 -119q52 -40 143 -40z" />
    <glyph glyph-name="uni21B4" unicode="&#x21b4;" horiz-adv-x="854" 
d="M517 25l-292 270l62 65q74 -67 183 -172v233q0 56 -7 90q-8 38 -34 67q-39 41 -140 41h-253v110h264q184 0 244 -110q36 -68 36 -184v-247q127 122 184 172l61 -65l-291 -270h-17z" />
    <glyph glyph-name="partialdiff" unicode="&#x2202;" horiz-adv-x="616" 
d="M284 -9q-103 0 -172 67q-70 68 -70 177q0 104 72 166q69 61 168 61q95 0 171 -57q-15 113 -68 173t-140 60q-75 0 -140 -32l-39 87q42 23 92 35q58 12 96 12q92 0 159.5 -45t104.5 -124q48 -97 48 -231q0 -150 -69 -246q-72 -103 -213 -103zM308 369q-63 0 -108 -37
t-45 -106q0 -59 41 -96q42 -39 94 -39q81 0 125 71q40 69 40 148q-26 29 -68 44q-44 15 -79 15z" />
    <glyph glyph-name="uni2206" unicode="&#x2206;" horiz-adv-x="788" 
d="M462 729l295 -729h-727l296 729h136zM598 103l-205 512l-204 -512h409z" />
    <glyph glyph-name="product" unicode="&#x220f;" horiz-adv-x="724" 
d="M453 0v623h-181v-623h-115v623h-123v106h656v-106h-123v-623h-114z" />
    <glyph glyph-name="summation" unicode="&#x2211;" horiz-adv-x="595" 
d="M543 0h-499v105l259 265l-248 257v102h488v-103h-344l256 -256l-264 -267h352v-103z" />
    <glyph glyph-name="minus" unicode="&#x2212;" horiz-adv-x="587" 
d="M520 393v-103h-453v103h453z" />
    <glyph glyph-name="radical" unicode="&#x221a;" horiz-adv-x="715" 
d="M368 129l235 763h103l-275 -892h-126l-175 479h-113v94h200z" />
    <glyph glyph-name="infinity" unicode="&#x221e;" horiz-adv-x="940" 
d="M688 101q-24 0 -56 10q-12 3 -27 12q-11 6 -25 13q-19 13 -25 18q-3 3 -7 6t-6.5 5l-5 4t-3.5 3q-8 6 -23 21q-11 10 -20 19l-3.5 3.5t-7.5 7t-10 9.5l-19 -19q-7 -6 -14 -12.5t-7 -7.5q-4 -3 -19 -18q-10 -8 -22 -17l-20 -15q-16 -11 -23 -14q-14 -7 -23 -11
q-15 -8 -26 -9q-32 -8 -56 -8q-85 0 -137 58q-53 58 -53 142q0 85 57 145q57 58 143 58q34 0 72 -15q8 -3 65 -39q9 -7 30 -26q24 -22 27 -25l26 -27q59 58 74 69q67 56 134 62q7 1 21 1q86 0 138 -58t52 -145q0 -85 -58 -142q-57 -58 -143 -58zM252 405q-41 0 -69 -31
t-28 -73q0 -40 27 -70t68 -30q27 0 65 20q11 5 30 23q8 6 16.5 13.5t9.5 8.5l26 26l8 8l-3.5 3.5t-4.5 5t-5.5 6.5t-6.5 7l-24 24q-2 2 -9.5 9t-13.5 12q-25 22 -55 32q-17 6 -31 6zM691 405q-20 1 -60 -17q-4 -2 -35 -25q-9 -7 -17 -16q-8 -7 -15 -14l-16 -16l-14 -14
l21 -21q4 -5 9 -9.5t9.5 -9l5.5 -5.5q9 -9 24 -20q24 -21 55 -31q15 -6 30 -6q41 0 68 30q28 29 28 70q0 42 -26 73q-27 31 -67 31z" />
    <glyph glyph-name="integral" unicode="&#x222b;" horiz-adv-x="381" 
d="M246 513v-531q0 -113 -57 -171t-164 -58h-12v101q57 2 87 26q34 29 34 103v530q0 110 57.5 168t163.5 58h12v-100q-56 -3 -87 -25q-34 -27 -34 -101z" />
    <glyph glyph-name="uni2236" unicode="&#x2236;" horiz-adv-x="305" 
d="M71 504q0 34 24 58t57 24q35 0 58 -23q24 -24 24 -59q0 -33 -24 -57q-23 -23 -58 -23q-33 0 -57 24t-24 56zM71 157q0 35 24 59t57 24q34 0 58 -24t24 -59q0 -33 -24 -57q-25 -23 -58 -23t-57 24t-24 56z" />
    <glyph glyph-name="approxequal" unicode="&#x2248;" horiz-adv-x="586" 
d="M391 369q-23 0 -53 11q-30 13 -50 27q-23 14 -47 26q-29 12 -46 12q-41 0 -72 -42l-60 57q48 84 132 84q30 0 60 -12q27 -9 50 -26q35 -21 45 -26q25 -11 41 -11q42 0 73 41l60 -56q-48 -85 -133 -85zM391 136q-25 0 -53 12q-22 8 -50 26q-16 11 -47 26q-26 12 -46 12
q-41 0 -72 -42l-60 57q48 84 132 84q29 0 60 -11q25 -10 50 -26q28 -18 45 -26q24 -12 41 -12q41 0 73 41l60 -57q-50 -84 -133 -84z" />
    <glyph glyph-name="notequal" unicode="&#x2260;" horiz-adv-x="584" 
d="M301 262h216v-103h-267l-60 -124l-78 40l42 84h-87v103h138l79 158h-217v102h266l62 123l78 -35l-43 -88h87v-102h-137z" />
    <glyph glyph-name="lessequal" unicode="&#x2264;" horiz-adv-x="634" 
d="M560 635v-104l-361 -134l361 -135v-106l-499 192v96zM561 122v-99h-500v99h500z" />
    <glyph glyph-name="greaterequal" unicode="&#x2265;" horiz-adv-x="634" 
d="M436 395l-362 135v105l499 -191v-96l-499 -192v105zM573 122v-99h-500v99h500z" />
    <glyph glyph-name="filledbox" unicode="&#x25a0;" horiz-adv-x="845" 
d="M754 0h-660v662h660v-662z" />
    <glyph glyph-name="uni25A1" unicode="&#x25a1;" horiz-adv-x="845" 
d="M754 662v-662h-660v662h660zM185 88h475v486h-475v-486z" />
    <glyph glyph-name="triagup" unicode="&#x25b2;" horiz-adv-x="780" 
d="M392 680l388 -680h-780z" />
    <glyph glyph-name="uni25B3" unicode="&#x25b3;" horiz-adv-x="780" 
d="M774 0h-767l383 670zM615 89l-225 398l-226 -398h451z" />
    <glyph glyph-name="lozenge" unicode="&#x25ca;" horiz-adv-x="666" 
d="M6 365l271 364h113l270 -364l-270 -365h-113zM333 113l185 255l-185 249l-185 -251z" />
    <glyph glyph-name="circle" unicode="&#x25cb;" horiz-adv-x="757" 
d="M379 -13q-72 0 -134 28q-66 28 -110 73q-47 45 -74 110q-27 63 -27 134t27 134q26 62 74 110q45 47 110 74q63 27 134 27q69 0 134 -27q63 -27 110 -74q47 -49 73 -110q27 -63 27 -134t-27 -134q-27 -64 -73 -110q-45 -45 -110 -73q-63 -28 -134 -28zM379 588
q-103 2 -179.5 -75t-74.5 -181q-2 -104 74.5 -181t179.5 -75q70 0 126 34q60 35 92 94q33 59 33 128q0 68 -33 128q-33 58 -92 93q-58 35 -126 35z" />
    <glyph glyph-name="uni25CF" unicode="&#x25cf;" horiz-adv-x="757" 
d="M61 198q-27 63 -27 133.5t27 134.5q26 61 73 110q48 48 110 74q63 27 134 27t134 -27q62 -26 110 -74t74 -110q27 -63 27 -134t-27 -134q-27 -65 -74 -110q-46 -46 -110 -73q-62 -28 -134 -28t-134 28q-64 27 -110 73t-73 110z" />
    <glyph glyph-name="uni25FC" unicode="&#x25fc;" horiz-adv-x="498" 
d="M0 0v498h498v-498h-498z" />
    <glyph glyph-name="uni2605" unicode="&#x2605;" horiz-adv-x="780" 
d="M758 412l-228 -165l87 -267l-227 165l-228 -163l88 265l-227 165h280l87 268l87 -268h281z" />
    <glyph glyph-name="uni2611" unicode="&#x2611;" horiz-adv-x="890" 
d="M754 0h-660v662h577l119 209l86 -51l-122 -212v-608zM455 91l-255 307l76 66l165 -201l180 312h-438v-489h479v363z" />
    <glyph glyph-name="uni2612" unicode="&#x2612;" horiz-adv-x="845" 
d="M94 662h660v-662h-660v662zM183 575v-489h479v489h-479zM276 115l-66 67l147 148l-147 147l67 67l146 -146l145 146l67 -67l-145 -147l145 -145l-67 -67l-145 145z" />
    <glyph glyph-name="uni2639" unicode="&#x2639;" horiz-adv-x="757" 
d="M379 -13q-72 0 -134 28q-66 28 -110 73q-47 45 -74 110q-27 63 -27 134t27 134q26 62 74 110q45 47 110 74q63 27 134 27q69 0 134 -27q63 -27 110 -74q47 -49 73 -110q27 -63 27 -134t-27 -134q-27 -64 -73 -110q-45 -45 -110 -73q-63 -28 -134 -28zM379 604
q-73 0 -136 -36q-63 -38 -98 -100q-36 -63 -36 -136q0 -74 36 -137q37 -63 98 -99q63 -36 136 -36q72 0 135 36q59 35 97 99q35 61 35 137q0 75 -35 136q-36 63 -97 100q-63 36 -135 36zM338 466q18 -18 18 -43q0 -27 -18 -43q-19 -19 -44 -19t-44 19q-18 16 -18 43
q0 25 18 43q19 19 44 19t44 -19zM506 466q18 -18 18 -43q0 -27 -18 -43q-18 -19 -43 -19q-26 0 -44 19q-18 16 -18 43q0 25 18 43q18 19 44 19q25 0 43 -19zM561 168h-72q-6 45 -38 69q-33 27 -72 27t-74 -27q-33 -26 -38 -69h-72q7 70 61 118q54 46 123 46q68 0 121 -47
q52 -44 61 -117z" />
    <glyph glyph-name="smileface" unicode="&#x263a;" horiz-adv-x="757" 
d="M379 -13q-72 0 -134 28q-66 28 -110 73q-47 45 -74 110q-27 63 -27 134t27 134q26 62 74 110q45 47 110 74q63 27 134 27q69 0 134 -27q63 -27 110 -74q47 -49 73 -110q27 -63 27 -134t-27 -134q-27 -64 -73 -110q-45 -45 -110 -73q-63 -28 -134 -28zM379 604
q-73 0 -136 -36q-63 -38 -98 -100q-36 -63 -36 -136q0 -74 36 -137q37 -63 98 -99q63 -36 136 -36q72 0 135 36q59 35 97 99q35 61 35 137q0 75 -35 136q-36 63 -97 100q-63 36 -135 36zM338 466q18 -18 18 -43q0 -27 -18 -43q-19 -19 -44 -19t-44 19q-18 16 -18 43
q0 25 18 43q19 19 44 19t44 -19zM506 466q18 -18 18 -43q0 -27 -18 -43q-18 -19 -43 -19q-26 0 -44 19q-18 16 -18 43q0 25 18 43q18 19 44 19q25 0 43 -19zM489 309h72q-9 -72 -61 -118t-121 -46q-71 0 -123 45q-54 48 -61 119h72q4 -43 38 -70q33 -26 74 -26q39 0 72 27
q32 25 38 69z" />
    <glyph glyph-name="invsmileface" unicode="&#x263b;" horiz-adv-x="757" 
d="M379 -13q-72 0 -134 28q-66 28 -110 73q-47 45 -74 110q-27 63 -27 134t27 134q26 62 74 110q45 47 110 74q63 27 134 27q69 0 134 -27q63 -27 110 -74q47 -49 73 -110q27 -63 27 -134t-27 -134q-27 -64 -73 -110q-45 -45 -110 -73q-63 -28 -134 -28zM338 380
q18 16 18 43q0 25 -18 43q-19 19 -44 19t-44 -19q-18 -18 -18 -43q0 -27 18 -43q19 -19 44 -19t44 19zM506 380q18 16 18 43q0 25 -18 43q-18 19 -43 19q-26 0 -44 -19q-18 -18 -18 -43q0 -27 18 -43q18 -19 44 -19q25 0 43 19zM561 309h-72q-6 -44 -38 -69q-33 -27 -72 -27
q-41 0 -74 26q-34 27 -38 70h-72q7 -71 61 -119q52 -45 123 -45q69 0 121 46t61 118z" />
    <glyph glyph-name="heart" unicode="&#x2665;" horiz-adv-x="811" 
d="M3 447q0 88 62 152q60 61 150 61q56 0 99 -26q45 -27 67 -73q23 48 68 74q44 25 101 25q89 0 148 -62q61 -62 61 -151q0 -56 -25 -115q-24 -54 -64 -106q-40 -50 -90 -94q-46 -41 -100 -81q-46 -31 -100 -64q-83 50 -165 116q-45 36 -81 75q-134 139 -131 269z" />
    <glyph glyph-name="uni2713" unicode="&#x2713;" horiz-adv-x="877" 
d="M85 351l204 -220l488 533l69 -69l-560 -607l-270 297z" />
    <glyph glyph-name="uni2715" unicode="&#x2715;" horiz-adv-x="703" 
d="M88 -2l-68 68l262 264l-262 263l69 67l261 -261l260 261l67 -67l-259 -263l265 -264l-68 -68l-265 264z" />
    <glyph glyph-name="uni2E18" unicode="&#x2e18;" horiz-adv-x="524" 
d="M326 483q21 -21 21 -52t-21 -52t-51 -21q-31 0 -52 21q-22 22 -22 52t22 52q21 21 52 21q30 0 51 -21zM380 9l111 -4q2 -30 2 -39q0 -62 -33 -110q-32 -47 -86 -73q-51 -25 -113 -25q-58 0 -108 23q-53 23 -87 69q-35 46 -35 103q0 103 98 173q40 28 63 55q32 38 32 91
h101l9 -310h-114q0 33 3 108q-78 -59 -78 -115q0 -44 35 -70q35 -28 80 -28q53 0 88 37t35 89q0 13 -3 26z" />
    <glyph glyph-name="uniE09D" unicode="&#xe09d;" horiz-adv-x="730" 
d="M563 399v-239q0 -33 18 -48.5t59 -15.5q18 0 45 4v-95q-38 -10 -80 -10q-77 0 -115 36t-38 123v245h-220v-399h-112v399h-95v98h95v58q0 109 55 159q52 46 129 46q42 0 62 -8v-94q-16 4 -40 4q-42 0 -70 -28q-24 -26 -24 -78v-59h220v154h111v-154h126v-98h-126z" />
    <glyph glyph-name="at.case" unicode="&#xf633;" horiz-adv-x="807" 
d="M580 179q-29 0 -61 16q-30 16 -43 42q-20 -27 -51 -42q-30 -15 -59 -15q-44 0 -78 23q-38 26 -54 59q-19 35 -19 73q-2 86 54 150t135 63q25 0 51 -12.5t38 -41.5l10 51h102l-39 -232q-9 -57 33 -57q39 0 76 49q35 49 35 116q0 110 -78 183q-79 74 -204 74
q-65 0 -122 -25q-58 -25 -101 -68q-43 -42 -69 -101q-26 -61 -26 -124q0 -125 82 -215q87 -92 231 -92q107 0 195 64l32 -50q-37 -33 -104 -54q-65 -22 -123 -22q-108 0 -195 49q-85 49 -133 133q-46 83 -46 186q0 77 30 148q32 71 82 121q51 51 121 81q70 29 146 29
q96 0 175 -40q77 -40 124 -113q45 -74 45 -164q0 -108 -58 -176q-56 -66 -134 -66zM414 451q-39 0 -66 -32q-27 -31 -27 -72q1 -28 19 -50q19 -22 50 -22q37 0 63 33q26 34 26 74q0 31 -18 50t-47 19z" />
    <glyph glyph-name="dollar.lowercase" unicode="&#xf653;" horiz-adv-x="467" 
d="M179 -95v93q-63 15 -96 56q-36 42 -40 82l95 25q8 -36 34.5 -57.5t65.5 -21.5q33 0 52 15.5t19 42.5q0 41 -59 55l-64 15q-64 15 -97.5 52.5t-33.5 89.5t34 93q33 41 90 56v92h106v-91q61 -13 95 -56q28 -36 34 -71l-94 -26q-7 31 -29.5 50t-60.5 19q-28 0 -48 -16
q-20 -15 -20 -40q0 -42 50 -52l68 -14q67 -15 104 -55t37 -95q0 -52 -35 -96q-36 -43 -101 -55v-90h-106z" />
    <glyph glyph-name="uniF730" unicode="&#xf730;" horiz-adv-x="604" 
d="M302 -9q-68 0 -130 34q-57 32 -93 93q-34 59 -34 131q-2 108 74.5 184t183.5 74q110 0 182 -72q75 -75 75 -184q2 -108 -74.5 -185t-183.5 -75zM302 406q-66 0 -106 -44q-39 -44 -39 -111q0 -66 40 -113q41 -47 106 -47q66 0 105 46q39 45 39 112t-39 112q-40 45 -106 45
z" />
    <glyph glyph-name="uniF731" unicode="&#xf731;" horiz-adv-x="371" 
d="M177 382l-113 -67l-49 82l165 100h110v-497h-113v382z" />
    <glyph glyph-name="uniF732" unicode="&#xf732;" horiz-adv-x="468" 
d="M231 507q82 0 132 -47q51 -46 51 -115q0 -95 -99 -154l-83 -49q-40 -24 -48 -44h232v-98h-371v30q0 69 50 129q30 34 76 61l69 40q65 38 65 84q0 25 -21 46q-20 19 -54 19t-55 -23q-21 -22 -23 -56l-103 17q2 66 53 113q50 47 129 47z" />
    <glyph glyph-name="uniF733" unicode="&#xf733;" horiz-adv-x="475" 
d="M422 159v-4q0 -68 -52 -116t-135 -48q-80 0 -133 47q-52 46 -55 112l107 17q0 -33 23 -54q22 -22 57 -22t56.5 18.5t21.5 46.5v3q0 26 -21 44q-20 17 -55 17q-22 0 -35 -5l-48 75l132 111h-231v96h363v-92l-122 -102h3q52 -7 88 -48q36 -42 36 -96z" />
    <glyph glyph-name="uniF734" unicode="&#xf734;" horiz-adv-x="514" 
d="M287 0v102h-252v119l224 276h137v-300h76v-95h-76v-102h-109zM287 197v191l-155 -191h155z" />
    <glyph glyph-name="uniF735" unicode="&#xf735;" horiz-adv-x="463" 
d="M417 167q1 -74 -56.5 -126t-132.5 -50q-103 0 -159 74q-29 38 -30 85l104 16q3 -34 26 -55.5t58 -21.5t58 22q24 21 24 56t-22.5 54.5t-58.5 19.5q-43 0 -74 -35l-93 33l55 258h282v-96h-205l-23 -103q39 28 90 28q70 0 113 -45q44 -46 44 -114z" />
    <glyph glyph-name="uniF736" unicode="&#xf736;" horiz-adv-x="485" 
d="M280 326q65 0 115 -44q48 -45 48 -114q0 -78 -54 -127q-56 -50 -141 -50q-64 1 -108 29t-65 75q-29 57 -29 129q-2 122 69.5 203.5t180.5 79.5q76 0 126 -25l-30 -88q-48 20 -90 20q-59 0 -102 -38q-44 -39 -48 -98q30 27 65 37q33 11 63 11zM159 161q0 -33 26 -55
t62 -22t61 22t25 55q0 36 -25 57q-25 22 -61 22q-37 0 -62 -21q-26 -22 -26 -58z" />
    <glyph glyph-name="uniF737" unicode="&#xf737;" horiz-adv-x="438" 
d="M286 401h-251v96h371v-96l-212 -401h-120z" />
    <glyph glyph-name="uniF738" unicode="&#xf738;" horiz-adv-x="486" 
d="M426 365q0 -36 -25 -65q-25 -31 -59 -43q44 -16 70 -46t26 -72q0 -75 -64 -114q-59 -34 -131 -34t-132 34q-63 38 -63 114q0 42 25.5 72.5t69.5 45.5q-35 13 -58 43q-25 29 -25 65q0 66 57 104t126 38t126 -38t57 -104zM298 314q25 16 25 44t-25 43q-56 34 -110 0
q-25 -15 -25 -43t25 -44q25 -15 54.5 -15t55.5 15zM319 110q15 15 15 36t-15 37q-29 28 -76 28q-48 0 -76 -28q-15 -17 -15 -37q0 -31 29 -47q29 -17 62 -17q47 0 76 28z" />
    <glyph glyph-name="uniF739" unicode="&#xf739;" horiz-adv-x="484" 
d="M208 172q-67 0 -116 46q-49 45 -49 113q0 81 53 128q53 48 141 48q91 0 140 -54q22 -25 36 -55q24 -57 24 -124q0 -126 -67 -203q-67 -79 -175 -79q-77 0 -128 24l28 90q48 -20 88 -20q61 0 104 39q44 38 48 97q-30 -29 -64 -39q-38 -11 -63 -11zM325 337q0 34 -26 57
q-25 22 -64 22q-35 0 -60 -22t-25 -57t25 -57q25 -23 60 -23q38 0 64 23t26 57z" />
    <glyph glyph-name="uniF8FF" unicode="&#xf8ff;" horiz-adv-x="1404" 
d="M1219 399v-399h-111v399h-96v98h96v58q0 110 55 159q50 46 128 46q42 0 63 -8v-94q-18 4 -40 4q-43 0 -70 -28q-25 -25 -25 -78v-59h130v-98h-130zM415 249q0 -100 69 -179q70 -78 176 -78q57 0 115 35q35 22 51 51v-78h109v758h-111v-332q-25 40 -74 60q-46 21 -87 21
q-113 0 -183 -82q-65 -78 -65 -176zM230 397v-237q0 -33 18 -48.5t59 -15.5q20 0 45 4v-95q-37 -10 -80 -10q-78 0 -115 36t-37 123v243h-97v100h97v154h110v-154h126v-100h-126zM825 249q0 -66 -41 -111q-42 -45 -107 -45q-66 0 -108 45q-42 46 -42 111t42 112
q42 45 107 45q66 0 108 -45q41 -45 41 -112z" />
    <glyph glyph-name="_1" horiz-adv-x="0" 
 />
    <glyph glyph-name="Aring.alt" horiz-adv-x="729" 
d="M363 792q-55 0 -95 38q-40 37 -40 91t40 91q41 38 95 38q55 0 96 -38q40 -38 40 -91t-40 -91q-41 -38 -96 -38zM363 981q-26 0 -45 -17q-18 -15 -18 -43q0 -25 18 -42q18 -19 45 -19t46 19q18 17 18 42q0 23 -19 42q-20 18 -45 18zM185 171l-68 -171h-117l297 729h135
l295 -729h-119l-67 171h-356zM225 273h277l-139 346z" />
    <glyph glyph-name="Ccedilla.alt" horiz-adv-x="785" 
d="M377 -249q-77 0 -121 50l43 54q36 -38 77 -38q47 0 47 32q0 15 -13 23.5t-31 8.5q-12 0 -29 -5l-36 46l46 73q-160 23 -251 152q-64 90 -64 215q0 80 30 152q30 70 81 120q52 49 119 77q69 29 141 29q115 0 201 -55q40 -28 66 -57q52 -59 70 -127l-113 -39q-9 40 -36 79
q-19 27 -42 44q-56 47 -147 47q-98 0 -173 -72q-77 -75 -77 -194q0 -121 76 -195q74 -72 173 -72q83 0 141 45q27 22 44 44q31 41 43 84l113 -39q-17 -62 -65 -118q-28 -33 -61 -57q-79 -59 -189 -66l-37 -56q41 0 73 -24q30 -22 30 -64q0 -44 -34 -70.5t-95 -26.5z" />
    <glyph glyph-name="OE.alt" horiz-adv-x="1056" 
d="M1002 0h-570q-155 0 -253 80q-47 39 -75 84q-59 88 -59 200q0 69 29.5 141.5t88.5 126.5q66 62 161 85q51 12 110 12h565v-104h-344v-202h312v-104h-312v-215h347v-104zM541 623h-106q-110 0 -178 -58q-32 -29 -52 -60q-40 -63 -40 -137q-2 -57 22.5 -112t70.5 -93
q69 -57 178 -57h105v517z" />
    <glyph glyph-name="Q.alt" horiz-adv-x="837" 
d="M815 0h-402q-156 0 -263 104q-48 47 -77 116q-28 68 -28 147q0 105 50 189q49 84 135 135q87 49 186 49q101 0 186 -49q84 -47 134 -133q50 -84 50 -188q0 -182 -155 -270v-3h184v-97zM163 369q0 -72 33 -132q35 -62 92 -96q57 -36 127 -36q71 0 130 37q56 34 89 96
q33 60 33 131q2 109 -73 188t-179 77q-107 0 -179 -77q-73 -76 -73 -188z" />
    <glyph glyph-name="O.slash" horiz-adv-x="838" 
d="M420 740q101 0 188 -49q86 -48 135 -135q50 -86 50 -190q0 -78 -30 -149t-80 -119q-51 -50 -120 -78q-72 -29 -146 -29q-75 0 -145 29q-68 27 -119 76q-49 49 -79 119q-29 69 -29 148t30 148q28 70 80 120q49 50 120 79q67 30 145 30zM419 633q-105 2 -180.5 -78
t-73.5 -190q0 -88 47 -157l337 388q-62 37 -130 37zM419 98q105 0 181 78q73 78 73 189q0 87 -49 159l-336 -389q58 -37 131 -37z" />
    <glyph glyph-name="a.alt" horiz-adv-x="634" 
d="M40 249q0 98 65 176q70 82 183 82q57 0 112 -34q31 -20 50 -48v72h110v-497h-110v75q-19 -28 -52 -49q-35 -20 -62 -27q-32 -7 -51 -7q-69 0 -126 37q-56 35 -88 95q-31 60 -31 125zM450 249q0 67 -41 112q-42 45 -108 45q-65 0 -107 -45q-42 -47 -42 -112t42 -111
q42 -45 107 -45q66 0 108 45q41 45 41 111z" />
    <glyph glyph-name="aacute.alt" horiz-adv-x="634" 
d="M349 742h135l-135 -160h-96zM40 249q0 98 65 176q70 82 183 82q57 0 112 -34q31 -20 50 -48v72h110v-497h-110v75q-19 -28 -52 -49q-35 -20 -62 -27q-32 -7 -51 -7q-69 0 -126 37q-56 35 -88 95q-31 60 -31 125zM450 249q0 67 -41 112q-42 45 -108 45q-65 0 -107 -45
q-42 -47 -42 -112t42 -111q42 -45 107 -45q66 0 108 45q41 45 41 111z" />
    <glyph glyph-name="abreve.alt" horiz-adv-x="634" 
d="M300 580q-67 -2 -115 40.5t-55 118.5h95q5 -79 75 -79t76 79h93q-6 -75 -52 -117q-47 -42 -117 -42zM40 249q0 98 65 176q70 82 183 82q57 0 112 -34q31 -20 50 -48v72h110v-497h-110v75q-19 -28 -52 -49q-35 -20 -62 -27q-32 -7 -51 -7q-69 0 -126 37q-56 35 -88 95
q-31 60 -31 125zM450 249q0 67 -41 112q-42 45 -108 45q-65 0 -107 -45q-42 -47 -42 -112t42 -111q42 -45 107 -45q66 0 108 45q41 45 41 111z" />
    <glyph glyph-name="acaron.alt" horiz-adv-x="634" 
d="M254 581l-129 161h110l65 -86l69 86h106l-134 -161h-87zM40 249q0 98 65 176q70 82 183 82q57 0 112 -34q31 -20 50 -48v72h110v-497h-110v75q-19 -28 -52 -49q-35 -20 -62 -27q-32 -7 -51 -7q-69 0 -126 37q-56 35 -88 95q-31 60 -31 125zM450 249q0 67 -41 112
q-42 45 -108 45q-65 0 -107 -45q-42 -47 -42 -112t42 -111q42 -45 107 -45q66 0 108 45q41 45 41 111z" />
    <glyph glyph-name="acircumflex.alt" horiz-adv-x="634" 
d="M236 581h-110l129 161h86l134 -161h-106l-69 86zM40 249q0 98 65 176q70 82 183 82q57 0 112 -34q31 -20 50 -48v72h110v-497h-110v75q-19 -28 -52 -49q-35 -20 -62 -27q-32 -7 -51 -7q-69 0 -126 37q-56 35 -88 95q-31 60 -31 125zM450 249q0 67 -41 112q-42 45 -108 45
q-65 0 -107 -45q-42 -47 -42 -112t42 -111q42 -45 107 -45q66 0 108 45q41 45 41 111z" />
    <glyph glyph-name="adieresis.alt" horiz-adv-x="634" 
d="M184 578q-27 0 -49 20q-20 22 -20 50q0 27 20 49q20 20 49 20q28 0 50 -20q20 -22 20 -49q0 -28 -20 -50q-22 -20 -50 -20zM391 578q-29 0 -49 20q-21 21 -21 50q0 27 20 49q22 20 50 20q29 0 49 -20t20 -49q0 -30 -20 -50q-22 -20 -49 -20zM40 249q0 98 65 176
q70 82 183 82q57 0 112 -34q31 -20 50 -48v72h110v-497h-110v75q-19 -28 -52 -49q-35 -20 -62 -27q-32 -7 -51 -7q-69 0 -126 37q-56 35 -88 95q-31 60 -31 125zM450 249q0 67 -41 112q-42 45 -108 45q-65 0 -107 -45q-42 -47 -42 -112t42 -111q42 -45 107 -45q66 0 108 45
q41 45 41 111z" />
    <glyph glyph-name="agrave.alt" horiz-adv-x="634" 
d="M348 582h-96l-135 160h135zM40 249q0 98 65 176q70 82 183 82q57 0 112 -34q31 -20 50 -48v72h110v-497h-110v75q-19 -28 -52 -49q-35 -20 -62 -27q-32 -7 -51 -7q-69 0 -126 37q-56 35 -88 95q-31 60 -31 125zM450 249q0 67 -41 112q-42 45 -108 45q-65 0 -107 -45
q-42 -47 -42 -112t42 -111q42 -45 107 -45q66 0 108 45q41 45 41 111z" />
    <glyph glyph-name="amacron.alt" horiz-adv-x="634" 
d="M461 591h-322v89h322v-89zM40 249q0 98 65 176q70 82 183 82q57 0 112 -34q31 -20 50 -48v72h110v-497h-110v75q-19 -28 -52 -49q-35 -20 -62 -27q-32 -7 -51 -7q-69 0 -126 37q-56 35 -88 95q-31 60 -31 125zM450 249q0 67 -41 112q-42 45 -108 45q-65 0 -107 -45
q-42 -47 -42 -112t42 -111q42 -45 107 -45q66 0 108 45q41 45 41 111z" />
    <glyph glyph-name="aogonek.alt" horiz-adv-x="634" 
d="M560 497v-497q-29 -21 -51 -44q-27 -29 -27 -55q0 -50 72 -50h1v-76q-22 -2 -34 -2q-59 0 -96 27q-40 26 -40 75q0 57 88 125h-23v75q-19 -28 -52 -49q-35 -20 -62 -27q-32 -7 -51 -7q-69 0 -126 37q-56 35 -88 95q-31 60 -31 125q0 98 65 176q70 82 183 82q57 0 112 -34
q31 -20 50 -48v72h110zM194 138q42 -45 107 -45q66 0 108 45q41 45 41 111q0 67 -41 112q-42 45 -108 45q-65 0 -107 -45q-42 -47 -42 -112t42 -111z" />
    <glyph glyph-name="aring.alt" horiz-adv-x="634" 
d="M299 561q-55 0 -95 38q-40 37 -40 91t40 91q41 38 95 38q56 0 96 -38q40 -37 40 -91t-40 -91q-40 -38 -96 -38zM300 750q-29 0 -46 -17q-18 -17 -18 -43q0 -24 19 -42q17 -18 45 -18t45 18q18 18 18 42t-19 42q-18 18 -44 18zM40 249q0 98 65 176q70 82 183 82
q57 0 112 -34q31 -20 50 -48v72h110v-497h-110v75q-19 -28 -52 -49q-35 -20 -62 -27q-32 -7 -51 -7q-69 0 -126 37q-56 35 -88 95q-31 60 -31 125zM450 249q0 67 -41 112q-42 45 -108 45q-65 0 -107 -45q-42 -47 -42 -112t42 -111q42 -45 107 -45q66 0 108 45q41 45 41 111z
" />
    <glyph glyph-name="atilde.alt" horiz-adv-x="634" 
d="M468 724v-10q0 -124 -96 -124q-26 -1 -71 22.5t-61 22.5q-28 0 -30 -44h-77v10q0 124 98 124q23 1 70.5 -22t62.5 -22q30 0 34 43h70zM40 249q0 98 65 176q70 82 183 82q57 0 112 -34q31 -20 50 -48v72h110v-497h-110v75q-19 -28 -52 -49q-35 -20 -62 -27q-32 -7 -51 -7
q-69 0 -126 37q-56 35 -88 95q-31 60 -31 125zM450 249q0 67 -41 112q-42 45 -108 45q-65 0 -107 -45q-42 -47 -42 -112t42 -111q42 -45 107 -45q66 0 108 45q41 45 41 111z" />
    <glyph glyph-name="ccedilla.alt" horiz-adv-x="567" 
d="M433 187l101 -33q-17 -55 -65 -102q-56 -51 -139 -59l-38 -57q42 0 73 -24q30 -22 30 -64q0 -44 -34 -70.5t-96 -26.5q-76 0 -120 50l42 54q36 -38 78 -38q46 0 46 32q0 15 -12.5 23.5t-30.5 8.5q-13 0 -30 -5l-36 46l48 74q-92 16 -150 87q-59 69 -59 167q0 70 34 129
q33 59 94 94q59 34 132 34q89 0 151 -47q62 -46 79 -113l-100 -33q-9 32 -38 61q-34 32 -92 32q-61 0 -104 -43q-42 -44 -42 -113q0 -68 41 -114q42 -45 106 -45q95 0 131 95z" />
    <glyph glyph-name="l.alt" horiz-adv-x="310" 
d="M180 758v-598q0 -64 75 -64q20 0 45 4v-95q-37 -10 -80 -10q-74 0 -112 36t-38 123v604h110z" />
    <glyph glyph-name="lslash.alt" horiz-adv-x="397" 
d="M34 195v113l95 55v395h111v-331l115 68v-113l-115 -66v-156q0 -33 17.5 -48.5t56.5 -15.5q20 0 45 4v-95q-37 -10 -79 -10q-76 0 -113 36q-38 36 -38 123v96z" />
    <glyph glyph-name="y.alt" horiz-adv-x="563" 
d="M228 3l-211 494h120l152 -371l141 371h117l-234 -572q-71 -174 -209 -174q-39 0 -63 9v96q12 -4 40 -4q86 0 126 100z" />
    <glyph glyph-name="aring.alt2" horiz-adv-x="535" 
d="M467 317v-237q0 -40 4 -80h-109q-4 19 -4 68q-25 -41 -65 -59t-81 -18q-73 0 -121 42q-47 41 -47 105v5q1 95 97 132q49 20 110 20h61q47 0 47 42q0 31 -26 54q-27 22 -72 22q-44 0 -73 -22.5t-36 -60.5l-100 23q3 33 32 73q28 38 75 60q-28 32 -28 77q0 54 40 91t95 37
q56 0 96 -37t40 -91q0 -44 -29 -78q54 -26 77 -80q17 -34 17 -88zM266 623q-26 0 -46 -17q-18 -18 -18 -43q0 -24 19 -43q18 -18 45 -18t45 18q19 18 19 43q0 24 -20 42q-18 18 -44 18zM358 217h-108q-35 0 -65 -18q-30 -19 -30 -51q0 -31 22 -49.5t57 -18.5q56 0 91 33
q33 33 33 88v16z" />
    <glyph glyph-name="i.loclTRK" horiz-adv-x="259" 
d="M78 607q-22 22 -22 51q0 30 22 52q21 22 51 22q31 0 52 -22q21 -21 21 -52q0 -30 -21 -51q-22 -22 -52 -22q-29 0 -51 22zM74 0v497h111v-497h-111z" />
    <glyph glyph-name="uni0414.alt" horiz-adv-x="810" 
d="M786 -154h-115v154h-533v-154h-114v257h60l255 626h133l252 -626h62v-257zM405 608l-201 -505h396z" />
    </font>
</defs>
</svg>
