<svg width="32" height="28" viewBox="0 0 32 28" fill="none" xmlns="http://www.w3.org/2000/svg">
<path d="M30 6.1C29.6708 6.03332 29.3358 5.99982 29 6H23C21.6739 6 20.4021 6.52678 19.4645 7.46447C18.5268 8.40215 18 9.67392 18 11V18H5C4.20435 18 3.44129 17.6839 2.87868 17.1213C2.31607 16.5587 2 15.7956 2 15V3C2 2.20435 2.31607 1.44129 2.87868 0.87868C3.44129 0.316071 4.20435 0 5 0H27C27.7956 0 28.5587 0.316071 29.1213 0.87868C29.6839 1.44129 30 2.20435 30 3V6.1ZM18 20V24H2C1.46957 24 0.960859 23.7893 0.585786 23.4142C0.210714 23.0391 0 22.5304 0 22C0 21.4696 0.210714 20.9609 0.585786 20.5858C0.960859 20.2107 1.46957 20 2 20H18ZM23 8H29C29.7956 8 30.5587 8.31607 31.1213 8.87868C31.6839 9.44129 32 10.2044 32 11V25C32 25.7956 31.6839 26.5587 31.1213 27.1213C30.5587 27.6839 29.7956 28 29 28H23C22.2044 28 21.4413 27.6839 20.8787 27.1213C20.3161 26.5587 20 25.7956 20 25V11C20 10.2044 20.3161 9.44129 20.8787 8.87868C21.4413 8.31607 22.2044 8 23 8ZM25 24C24.7348 24 24.4804 24.1054 24.2929 24.2929C24.1054 24.4804 24 24.7348 24 25C24 25.2652 24.1054 25.5196 24.2929 25.7071C24.4804 25.8946 24.7348 26 25 26H27C27.2652 26 27.5196 25.8946 27.7071 25.7071C27.8946 25.5196 28 25.2652 28 25C28 24.7348 27.8946 24.4804 27.7071 24.2929C27.5196 24.1054 27.2652 24 27 24H25Z" fill="#4F50FF"/>
</svg>
