<svg width="25" height="33" viewBox="0 0 25 33" fill="none" xmlns="http://www.w3.org/2000/svg">
<path d="M24.32 21.183L22.616 32.018H8.414L3.726 28.31L3.623 28.184C2.58352 26.9165 2.01467 25.3283 2.013 23.689V21.711C2.013 19.261 3.711 17.667 5.798 17.667H6.995V10.653C6.995 8.72 8.977 7.018 10.993 7.018C13.009 7.018 15 8.72 15 10.653V15.1L20.77 16.254C23.104 16.679 24.685 18.857 24.32 21.184V21.183ZM21.356 20.718C21.466 20.012 20.976 19.337 20.227 19.204L20.196 19.198L12 17.558V10.653C12 10.635 11.92 10.491 11.737 10.334C11.504 10.136 11.214 10.018 10.993 10.018C10.773 10.018 10.487 10.135 10.257 10.332C10.075 10.488 9.995 10.632 9.995 10.653V23.337H6.995V20.667H5.798C5.328 20.667 5.013 20.962 5.013 21.711V23.689C5.013 24.582 5.308 25.45 5.853 26.167L9.457 29.018H20.05L21.355 20.718H21.356ZM9 1.5C9 1.10218 9.15804 0.720644 9.43934 0.43934C9.72064 0.158035 10.1022 0 10.5 0C10.8978 0 11.2794 0.158035 11.5607 0.43934C11.842 0.720644 12 1.10218 12 1.5V3.5C12 3.89782 11.842 4.27936 11.5607 4.56066C11.2794 4.84196 10.8978 5 10.5 5C10.1022 5 9.72064 4.84196 9.43934 4.56066C9.15804 4.27936 9 3.89782 9 3.5V1.5ZM16.06 2.646C16.1993 2.50667 16.3647 2.39614 16.5468 2.32074C16.7288 2.24533 16.924 2.20652 17.121 2.20652C17.318 2.20652 17.5132 2.24533 17.6952 2.32074C17.8773 2.39614 18.0427 2.50667 18.182 2.646C18.3213 2.78533 18.4319 2.95074 18.5073 3.13279C18.5827 3.31484 18.6215 3.50995 18.6215 3.707C18.6215 3.90405 18.5827 4.09916 18.5073 4.28121C18.4319 4.46326 18.3213 4.62867 18.182 4.768L16.768 6.182C16.6287 6.32133 16.4634 6.43187 16.2814 6.5073C16.0994 6.58273 15.9044 6.62158 15.7074 6.62163C15.5104 6.62167 15.3153 6.58292 15.1333 6.50757C14.9512 6.43223 14.7858 6.32177 14.6465 6.1825C14.5072 6.04323 14.3966 5.87789 14.3212 5.6959C14.2458 5.51391 14.2069 5.31885 14.2069 5.12185C14.2068 4.92485 14.2456 4.72977 14.3209 4.54775C14.3963 4.36573 14.5067 4.20033 14.646 4.061L16.061 2.646H16.06ZM2.647 4.768C2.36561 4.48661 2.20752 4.10495 2.20752 3.707C2.20752 3.30905 2.36561 2.92739 2.647 2.646C2.92839 2.36461 3.31005 2.20652 3.708 2.20652C4.10595 2.20652 4.48761 2.36461 4.769 2.646L6.183 4.061C6.32626 4.19937 6.44054 4.36489 6.51915 4.54789C6.59776 4.7309 6.63914 4.92773 6.64088 5.1269C6.64261 5.32607 6.60465 5.52359 6.52923 5.70793C6.45381 5.89228 6.34243 6.05975 6.20159 6.20059C6.06075 6.34143 5.89328 6.45281 5.70893 6.52823C5.52459 6.60365 5.32707 6.64161 5.1279 6.63988C4.92873 6.63814 4.7319 6.59677 4.54889 6.51815C4.36589 6.43954 4.20037 6.32527 4.062 6.182L2.646 4.768H2.647ZM1.5 11C1.10218 11 0.720644 10.842 0.43934 10.5607C0.158035 10.2794 0 9.89782 0 9.5C0 9.10218 0.158035 8.72064 0.43934 8.43934C0.720644 8.15804 1.10218 8 1.5 8H3.5C3.89782 8 4.27936 8.15804 4.56066 8.43934C4.84196 8.72064 5 9.10218 5 9.5C5 9.89782 4.84196 10.2794 4.56066 10.5607C4.27936 10.842 3.89782 11 3.5 11H1.5ZM18.5 11C18.1022 11 17.7206 10.842 17.4393 10.5607C17.158 10.2794 17 9.89782 17 9.5C17 9.10218 17.158 8.72064 17.4393 8.43934C17.7206 8.15804 18.1022 8 18.5 8H20.5C20.8978 8 21.2794 8.15804 21.5607 8.43934C21.842 8.72064 22 9.10218 22 9.5C22 9.89782 21.842 10.2794 21.5607 10.5607C21.2794 10.842 20.8978 11 20.5 11H18.5Z" fill="#4F50FF"/>
</svg>
