<svg width="34" height="197" viewBox="0 0 34 197" fill="none" xmlns="http://www.w3.org/2000/svg">
<rect y="163" width="34" height="34" rx="3" fill="#2C3038"/>
<path d="M13.375 180.875H20.625C20.8125 180.875 21 180.719 21 180.5V179.5C21 179.312 20.8125 179.125 20.625 179.125H13.375C13.1562 179.125 13 179.312 13 179.5V180.5C13 180.719 13.1562 180.875 13.375 180.875ZM24.75 180C24.75 175.719 21.2812 172.25 17 172.25C12.7188 172.25 9.25 175.719 9.25 180C9.25 184.281 12.7187 187.75 17 187.75C21.2812 187.75 24.75 184.281 24.75 180ZM23.25 180C23.25 183.469 20.4375 186.25 17 186.25C13.5312 186.25 10.75 183.469 10.75 180C10.75 176.562 13.5312 173.75 17 173.75C20.4375 173.75 23.25 176.562 23.25 180Z" fill="white"/>
<rect y="111" width="34" height="34" rx="3" fill="#2C3038"/>
<path d="M21 127.5C21 127.312 20.8125 127.125 20.625 127.125H17.875V124.375C17.875 124.188 17.6875 124 17.5 124H16.5C16.2812 124 16.125 124.188 16.125 124.375V127.125H13.375C13.1562 127.125 13 127.312 13 127.5V128.5C13 128.719 13.1562 128.875 13.375 128.875H16.125V131.625C16.125 131.844 16.2812 132 16.5 132H17.5C17.6875 132 17.875 131.844 17.875 131.625V128.875H20.625C20.8125 128.875 21 128.719 21 128.5V127.5ZM24.75 128C24.75 123.719 21.2812 120.25 17 120.25C12.7188 120.25 9.25 123.719 9.25 128C9.25 132.281 12.7187 135.75 17 135.75C21.2812 135.75 24.75 132.281 24.75 128ZM23.25 128C23.25 131.469 20.4375 134.25 17 134.25C13.5312 134.25 10.75 131.469 10.75 128C10.75 124.562 13.5312 121.75 17 121.75C20.4375 121.75 23.25 124.562 23.25 128Z" fill="white"/>
<path d="M12.712 81.16L13.272 82.952C12.7067 83.1013 12.184 83.4427 11.704 83.976C11.1493 84.584 10.872 85.3787 10.872 86.36C10.872 87.1067 11.0533 87.7893 11.416 88.408C11.8 89.016 12.3173 89.496 12.968 89.848C13.6293 90.2 14.36 90.376 15.16 90.376C16.344 90.3973 17.3573 90.024 18.2 89.256C19.0427 88.4773 19.4587 87.5173 19.448 86.376C19.448 85.4053 19.2027 84.616 18.712 84.008C18.2107 83.4 17.5813 83.032 16.824 82.904L16.824 87.08L15.16 87.08L15.16 80.92L15.8 80.92C17.2827 80.92 18.536 81.4 19.56 82.36C20.6053 83.3413 21.128 84.6747 21.128 86.36C21.128 87.512 20.872 88.536 20.36 89.432C19.8267 90.3493 19.1173 91.0533 18.232 91.544C17.3253 92.0347 16.312 92.28 15.192 92.28C14.3493 92.28 13.544 92.1253 12.776 91.816C12.04 91.528 11.4053 91.1173 10.872 90.584C9.73067 89.4427 9.16 88.0293 9.16 86.344C9.16 85.0107 9.50667 83.8853 10.2 82.968C10.8827 82.0507 11.72 81.448 12.712 81.16ZM17.016 79.6569C16.248 79.6569 15.544 79.4649 14.904 79.0809C14.2427 78.6755 13.7467 78.1635 13.416 77.5449C13.064 76.9049 12.888 76.2009 12.888 75.4329C12.888 74.6862 13.064 73.9929 13.416 73.3529C13.768 72.7129 14.2587 72.2009 14.888 71.8169C15.5387 71.4435 16.2373 71.2569 16.984 71.2569C18.1253 71.2355 19.112 71.6462 19.944 72.4889C20.7653 73.3209 21.1653 74.3075 21.144 75.4489C21.144 76.1849 20.9627 76.8835 20.6 77.5449C20.2693 78.1635 19.7733 78.6755 19.112 79.0809C18.472 79.4649 17.7733 79.6569 17.016 79.6569ZM16.984 77.8329C17.6773 77.8329 18.2747 77.6089 18.776 77.1609C19.2773 76.7129 19.528 76.1369 19.528 75.4329C19.528 74.7395 19.2827 74.1689 18.792 73.7209C18.3013 73.2835 17.7093 73.0649 17.016 73.0649C16.3013 73.0649 15.704 73.2889 15.224 73.7369C14.7333 74.1635 14.488 74.7342 14.488 75.4489C14.488 76.1529 14.728 76.7289 15.208 77.1769C15.6773 77.6142 16.2693 77.8329 16.984 77.8329ZM17.016 69.9694C16.248 69.9694 15.544 69.7774 14.904 69.3934C14.2427 68.988 13.7467 68.476 13.416 67.8574C13.064 67.2174 12.888 66.5134 12.888 65.7454C12.888 64.9987 13.064 64.3054 13.416 63.6654C13.768 63.0254 14.2587 62.5134 14.888 62.1294C15.5387 61.756 16.2373 61.5694 16.984 61.5694C18.1253 61.548 19.112 61.9587 19.944 62.8014C20.7653 63.6334 21.1653 64.62 21.144 65.7614C21.144 66.4974 20.9627 67.196 20.6 67.8574C20.2693 68.476 19.7733 68.988 19.112 69.3934C18.472 69.7774 17.7733 69.9694 17.016 69.9694ZM16.984 68.1454C17.6773 68.1454 18.2747 67.9214 18.776 67.4734C19.2773 67.0254 19.528 66.4494 19.528 65.7454C19.528 65.052 19.2827 64.4814 18.792 64.0334C18.3013 63.596 17.7093 63.3774 17.016 63.3774C16.3013 63.3774 15.704 63.6014 15.224 64.0494C14.7333 64.476 14.488 65.0467 14.488 65.7614C14.488 66.4654 14.728 67.0414 15.208 67.4894C15.6773 67.9267 16.2693 68.1454 16.984 68.1454ZM21.064 56.4099C21.064 57.5512 20.6533 58.4792 19.832 59.1939C19.0213 59.9192 18.0773 60.2819 17 60.2819C15.9867 60.2819 15.064 59.9352 14.232 59.2419C13.8267 58.9112 13.5067 58.4952 13.272 57.9939C13.0373 57.4819 12.92 56.9379 12.92 56.3619C12.92 55.9139 13.0267 55.4445 13.24 54.9539C13.4853 54.4205 13.8267 54.0205 14.264 53.7539L13.048 53.7539L13.048 52.0259L20.952 52.0259C21.7733 52.0259 22.4933 52.2179 23.112 52.6019C23.752 53.0072 24.216 53.5192 24.504 54.1379C24.824 54.7779 24.984 55.5085 24.984 56.3299C24.984 57.6312 24.5893 58.6765 23.8 59.4659C23.3947 59.8712 22.8933 60.1325 22.296 60.2499L21.816 58.5859C22.2533 58.4899 22.6213 58.2339 22.92 57.8179C23.24 57.4019 23.4 56.9272 23.4 56.3939C23.4 55.6685 23.1973 55.0552 22.792 54.5539C22.3973 54.0525 21.8107 53.8019 21.032 53.8019L19.72 53.8019C20.0293 53.9939 20.296 54.2659 20.52 54.6179C20.7333 54.9699 20.8773 55.2952 20.952 55.5939C21.0267 55.9245 21.064 56.1965 21.064 56.4099ZM16.968 53.7699C16.264 53.7699 15.6773 53.9885 15.208 54.4259C14.7387 54.8525 14.504 55.4232 14.504 56.1379C14.504 56.8525 14.7387 57.4285 15.208 57.8659C15.6773 58.3032 16.264 58.5219 16.968 58.5219C17.672 58.5219 18.264 58.2979 18.744 57.8499C19.2347 57.4019 19.48 56.8312 19.48 56.1379C19.48 55.4445 19.2347 54.8739 18.744 54.4259C18.2533 53.9885 17.6613 53.7699 16.968 53.7699ZM8.872 47.8837L21 47.8837L21 49.6597L8.872 49.6597L8.872 47.8837ZM17.544 38.1911L17.544 44.2391C18.12 44.2285 18.616 43.9831 19.032 43.5031C19.4373 43.0231 19.6347 42.4898 19.624 41.9031C19.624 40.7938 19.176 40.0898 18.28 39.7911L18.744 38.3031C19.224 38.4418 19.6507 38.6978 20.024 39.0711C20.3973 39.4338 20.68 39.8605 20.872 40.3511C21.0533 40.8631 21.144 41.3751 21.144 41.8871C21.1653 43.0391 20.7707 44.0258 19.96 44.8471C19.1493 45.6685 18.168 46.0685 17.016 46.0471C16.2693 46.0471 15.5813 45.8765 14.952 45.5351C14.3013 45.1831 13.8 44.7031 13.448 44.0951C13.0747 43.4765 12.888 42.7938 12.888 42.0471C12.888 40.8311 13.2667 39.8818 14.024 39.1991C14.7813 38.5058 15.7733 38.1591 17 38.1591C17.1493 38.1591 17.3307 38.1698 17.544 38.1911ZM14.408 42.0311C14.408 42.5965 14.5733 43.0658 14.904 43.4391C15.224 43.8338 15.656 44.0685 16.2 44.1431L16.2 39.9671C15.6667 39.9991 15.2293 40.2071 14.888 40.5911C14.568 40.9965 14.408 41.4765 14.408 42.0311ZM21 27.1777L16.536 27.1777C15.9173 27.1777 15.432 27.3217 15.08 27.6097C14.728 27.8871 14.552 28.3084 14.552 28.8737C14.552 29.4284 14.7333 29.8551 15.096 30.1537C15.48 30.4737 15.9707 30.6337 16.568 30.6337L21 30.6337L21 32.4097L13.048 32.4097L13.048 30.6817L14.12 30.6817C13.7893 30.4364 13.5333 30.1591 13.352 29.8497C13.1387 29.5191 13.0053 29.2471 12.952 29.0337C12.8987 28.7671 12.872 28.5217 12.872 28.2977C12.872 27.1564 13.304 26.3404 14.168 25.8497C13.7413 25.4657 13.4107 25.0497 13.176 24.6017C12.9733 24.1857 12.872 23.6791 12.872 23.0817C12.872 22.1111 13.1813 21.3751 13.8 20.8737C14.3867 20.4151 15.1493 20.1857 16.088 20.1857L21 20.1857L21 21.9617L16.52 21.9617C15.9013 21.9617 15.4213 22.1057 15.08 22.3937C14.728 22.6711 14.552 23.0924 14.552 23.6577C14.552 24.2124 14.7333 24.6391 15.096 24.9377C15.4693 25.2577 15.9547 25.4177 16.552 25.4177L21 25.4177L21 27.1777ZM21 11.5581L21 13.2861C20.7547 13.3395 20.392 13.3661 19.912 13.3661C20.3493 13.6328 20.664 13.9741 20.856 14.3901C21.048 14.8168 21.144 15.2541 21.144 15.7021C21.144 16.4808 20.92 17.1208 20.472 17.6221C20.0347 18.1235 19.4747 18.3741 18.792 18.3741L18.712 18.3741C17.6987 18.3635 16.9947 17.8515 16.6 16.8381C16.3867 16.2941 16.28 15.7075 16.28 15.0781L16.28 14.0861C16.28 13.5955 16.056 13.3501 15.608 13.3501C15.2667 13.3501 14.9787 13.4835 14.744 13.7501C14.5093 14.0381 14.392 14.4275 14.392 14.9181C14.392 15.3875 14.5147 15.7768 14.76 16.0861C14.9947 16.3955 15.3147 16.5821 15.72 16.6461L15.352 18.2621C14.9787 18.2088 14.5787 18.0275 14.152 17.7181C13.7253 17.3875 13.4053 16.9715 13.192 16.4701C12.9893 16.0328 12.888 15.4941 12.888 14.8541C12.888 13.3608 13.432 12.3688 14.52 11.8781C14.9147 11.6968 15.384 11.6061 15.928 11.6061L19.72 11.6061C20.2533 11.6061 20.68 11.5901 21 11.5581ZM17.784 13.3661L17.528 13.3661L17.528 15.0781C17.528 15.4515 17.624 15.7981 17.816 16.1181C18.0187 16.4381 18.2907 16.5981 18.632 16.5981C18.9627 16.5981 19.2293 16.4808 19.432 16.2461C19.624 16.0115 19.72 15.7075 19.72 15.3341C19.72 14.7261 19.544 14.2461 19.192 13.8941C18.84 13.5421 18.3707 13.3661 17.784 13.3661ZM17 1.02762C17.7253 1.02762 18.3973 1.18762 19.016 1.50762C19.656 1.84896 20.1627 2.31829 20.536 2.91562C20.9307 3.55562 21.128 4.24362 21.128 4.97962C21.128 5.53429 20.952 6.12096 20.6 6.73962C20.3973 7.09162 20.1413 7.36362 19.832 7.55562L24.92 7.55562L24.92 9.33162L13.048 9.33162L13.048 7.60362L14.28 7.60362C13.7573 7.28362 13.3893 6.84096 13.176 6.27562C12.984 5.78496 12.888 5.33696 12.888 4.93162C12.888 3.74762 13.3253 2.78762 14.2 2.05162C15.032 1.36896 15.9653 1.02762 17 1.02762ZM15.224 6.91562C15.7253 7.36362 16.3227 7.58762 17.016 7.58762C17.7093 7.58762 18.3013 7.36362 18.792 6.91562C19.272 6.46762 19.512 5.89696 19.512 5.20362C19.512 4.49962 19.272 3.92362 18.792 3.47562C18.312 3.03829 17.72 2.81962 17.016 2.81962C16.3013 2.81962 15.704 3.03829 15.224 3.47562C14.744 3.92362 14.504 4.49962 14.504 5.20362C14.504 5.89696 14.744 6.46762 15.224 6.91562Z" fill="#656565"/>
</svg>
