<svg width="32" height="30" viewBox="0 0 32 30" fill="none" xmlns="http://www.w3.org/2000/svg">
<path fill-rule="evenodd" clip-rule="evenodd" d="M7 16H25C26.8565 16 28.637 16.7375 29.9497 18.0503C31.2625 19.363 32 21.1435 32 23C32 24.8565 31.2625 26.637 29.9497 27.9497C28.637 29.2625 26.8565 30 25 30H7C5.14348 30 3.36301 29.2625 2.05025 27.9497C0.737498 26.637 1.47514e-07 24.8565 1.47514e-07 23C1.47514e-07 21.1435 0.737498 19.363 2.05025 18.0503C3.36301 16.7375 5.14348 16 7 16ZM25 19C23.9391 19 22.9217 19.4214 22.1716 20.1716C21.4214 20.9217 21 21.9391 21 23C21 24.0609 21.4214 25.0783 22.1716 25.8284C22.9217 26.5786 23.9391 27 25 27C26.0609 27 27.0783 26.5786 27.8284 25.8284C28.5786 25.0783 29 24.0609 29 23C29 21.9391 28.5786 20.9217 27.8284 20.1716C27.0783 19.4214 26.0609 19 25 19ZM8.564 11H25C26.0609 11 27.0783 10.5786 27.8284 9.82843C28.5786 9.07828 29 8.06087 29 7C29 5.93913 28.5786 4.92172 27.8284 4.17157C27.0783 3.42143 26.0609 3 25 3H8.564C9.29854 3.37857 9.91465 3.95209 10.3448 4.65767C10.7749 5.36325 11.0024 6.17365 11.0024 7C11.0024 7.82635 10.7749 8.63675 10.3448 9.34233C9.91465 10.0479 9.29854 10.6214 8.564 11ZM7 0H25C26.8565 0 28.637 0.737498 29.9497 2.05025C31.2625 3.36301 32 5.14348 32 7C32 8.85652 31.2625 10.637 29.9497 11.9497C28.637 13.2625 26.8565 14 25 14H7C5.14348 14 3.36301 13.2625 2.05025 11.9497C0.737498 10.637 0 8.85652 0 7C0 5.14348 0.737498 3.36301 2.05025 2.05025C3.36301 0.737498 5.14348 0 7 0Z" fill="#4F50FF"/>
</svg>
