<svg width="32" height="32" viewBox="0 0 32 32" fill="none" xmlns="http://www.w3.org/2000/svg">
<path fill-rule="evenodd" clip-rule="evenodd" d="M17 0H31C31.2652 0 31.5196 0.105357 31.7071 0.292893C31.8946 0.48043 32 0.734784 32 1V11C32 11.2652 31.8946 11.5196 31.7071 11.7071C31.5196 11.8946 31.2652 12 31 12H22L16 16V1C16 0.734784 16.1054 0.48043 16.2929 0.292893C16.4804 0.105357 16.7348 0 17 0V0ZM9 20C7.67392 20 6.40215 19.4732 5.46447 18.5355C4.52678 17.5979 4 16.3261 4 15C4 13.6739 4.52678 12.4021 5.46447 11.4645C6.40215 10.5268 7.67392 10 9 10C10.3261 10 11.5979 10.5268 12.5355 11.4645C13.4732 12.4021 14 13.6739 14 15C14 16.3261 13.4732 17.5979 12.5355 18.5355C11.5979 19.4732 10.3261 20 9 20ZM3 22H15C15.7956 22 16.5587 22.3161 17.1213 22.8787C17.6839 23.4413 18 24.2044 18 25V32H0V25C0 24.2044 0.31607 23.4413 0.87868 22.8787C1.44129 22.3161 2.20435 22 3 22Z" fill="#4F50FF"/>
</svg>
