<svg width="32" height="28" viewBox="0 0 32 28" fill="none" xmlns="http://www.w3.org/2000/svg">
<path d="M21.73 14.844C20.077 13.614 18.04 13 16 13C13.4 13 10.8 14 9 16L6.2 13.2C8.8 10.4 12.2 9 16 9C19.349 9 22.387 10.087 24.84 12.262C23.5153 12.7005 22.4047 13.6226 21.73 14.844ZM16 24C15.2044 24 14.4413 23.6839 13.8787 23.1213C13.3161 22.5587 13 21.7956 13 21C13 20.2044 13.3161 19.4413 13.8787 18.8787C14.4413 18.3161 15.2044 18 16 18C16.7956 18 17.5587 18.3161 18.1213 18.8787C18.6839 19.4413 19 20.2044 19 21C19 21.7956 18.6839 22.5587 18.1213 23.1213C17.5587 23.6839 16.7956 24 16 24ZM16 0C22 0 27.6 2.2 32 6.4L29.2 9.4C25.6 5.8 21 4 16 4C11 4 6.4 5.8 2.8 9.2L0 6.4C4.4 2.2 10 0 16 0ZM23 19V17.5C23 16.5717 23.3687 15.6815 24.0251 15.0251C24.6815 14.3687 25.5717 14 26.5 14C27.4283 14 28.3185 14.3687 28.9749 15.0251C29.6313 15.6815 30 16.5717 30 17.5V19C30.5304 19 31.0391 19.2107 31.4142 19.5858C31.7893 19.9609 32 20.4696 32 21V26C32 26.5304 31.7893 27.0391 31.4142 27.4142C31.0391 27.7893 30.5304 28 30 28H23C22.4696 28 21.9609 27.7893 21.5858 27.4142C21.2107 27.0391 21 26.5304 21 26V21C21 20.4696 21.2107 19.9609 21.5858 19.5858C21.9609 19.2107 22.4696 19 23 19ZM25 17.5V19H28V17.5C28 17.1022 27.842 16.7206 27.5607 16.4393C27.2794 16.158 26.8978 16 26.5 16C26.1022 16 25.7206 16.158 25.4393 16.4393C25.158 16.7206 25 17.1022 25 17.5ZM26.5 25C26.8978 25 27.2794 24.842 27.5607 24.5607C27.842 24.2794 28 23.8978 28 23.5C28 23.1022 27.842 22.7206 27.5607 22.4393C27.2794 22.158 26.8978 22 26.5 22C26.1022 22 25.7206 22.158 25.4393 22.4393C25.158 22.7206 25 23.1022 25 23.5C25 23.8978 25.158 24.2794 25.4393 24.5607C25.7206 24.842 26.1022 25 26.5 25Z" fill="#4F50FF"/>
</svg>
