<svg width="32" height="32" viewBox="0 0 32 32" fill="none" xmlns="http://www.w3.org/2000/svg">
<path d="M24.624 24.344C23.161 24.987 21.82 24.352 21.474 21.788C21.152 19.402 22.731 17.53 23.006 16.021C23.161 15.167 21.774 14.193 22.39 12.366C23.006 10.538 24.967 11.452 25.963 11.452C26.619 11.452 26.111 9.868 25.388 8.524C24.5631 7.48933 23.5735 6.59742 22.459 5.884C22.4388 5.91475 22.4153 5.94325 22.389 5.969C21.476 6.883 19.221 9.433 18.107 8.71C17.329 8.205 17.854 6.504 17.818 4.137C17.0426 4.01909 16.2576 3.9769 15.474 4.011C16.132 9.628 16.701 12.292 15.384 13.28C14.165 14.193 12.338 13.28 11.159 15.107C10.471 16.174 11.438 18.621 11.877 18.762C16.317 20.195 23.542 19.802 16.795 27.214C16.5466 27.4873 16.2864 27.7495 16.015 28C17.622 27.9999 19.2124 27.6762 20.6915 27.0481C22.1706 26.4199 23.5081 25.5003 24.624 24.344ZM12.044 27.333C11.484 26.26 11.424 25.206 11.424 23.332C11.424 22.202 11.111 20.098 10.37 19.676C9.3 19.067 7.769 19.676 5.941 17.849C5.181 17.089 4.525 16.316 4.009 15.536C4.00299 15.6906 3.99999 15.8453 4 16C4 21.241 7.36 25.698 12.044 27.333ZM16 32C7.163 32 0 24.837 0 16C0 7.163 7.163 0 16 0C24.837 0 32 7.163 32 16C32 24.837 24.837 32 16 32Z" fill="#4F50FF"/>
</svg>
